STARTFONT 2.1
COMMENT
COMMENT Converted from OpenType font "montserrat.ttf" by "otf2bdf 3.0".
COMMENT
FONT -FreeType-Montserrat Thin-Medium-R-Normal--39-280-100-100-P-195-ISO10646-1
SIZE 28 100 100
FONTBOUNDINGBOX 65 50 -6 -10
STARTPROPERTIES 19
FOUNDRY "FreeType"
FAMILY_NAME "Montserrat Thin"
WEIGHT_NAME "Medium"
SLANT "R"
SETWIDTH_NAME "Normal"
ADD_STYLE_NAME ""
PIXEL_SIZE 39
POINT_SIZE 280
RESOLUTION_X 100
RESOLUTION_Y 100
SPACING "P"
AVERAGE_WIDTH 195
CHARSET_REGISTRY "ISO10646"
CHARSET_ENCODING "1"
FONT_ASCENT 37
FONT_DESCENT 9
COPYRIGHT "Copyright 2011 The Montserrat Project Authors (https://github.com/JulietaUla/Montserrat)"
_OTF_FONTFILE "montserrat.ttf"
_OTF_PSNAME "Montserrat-Thin"
ENDPROPERTIES
CHARS 969
STARTCHAR 0000
ENCODING 0
SWIDTH 0 0
DWIDTH 0 0
BBX 0 0 0 0
BITMAP
ENDCHAR
STARTCHAR 000D
ENCODING 13
SWIDTH 231 0
DWIDTH 9 0
BBX 0 0 0 0
BITMAP
ENDCHAR
STARTCHAR 0020
ENCODING 32
SWIDTH 231 0
DWIDTH 9 0
BBX 0 0 0 0
BITMAP
ENDCHAR
STARTCHAR 0021
ENCODING 33
SWIDTH 231 0
DWIDTH 9 0
BBX 2 27 4 0
BITMAP
80
80
80
80
80
80
80
80
80
80
80
80
80
80
80
80
80
80
80
80
00
00
00
00
00
80
C0
ENDCHAR
STARTCHAR 0022
ENCODING 34
SWIDTH 308 0
DWIDTH 12 0
BBX 7 10 3 17
BITMAP
82
82
82
82
82
82
82
82
82
82
ENDCHAR
STARTCHAR 0023
ENCODING 35
SWIDTH 668 0
DWIDTH 26 0
BBX 24 27 1 0
BITMAP
008020
008020
008020
008020
008020
008020
010020
010040
3FFFFF
010040
010040
010040
010040
010040
020040
020080
020080
020080
FFFFFE
020080
020080
020080
040080
040100
040100
040100
040100
ENDCHAR
STARTCHAR 0024
ENCODING 36
SWIDTH 591 0
DWIDTH 23 0
BBX 19 37 2 -5
BITMAP
004000
004000
004000
004000
004000
07FE00
084180
304040
204000
404000
404000
404000
404000
404000
204000
204000
184000
074000
00F000
004E00
004180
004040
004020
004020
004020
004020
004020
004020
C04040
2040C0
184100
07FE00
004000
004000
004000
004000
004000
ENDCHAR
STARTCHAR 0025
ENCODING 37
SWIDTH 797 0
DWIDTH 31 0
BBX 27 27 2 0
BITMAP
1F800200
20400400
40400800
80200800
80201000
80202000
80102000
80104000
80208000
80208000
80210000
40420000
20420400
1F843B80
00084040
00088040
00108020
00208020
00210020
00410020
00810020
01010020
01008020
02008020
04004040
04002080
08001F00
ENDCHAR
STARTCHAR 0026
ENCODING 38
SWIDTH 617 0
DWIDTH 24 0
BBX 22 27 2 0
BITMAP
03F800
040400
080200
080200
080200
080200
080200
080400
040800
021000
022000
01C000
038000
044000
082000
301000
400810
400410
800210
800120
8001A0
8000C0
800040
4000A0
200110
100608
0FF804
ENDCHAR
STARTCHAR 0027
ENCODING 39
SWIDTH 180 0
DWIDTH 7 0
BBX 1 10 3 17
BITMAP
80
80
80
80
80
80
80
80
80
80
ENDCHAR
STARTCHAR 0028
ENCODING 40
SWIDTH 308 0
DWIDTH 12 0
BBX 5 37 5 -8
BITMAP
08
10
10
20
20
40
40
40
40
80
80
80
80
80
80
80
80
80
80
80
80
80
80
80
80
80
80
80
40
40
40
20
20
20
10
10
08
ENDCHAR
STARTCHAR 0029
ENCODING 41
SWIDTH 308 0
DWIDTH 12 0
BBX 5 37 2 -8
BITMAP
80
40
40
20
20
20
10
10
10
10
08
08
08
08
08
08
08
08
08
08
08
08
08
08
08
08
08
10
10
10
10
20
20
20
40
40
80
ENDCHAR
STARTCHAR 002A
ENCODING 42
SWIDTH 334 0
DWIDTH 13 0
BBX 12 12 1 17
BITMAP
0400
0400
8410
6460
1580
0600
0D00
34C0
C420
0400
0400
0400
ENDCHAR
STARTCHAR 002B
ENCODING 43
SWIDTH 540 0
DWIDTH 21 0
BBX 16 15 3 6
BITMAP
0100
0100
0100
0100
0100
0100
0100
FFFF
0100
0100
0100
0100
0100
0100
0100
ENDCHAR
STARTCHAR 002C
ENCODING 44
SWIDTH 180 0
DWIDTH 7 0
BBX 3 7 2 -5
BITMAP
40
60
40
40
40
40
80
ENDCHAR
STARTCHAR 002D
ENCODING 45
SWIDTH 360 0
DWIDTH 14 0
BBX 9 1 3 10
BITMAP
FF80
ENDCHAR
STARTCHAR 002E
ENCODING 46
SWIDTH 180 0
DWIDTH 7 0
BBX 1 2 3 0
BITMAP
80
80
ENDCHAR
STARTCHAR 002F
ENCODING 47
SWIDTH 282 0
DWIDTH 11 0
BBX 14 37 -1 -4
BITMAP
0004
0008
0008
0008
0010
0010
0010
0020
0020
0020
0040
0040
0040
0080
0080
0100
0100
0100
0200
0200
0200
0400
0400
0400
0800
0800
0800
1000
1000
1000
2000
2000
2000
4000
4000
8000
8000
ENDCHAR
STARTCHAR 0030
ENCODING 48
SWIDTH 642 0
DWIDTH 25 0
BBX 21 27 2 0
BITMAP
01FE00
060100
080080
100040
200020
200020
400010
400010
400008
800008
800008
800008
800008
800008
800008
800008
800008
800008
400010
400010
400010
200020
200020
100040
080080
060100
01FE00
ENDCHAR
STARTCHAR 0031
ENCODING 49
SWIDTH 334 0
DWIDTH 13 0
BBX 8 27 0 0
BITMAP
FF
01
01
01
01
01
01
01
01
01
01
01
01
01
01
01
01
01
01
01
01
01
01
01
01
01
01
ENDCHAR
STARTCHAR 0032
ENCODING 50
SWIDTH 540 0
DWIDTH 21 0
BBX 19 27 1 0
BITMAP
0FFC00
300200
400100
800080
000080
000080
000080
000080
000080
000080
000100
000100
000200
000400
000C00
001000
003000
006000
00C000
018000
030000
020000
040000
080000
100000
200000
7FFFE0
ENDCHAR
STARTCHAR 0033
ENCODING 51
SWIDTH 540 0
DWIDTH 21 0
BBX 18 27 1 0
BITMAP
7FFF80
000100
000200
000200
000400
000800
001000
001000
002000
004000
008000
008000
01F800
000600
000100
000080
000080
000040
000040
000040
000040
000040
000040
800080
400100
300200
0FFC00
ENDCHAR
STARTCHAR 0034
ENCODING 52
SWIDTH 642 0
DWIDTH 25 0
BBX 22 27 2 0
BITMAP
000300
000200
000400
000800
001000
002000
002000
004000
008000
010000
020000
040000
040100
080100
100100
200100
400100
800100
FFFFFC
000100
000100
000100
000100
000100
000100
000100
000100
ENDCHAR
STARTCHAR 0035
ENCODING 53
SWIDTH 540 0
DWIDTH 21 0
BBX 19 27 1 0
BITMAP
1FFF80
100000
100000
100000
100000
200000
200000
200000
200000
200000
200000
200000
1FFC00
000300
000080
000040
000040
000040
000020
000020
000040
000040
000040
800080
600080
180300
07FC00
ENDCHAR
STARTCHAR 0036
ENCODING 54
SWIDTH 591 0
DWIDTH 23 0
BBX 20 27 2 0
BITMAP
01FF80
060000
080000
100000
200000
200000
400000
400000
400000
800000
800000
80F800
870700
880080
900040
A00020
A00020
C00020
400010
400010
400020
200020
200020
100040
0800C0
060100
01FE00
ENDCHAR
STARTCHAR 0037
ENCODING 55
SWIDTH 565 0
DWIDTH 22 0
BBX 19 27 1 0
BITMAP
FFFFE0
800020
800040
800040
800080
800080
000080
000100
000100
000200
000200
000400
000400
000800
000800
001000
001000
002000
002000
002000
004000
004000
008000
008000
010000
010000
020000
ENDCHAR
STARTCHAR 0038
ENCODING 56
SWIDTH 617 0
DWIDTH 24 0
BBX 20 27 2 0
BITMAP
07FE00
080180
300040
200040
400020
400020
400020
400020
400020
200040
100040
080180
07FE00
0E0700
1000C0
200020
400020
800010
800010
800010
800010
800010
400010
400020
200040
180180
03FE00
ENDCHAR
STARTCHAR 0039
ENCODING 57
SWIDTH 591 0
DWIDTH 23 0
BBX 20 27 1 0
BITMAP
07FC00
180200
200100
400080
400040
400040
800020
800020
800020
800060
400050
400090
200090
100310
0E0C10
015010
000010
000020
000020
000020
000040
000040
000080
000080
000300
000400
1FF800
ENDCHAR
STARTCHAR 003A
ENCODING 58
SWIDTH 180 0
DWIDTH 7 0
BBX 1 20 3 0
BITMAP
80
80
00
00
00
00
00
00
00
00
00
00
00
00
00
00
00
00
80
80
ENDCHAR
STARTCHAR 003B
ENCODING 59
SWIDTH 180 0
DWIDTH 7 0
BBX 3 25 2 -5
BITMAP
40
40
00
00
00
00
00
00
00
00
00
00
00
00
00
00
00
00
40
60
40
40
40
40
80
ENDCHAR
STARTCHAR 003C
ENCODING 60
SWIDTH 540 0
DWIDTH 21 0
BBX 16 14 3 7
BITMAP
0001
0006
0018
00E0
0300
1C00
6000
8000
7000
0C00
0300
00E0
0018
0007
ENDCHAR
STARTCHAR 003D
ENCODING 61
SWIDTH 540 0
DWIDTH 21 0
BBX 16 9 3 9
BITMAP
FFFF
0000
0000
0000
0000
0000
0000
0000
FFFF
ENDCHAR
STARTCHAR 003E
ENCODING 62
SWIDTH 540 0
DWIDTH 21 0
BBX 16 13 3 8
BITMAP
E000
1800
0700
00C0
0030
000E
0001
000E
0030
01C0
0600
1800
E000
ENDCHAR
STARTCHAR 003F
ENCODING 63
SWIDTH 540 0
DWIDTH 21 0
BBX 17 27 1 0
BITMAP
0FF800
300600
C00100
800080
000080
000080
000080
000080
000080
000100
000100
000200
000400
000800
001000
002000
004000
004000
004000
004000
000000
000000
000000
000000
000000
00C000
00C000
ENDCHAR
STARTCHAR 0040
ENCODING 64
SWIDTH 1028 0
DWIDTH 40 0
BBX 36 35 2 -8
BITMAP
000FFF0000
003000E000
00C0001000
0300000C00
0400000200
0800000100
0800000080
1003FC1080
200C021040
2010019040
4020009020
4040005020
4040003020
8080003010
8080001010
8080001010
8080001010
8080001010
8080001010
8080001010
8080003010
4040003020
4040005020
4020009020
2010019040
200C021040
1003FC0F00
1000000000
0800000000
0400000000
0200000000
0180000000
0060000000
001C078000
0002E80000
ENDCHAR
STARTCHAR 0041
ENCODING 65
SWIDTH 668 0
DWIDTH 26 0
BBX 26 27 0 0
BITMAP
00040000
000A0000
000A0000
00130000
00110000
00210000
00208000
00408000
00404000
00804000
00802000
01002000
01001000
01001000
02000800
02000800
04000400
04000400
0FFFFC00
08000200
10000200
10000100
20000100
20000080
40000080
40000040
80000040
ENDCHAR
STARTCHAR 0042
ENCODING 66
SWIDTH 745 0
DWIDTH 29 0
BBX 22 27 5 0
BITMAP
FFFF00
8000C0
800020
800020
800010
800010
800010
800010
800010
800010
800020
800040
800380
FFFF80
800060
800010
800008
800008
800008
800004
800004
800008
800008
800008
800010
800060
FFFF80
ENDCHAR
STARTCHAR 0043
ENCODING 67
SWIDTH 694 0
DWIDTH 27 0
BBX 23 27 2 0
BITMAP
007FE0
018018
020006
0C0000
180000
100000
200000
400000
400000
400000
800000
800000
800000
800000
800000
800000
800000
400000
400000
200000
200000
100000
080000
040000
020006
018018
007FC0
ENDCHAR
STARTCHAR 0044
ENCODING 68
SWIDTH 822 0
DWIDTH 32 0
BBX 25 27 5 0
BITMAP
FFFF0000
8000C000
80003000
80000800
80000400
80000400
80000200
80000100
80000100
80000100
80000080
80000080
80000080
80000080
80000080
80000080
80000080
80000100
80000100
80000200
80000200
80000400
80000800
80001000
80002000
80008000
FFFF0000
ENDCHAR
STARTCHAR 0045
ENCODING 69
SWIDTH 642 0
DWIDTH 25 0
BBX 18 27 5 0
BITMAP
FFFFC0
800000
800000
800000
800000
800000
800000
800000
800000
800000
800000
800000
800000
FFFF00
800000
800000
800000
800000
800000
800000
800000
800000
800000
800000
800000
800000
FFFFC0
ENDCHAR
STARTCHAR 0046
ENCODING 70
SWIDTH 617 0
DWIDTH 24 0
BBX 18 27 5 0
BITMAP
FFFFC0
800000
800000
800000
800000
800000
800000
800000
800000
800000
800000
800000
800000
800000
FFFE00
800000
800000
800000
800000
800000
800000
800000
800000
800000
800000
800000
800000
ENDCHAR
STARTCHAR 0047
ENCODING 71
SWIDTH 771 0
DWIDTH 30 0
BBX 24 27 2 0
BITMAP
007FF0
01800C
020002
0C0000
180000
100000
200000
400000
400000
400000
800000
800000
800000
800000
800001
800001
800001
400001
400001
200001
200001
100001
080001
040001
020006
018018
007FE0
ENDCHAR
STARTCHAR 0048
ENCODING 72
SWIDTH 797 0
DWIDTH 31 0
BBX 22 27 5 0
BITMAP
800004
800004
800004
800004
800004
800004
800004
800004
800004
800004
800004
800004
800004
FFFFFC
800004
800004
800004
800004
800004
800004
800004
800004
800004
800004
800004
800004
800004
ENDCHAR
STARTCHAR 0049
ENCODING 73
SWIDTH 282 0
DWIDTH 11 0
BBX 1 27 5 0
BITMAP
80
80
80
80
80
80
80
80
80
80
80
80
80
80
80
80
80
80
80
80
80
80
80
80
80
80
80
ENDCHAR
STARTCHAR 004A
ENCODING 74
SWIDTH 462 0
DWIDTH 18 0
BBX 14 27 0 0
BITMAP
1FFC
0004
0004
0004
0004
0004
0004
0004
0004
0004
0004
0004
0004
0004
0004
0004
0004
0004
0004
0004
0004
0008
0008
8008
4010
3030
0FC0
ENDCHAR
STARTCHAR 004B
ENCODING 75
SWIDTH 668 0
DWIDTH 26 0
BBX 21 27 5 0
BITMAP
800010
800020
800040
800080
800100
800200
800400
800800
801000
802000
804000
808000
818000
828000
844000
882000
901000
A00800
C00400
800200
800100
800100
800080
800040
800020
800010
800008
ENDCHAR
STARTCHAR 004C
ENCODING 76
SWIDTH 565 0
DWIDTH 22 0
BBX 17 27 5 0
BITMAP
800000
800000
800000
800000
800000
800000
800000
800000
800000
800000
800000
800000
800000
800000
800000
800000
800000
800000
800000
800000
800000
800000
800000
800000
800000
800000
FFFF80
ENDCHAR
STARTCHAR 004D
ENCODING 77
SWIDTH 951 0
DWIDTH 37 0
BBX 27 27 5 0
BITMAP
80000020
C0000060
C0000060
A00000A0
900000A0
90000120
88000220
88000220
84000420
84000420
82000820
81000820
81001020
80802020
80802020
80404020
80404020
80208020
80108020
80110020
800A0020
800A0020
80040020
80000020
80000020
80000020
80000020
ENDCHAR
STARTCHAR 004E
ENCODING 78
SWIDTH 797 0
DWIDTH 31 0
BBX 22 27 5 0
BITMAP
800004
C00004
A00004
900004
900004
880004
840004
820004
810004
810004
808004
804004
802004
802004
801004
800804
800404
800204
800204
800104
800084
800044
800044
800024
800014
80000C
800004
ENDCHAR
STARTCHAR 004F
ENCODING 79
SWIDTH 822 0
DWIDTH 32 0
BBX 28 27 2 0
BITMAP
007FE000
01801800
02000600
0C000100
10000080
10000040
20000040
40000020
40000020
40000010
80000010
80000010
80000010
80000010
80000010
80000010
80000010
40000010
40000020
20000020
20000040
10000040
08000080
04000100
02000600
01801800
007FE000
ENDCHAR
STARTCHAR 0050
ENCODING 80
SWIDTH 694 0
DWIDTH 27 0
BBX 20 27 5 0
BITMAP
FFFC00
800300
8000C0
800020
800020
800010
800010
800010
800010
800010
800010
800010
800020
800020
800040
800080
800700
FFE800
800000
800000
800000
800000
800000
800000
800000
800000
800000
ENDCHAR
STARTCHAR 0051
ENCODING 81
SWIDTH 822 0
DWIDTH 32 0
BBX 29 32 2 -5
BITMAP
007FE000
01801800
02000600
0C000100
18000080
10000040
20000040
40000020
40000020
40000010
80000010
80000010
80000010
80000010
80000010
80000010
80000010
40000010
40000020
20000020
20000040
10000040
08000080
04000100
02000600
01801800
007FE000
00010000
00008000
00006008
00001830
00000780
ENDCHAR
STARTCHAR 0052
ENCODING 82
SWIDTH 694 0
DWIDTH 27 0
BBX 20 27 5 0
BITMAP
FFFC00
800300
8000C0
800020
800020
800010
800010
800010
800010
800010
800010
800010
800020
800020
800040
800080
800700
FFEC00
800400
800200
800100
800080
800080
800040
800020
800020
800010
ENDCHAR
STARTCHAR 0053
ENCODING 83
SWIDTH 591 0
DWIDTH 23 0
BBX 19 27 2 0
BITMAP
07FE00
080180
300040
200000
400000
400000
400000
400000
400000
200000
200000
180000
070000
00F000
000E00
000180
000040
000020
000020
000020
000020
000020
000020
C00040
2000C0
180100
07FE00
ENDCHAR
STARTCHAR 0054
ENCODING 84
SWIDTH 540 0
DWIDTH 21 0
BBX 21 27 0 0
BITMAP
FFFFF8
002000
002000
002000
002000
002000
002000
002000
002000
002000
002000
002000
002000
002000
002000
002000
002000
002000
002000
002000
002000
002000
002000
002000
002000
002000
002000
ENDCHAR
STARTCHAR 0055
ENCODING 85
SWIDTH 771 0
DWIDTH 30 0
BBX 21 27 5 0
BITMAP
800008
800008
800008
800008
800008
800008
800008
800008
800008
800008
800008
800008
800008
800008
800008
800008
800008
800008
800008
800008
800010
400010
400020
200020
100040
0C0180
03FE00
ENDCHAR
STARTCHAR 0056
ENCODING 86
SWIDTH 668 0
DWIDTH 26 0
BBX 24 27 1 0
BITMAP
800001
800001
400002
400002
400002
200004
200004
100008
100008
080010
080010
040020
040020
040020
020040
020040
010080
010080
008100
008100
004200
004200
004400
002400
002400
001800
001800
ENDCHAR
STARTCHAR 0057
ENCODING 87
SWIDTH 1080 0
DWIDTH 42 0
BBX 38 27 2 0
BITMAP
8000300004
8000300004
4000500008
4000480008
4000480008
2000880010
2000840010
2000840010
1001040020
1001020020
1001020020
0802020040
0802010040
0802010040
0404008080
0404008080
0404008080
0208004100
0208004100
0210004100
0110002200
0110002200
0120002400
00A0001400
00A0001400
00C0001800
0040000800
ENDCHAR
STARTCHAR 0058
ENCODING 88
SWIDTH 617 0
DWIDTH 24 0
BBX 22 27 1 0
BITMAP
400008
200010
100020
180020
080040
040080
020100
020100
010200
008400
004800
004800
003000
003000
004800
004800
008400
010200
020100
020080
040080
080040
100020
100010
200010
400008
800004
ENDCHAR
STARTCHAR 0059
ENCODING 89
SWIDTH 591 0
DWIDTH 23 0
BBX 22 27 1 0
BITMAP
800004
800008
400008
200010
200020
100020
100040
080040
040080
040100
020100
010200
010200
008400
008800
004800
003000
002000
002000
002000
002000
002000
002000
002000
002000
002000
002000
ENDCHAR
STARTCHAR 005A
ENCODING 90
SWIDTH 617 0
DWIDTH 24 0
BBX 21 27 2 0
BITMAP
FFFFF8
000010
000020
000020
000040
000080
000100
000200
000200
000400
000800
001000
001000
002000
004000
008000
008000
010000
020000
040000
080000
080000
100000
200000
400000
400000
FFFFF8
ENDCHAR
STARTCHAR 005B
ENCODING 91
SWIDTH 282 0
DWIDTH 11 0
BBX 5 37 5 -8
BITMAP
F8
80
80
80
80
80
80
80
80
80
80
80
80
80
80
80
80
80
80
80
80
80
80
80
80
80
80
80
80
80
80
80
80
80
80
80
F8
ENDCHAR
STARTCHAR 005C
ENCODING 92
SWIDTH 282 0
DWIDTH 11 0
BBX 13 36 -1 -4
BITMAP
8000
8000
8000
4000
4000
4000
2000
2000
1000
1000
1000
0800
0800
0800
0400
0400
0400
0200
0200
0200
0100
0100
0100
0080
0080
0080
0040
0040
0020
0020
0020
0010
0010
0010
0008
0008
ENDCHAR
STARTCHAR 005D
ENCODING 93
SWIDTH 282 0
DWIDTH 11 0
BBX 5 37 1 -8
BITMAP
F8
08
08
08
08
08
08
08
08
08
08
08
08
08
08
08
08
08
08
08
08
08
08
08
08
08
08
08
08
08
08
08
08
08
08
08
F8
ENDCHAR
STARTCHAR 005E
ENCODING 94
SWIDTH 540 0
DWIDTH 21 0
BBX 14 16 4 6
BITMAP
0200
0300
0500
0480
0480
0880
0840
1040
1020
1020
2010
2010
4010
4008
8008
8004
ENDCHAR
STARTCHAR 005F
ENCODING 95
SWIDTH 488 0
DWIDTH 19 0
BBX 19 1 0 -1
BITMAP
FFFFE0
ENDCHAR
STARTCHAR 0060
ENCODING 96
SWIDTH 591 0
DWIDTH 23 0
BBX 6 4 7 24
BITMAP
80
60
10
0C
ENDCHAR
STARTCHAR 0061
ENCODING 97
SWIDTH 565 0
DWIDTH 22 0
BBX 15 20 3 0
BITMAP
0FF0
3008
C004
0004
0002
0002
0002
0002
0002
1FFE
6002
8002
8002
8002
8002
8002
8006
800A
6012
1FE2
ENDCHAR
STARTCHAR 0062
ENCODING 98
SWIDTH 668 0
DWIDTH 26 0
BBX 20 29 4 0
BITMAP
800000
800000
800000
800000
800000
800000
800000
800000
800000
83FC00
840300
980080
A00040
A00020
C00020
C00020
800010
800010
800010
800010
800010
C00010
C00020
C00020
A00020
900040
880080
840300
83FC00
ENDCHAR
STARTCHAR 0063
ENCODING 99
SWIDTH 540 0
DWIDTH 21 0
BBX 17 20 2 0
BITMAP
03FC00
0C0300
100080
200000
400000
400000
800000
800000
800000
800000
800000
800000
800000
800000
400000
400000
200080
100180
0C0200
03F800
ENDCHAR
STARTCHAR 0064
ENCODING 100
SWIDTH 668 0
DWIDTH 26 0
BBX 20 29 2 0
BITMAP
000010
000010
000010
000010
000010
000010
000010
000010
000010
03FC10
0C0210
100190
200090
400050
400030
800030
800010
800010
800010
800010
800010
800010
800030
400030
400050
200090
100190
0C0210
03FC10
ENDCHAR
STARTCHAR 0065
ENCODING 101
SWIDTH 565 0
DWIDTH 22 0
BBX 19 20 2 0
BITMAP
03F800
0C0600
100100
200080
400080
400040
800040
800020
800020
FFFFE0
800000
800000
800000
800000
400000
400000
200000
100080
0C0300
03FC00
ENDCHAR
STARTCHAR 0066
ENCODING 102
SWIDTH 308 0
DWIDTH 12 0
BBX 13 29 1 0
BITMAP
03E0
0418
0800
0800
0800
0800
0800
0800
0800
FFE0
0800
0800
0800
0800
0800
0800
0800
0800
0800
0800
0800
0800
0800
0800
0800
0800
0800
0800
0800
ENDCHAR
STARTCHAR 0067
ENCODING 103
SWIDTH 668 0
DWIDTH 26 0
BBX 20 28 2 -8
BITMAP
03FC10
0C0310
100090
200050
400050
400030
800010
800010
800010
800010
800010
800010
800010
400030
400030
200050
100090
080110
079E10
006010
000010
000010
000020
000020
200040
180080
060300
017C00
ENDCHAR
STARTCHAR 0068
ENCODING 104
SWIDTH 642 0
DWIDTH 25 0
BBX 18 29 4 0
BITMAP
800000
800000
800000
800000
800000
800000
800000
800000
800000
83F800
8C0600
900100
A00080
C00080
C00080
C00040
800040
800040
800040
800040
800040
800040
800040
800040
800040
800040
800040
800040
800040
ENDCHAR
STARTCHAR 0069
ENCODING 105
SWIDTH 231 0
DWIDTH 9 0
BBX 2 28 4 0
BITMAP
80
C0
00
00
00
00
00
00
80
80
80
80
80
80
80
80
80
80
80
80
80
80
80
80
80
80
80
80
ENDCHAR
STARTCHAR 006A
ENCODING 106
SWIDTH 231 0
DWIDTH 9 0
BBX 9 36 -3 -8
BITMAP
0080
0180
0000
0000
0000
0000
0000
0000
0100
0100
0100
0100
0100
0100
0100
0100
0100
0100
0100
0100
0100
0100
0100
0100
0100
0100
0100
0100
0100
0100
0100
0100
0100
0100
8200
5C00
ENDCHAR
STARTCHAR 006B
ENCODING 107
SWIDTH 565 0
DWIDTH 22 0
BBX 17 29 4 0
BITMAP
800000
800000
800000
800000
800000
800000
800000
800000
800000
800100
800200
800400
801800
803000
804000
808000
810000
830000
848000
884000
902000
A03000
C01000
800800
800400
800200
800200
800100
800080
ENDCHAR
STARTCHAR 006C
ENCODING 108
SWIDTH 231 0
DWIDTH 9 0
BBX 1 29 4 0
BITMAP
80
80
80
80
80
80
80
80
80
80
80
80
80
80
80
80
80
80
80
80
80
80
80
80
80
80
80
80
80
ENDCHAR
STARTCHAR 006D
ENCODING 109
SWIDTH 1054 0
DWIDTH 41 0
BBX 33 20 4 0
BITMAP
83F803F800
8C060C0600
9001100100
A001200100
C000C00080
C000C00080
C000C00080
8000800080
8000800080
8000800080
8000800080
8000800080
8000800080
8000800080
8000800080
8000800080
8000800080
8000800080
8000800080
8000800080
ENDCHAR
STARTCHAR 006E
ENCODING 110
SWIDTH 642 0
DWIDTH 25 0
BBX 18 20 4 0
BITMAP
83F800
8C0600
900100
A00080
C00080
C00080
C00040
800040
800040
800040
800040
800040
800040
800040
800040
800040
800040
800040
800040
800040
ENDCHAR
STARTCHAR 006F
ENCODING 111
SWIDTH 591 0
DWIDTH 23 0
BBX 20 20 2 0
BITMAP
03FC00
0C0300
100080
200040
400040
400020
800020
800020
800010
800010
800010
800010
800020
800020
400020
400040
200080
100180
0C0200
03FC00
ENDCHAR
STARTCHAR 0070
ENCODING 112
SWIDTH 668 0
DWIDTH 26 0
BBX 20 28 4 -8
BITMAP
83FC00
840300
900080
B00040
A00020
C00020
C00020
C00010
800010
800010
800010
800010
C00010
C00020
C00020
A00020
900040
880080
840300
83FC00
800000
800000
800000
800000
800000
800000
800000
800000
ENDCHAR
STARTCHAR 0071
ENCODING 113
SWIDTH 668 0
DWIDTH 26 0
BBX 20 28 2 -8
BITMAP
03FC10
0C0210
100190
200090
400050
400030
800030
800010
800010
800010
800010
800010
800010
800030
400030
400050
200090
100190
0C0210
03FC10
000010
000010
000010
000010
000010
000010
000010
000010
ENDCHAR
STARTCHAR 0072
ENCODING 114
SWIDTH 360 0
DWIDTH 14 0
BBX 9 20 4 0
BITMAP
8780
8800
9000
A000
C000
C000
C000
8000
8000
8000
8000
8000
8000
8000
8000
8000
8000
8000
8000
8000
ENDCHAR
STARTCHAR 0073
ENCODING 115
SWIDTH 462 0
DWIDTH 18 0
BBX 16 20 1 0
BITMAP
0FF0
100C
2000
4000
4000
4000
4000
2000
1000
0F00
00F0
000C
0002
0002
0001
0001
0002
C002
3004
0FF8
ENDCHAR
STARTCHAR 0074
ENCODING 116
SWIDTH 385 0
DWIDTH 15 0
BBX 12 25 1 0
BITMAP
0800
0800
0800
0800
0800
FFE0
0800
0800
0800
0800
0800
0800
0800
0800
0800
0800
0800
0800
0800
0800
0800
0800
0800
0400
03F0
ENDCHAR
STARTCHAR 0075
ENCODING 117
SWIDTH 642 0
DWIDTH 25 0
BBX 17 20 4 0
BITMAP
800080
800080
800080
800080
800080
800080
800080
800080
800080
800080
800080
800080
800080
800080
800080
400180
400180
200280
100C80
0FF080
ENDCHAR
STARTCHAR 0076
ENCODING 118
SWIDTH 488 0
DWIDTH 19 0
BBX 19 20 0 0
BITMAP
800020
400020
400040
200040
200080
100080
100100
080100
080100
040200
040200
040400
020400
020800
010800
011000
009000
00A000
006000
006000
ENDCHAR
STARTCHAR 0077
ENCODING 119
SWIDTH 822 0
DWIDTH 32 0
BBX 32 20 0 0
BITMAP
80008001
40018001
40014002
20024002
20024004
20022004
10042004
10041008
08081008
08081010
08080810
04100810
04100420
04200420
02200420
02200240
01400240
01400280
01800180
00800180
ENDCHAR
STARTCHAR 0078
ENCODING 120
SWIDTH 488 0
DWIDTH 19 0
BBX 17 20 1 0
BITMAP
400100
200200
100200
100400
080800
041000
021000
022000
014000
008000
014000
012000
022000
041000
080800
080400
100200
200200
400100
800080
ENDCHAR
STARTCHAR 0079
ENCODING 121
SWIDTH 488 0
DWIDTH 19 0
BBX 20 28 -1 -8
BITMAP
400010
200010
200020
100020
100040
080040
080040
040080
040080
020100
020100
020200
010200
010400
008400
008800
004800
005000
003000
003000
002000
002000
004000
004000
008000
818000
C30000
380000
ENDCHAR
STARTCHAR 007A
ENCODING 122
SWIDTH 488 0
DWIDTH 19 0
BBX 15 20 2 0
BITMAP
FFFE
0004
0004
0008
0010
0020
0020
0040
0080
0100
0200
0200
0400
0800
1000
1000
2000
4000
8000
FFFE
ENDCHAR
STARTCHAR 007B
ENCODING 123
SWIDTH 282 0
DWIDTH 11 0
BBX 8 37 3 -8
BITMAP
07
18
10
20
20
20
20
20
20
20
20
20
20
20
20
20
20
20
E0
20
20
20
20
20
20
20
20
20
20
20
20
20
20
20
10
08
07
ENDCHAR
STARTCHAR 007C
ENCODING 124
SWIDTH 282 0
DWIDTH 11 0
BBX 1 37 5 -8
BITMAP
80
80
80
80
80
80
80
80
80
80
80
80
80
80
80
80
80
80
80
80
80
80
80
80
80
80
80
80
80
80
80
80
80
80
80
80
80
ENDCHAR
STARTCHAR 007D
ENCODING 125
SWIDTH 282 0
DWIDTH 11 0
BBX 8 37 1 -8
BITMAP
E0
10
08
08
08
08
08
08
08
08
08
08
08
08
08
08
08
04
07
08
08
08
08
08
08
08
08
08
08
08
08
08
08
08
08
10
A0
ENDCHAR
STARTCHAR 007E
ENCODING 126
SWIDTH 540 0
DWIDTH 21 0
BBX 16 5 3 11
BITMAP
3C01
4301
8181
80C2
003C
ENDCHAR
STARTCHAR 00A0
ENCODING 160
SWIDTH 231 0
DWIDTH 9 0
BBX 0 0 0 0
BITMAP
ENDCHAR
STARTCHAR 00A1
ENCODING 161
SWIDTH 231 0
DWIDTH 9 0
BBX 2 26 4 -6
BITMAP
C0
80
00
00
00
00
00
80
80
80
80
80
80
80
80
80
80
80
80
80
80
80
80
80
80
80
ENDCHAR
STARTCHAR 00A2
ENCODING 162
SWIDTH 540 0
DWIDTH 21 0
BBX 17 30 2 -5
BITMAP
004000
004000
004000
004000
004000
03FC00
0C4300
104080
204000
404000
404000
804000
804000
804000
804000
804000
804000
804000
804000
404000
404000
204080
104180
0C4200
03F800
004000
004000
004000
004000
004000
ENDCHAR
STARTCHAR 00A3
ENCODING 163
SWIDTH 617 0
DWIDTH 24 0
BBX 22 27 1 0
BITMAP
003FF0
00C00C
010000
020000
040000
040000
040000
040000
040000
040000
040000
040000
040000
FFFF80
040000
040000
040000
040000
040000
040000
040000
040000
040000
040000
040000
040000
FFFFFC
ENDCHAR
STARTCHAR 00A4
ENCODING 164
SWIDTH 694 0
DWIDTH 27 0
BBX 23 23 2 0
BITMAP
800002
407E04
238188
140070
080010
100018
200008
400004
400004
400004
400002
400002
400002
400004
400004
400004
200008
200008
100010
1C0030
2200C8
41FF04
800002
ENDCHAR
STARTCHAR 00A5
ENCODING 165
SWIDTH 668 0
DWIDTH 26 0
BBX 24 27 1 0
BITMAP
800001
400002
400002
200004
100008
080010
040020
040020
020040
010080
008100
008100
004200
002400
001800
3FFFFC
001000
001000
001000
001000
3FFFFC
001000
001000
001000
001000
001000
001000
ENDCHAR
STARTCHAR 00A6
ENCODING 166
SWIDTH 282 0
DWIDTH 11 0
BBX 1 37 5 -8
BITMAP
80
80
80
80
80
80
80
80
80
80
80
80
80
80
00
00
00
00
00
00
00
00
00
80
80
80
80
80
80
80
80
80
80
80
80
80
80
ENDCHAR
STARTCHAR 00A7
ENCODING 167
SWIDTH 462 0
DWIDTH 18 0
BBX 16 31 1 -4
BITMAP
07FC
1803
2000
2000
2000
2000
2000
2000
1000
0C00
13C0
2038
4004
4002
4001
4001
4001
2001
1002
0E04
01D8
0038
0004
0004
0002
0002
0002
0004
C004
3008
0FF0
ENDCHAR
STARTCHAR 00A8
ENCODING 168
SWIDTH 591 0
DWIDTH 23 0
BBX 8 2 8 25
BITMAP
83
83
ENDCHAR
STARTCHAR 00A9
ENCODING 169
SWIDTH 822 0
DWIDTH 32 0
BBX 28 27 2 0
BITMAP
007FE000
01801800
02000600
08000100
10000080
100F8080
20306040
40401020
40800020
41000020
81000020
82000010
82000010
82000010
82000010
82000010
81000020
41000020
40801020
20403040
2030C040
100E0080
08000100
04000200
02000400
01801800
007FE000
ENDCHAR
STARTCHAR 00AA
ENCODING 170
SWIDTH 385 0
DWIDTH 15 0
BBX 10 12 2 17
BITMAP
1F00
6080
0040
0040
0040
0040
7FC0
8040
8040
8040
80C0
7F40
ENDCHAR
STARTCHAR 00AB
ENCODING 171
SWIDTH 411 0
DWIDTH 16 0
BBX 11 14 3 3
BITMAP
0820
1040
1040
2080
4100
8200
8400
8400
8200
4100
2080
1040
0840
0820
ENDCHAR
STARTCHAR 00AC
ENCODING 172
SWIDTH 540 0
DWIDTH 21 0
BBX 16 8 3 6
BITMAP
FFFF
0001
0001
0001
0001
0001
0001
0001
ENDCHAR
STARTCHAR 00AD
ENCODING 173
SWIDTH 360 0
DWIDTH 14 0
BBX 9 1 3 10
BITMAP
FF80
ENDCHAR
STARTCHAR 00AE
ENCODING 174
SWIDTH 822 0
DWIDTH 32 0
BBX 28 27 2 0
BITMAP
007FE000
01801800
02000600
08000100
10000080
107F0080
20406040
40401020
40401020
40400820
80400820
80400810
80401010
80401010
80406010
807F8010
80404020
40404020
40402020
20401040
20401040
10000080
08000100
04000200
02000400
01801800
007FE000
ENDCHAR
STARTCHAR 00AF
ENCODING 175
SWIDTH 591 0
DWIDTH 23 0
BBX 11 1 6 25
BITMAP
FFE0
ENDCHAR
STARTCHAR 00B0
ENCODING 176
SWIDTH 411 0
DWIDTH 16 0
BBX 12 11 2 16
BITMAP
1F80
2040
4020
8010
8010
8010
8010
8010
4020
2040
1F80
ENDCHAR
STARTCHAR 00B1
ENCODING 177
SWIDTH 540 0
DWIDTH 21 0
BBX 16 21 3 0
BITMAP
0100
0100
0100
0100
0100
0100
0100
FFFF
0100
0100
0100
0100
0100
0100
0100
0000
0000
0000
0000
0000
FFFF
ENDCHAR
STARTCHAR 00B2
ENCODING 178
SWIDTH 411 0
DWIDTH 16 0
BBX 12 16 2 13
BITMAP
3F80
C040
0020
0020
0020
0020
0020
0040
0080
0100
0200
0400
0800
1000
6000
FFF0
ENDCHAR
STARTCHAR 00B3
ENCODING 179
SWIDTH 411 0
DWIDTH 16 0
BBX 12 16 2 13
BITMAP
FFE0
0020
0040
0080
0100
0200
0400
0700
00C0
0020
0010
0010
0010
0010
8020
7FC0
ENDCHAR
STARTCHAR 00B4
ENCODING 180
SWIDTH 591 0
DWIDTH 23 0
BBX 5 4 11 24
BITMAP
08
10
60
80
ENDCHAR
STARTCHAR 00B5
ENCODING 181
SWIDTH 668 0
DWIDTH 26 0
BBX 18 28 4 -8
BITMAP
800040
800040
800040
800040
800040
800040
800040
800040
800040
800040
800040
800040
800040
8000C0
C000C0
C00140
C00140
A00240
980440
87F840
800000
800000
800000
800000
800000
800000
800000
800000
ENDCHAR
STARTCHAR 00B6
ENCODING 182
SWIDTH 591 0
DWIDTH 23 0
BBX 17 33 1 -4
BITMAP
07FF80
1F8080
7F8080
7F8080
FF8080
FF8080
FF8080
FF8080
FF8080
7F8080
3F8080
1F8080
078080
008080
008080
008080
008080
008080
008080
008080
008080
008080
008080
008080
008080
008080
008080
008080
008080
008080
008080
008080
008080
ENDCHAR
STARTCHAR 00B7
ENCODING 183
SWIDTH 205 0
DWIDTH 8 0
BBX 2 2 3 9
BITMAP
C0
40
ENDCHAR
STARTCHAR 00B8
ENCODING 184
SWIDTH 591 0
DWIDTH 23 0
BBX 7 8 8 -8
BITMAP
10
10
18
04
04
02
04
FC
ENDCHAR
STARTCHAR 00B9
ENCODING 185
SWIDTH 411 0
DWIDTH 16 0
BBX 10 16 4 13
BITMAP
F800
0800
0800
0800
0800
0800
0800
0800
0800
0800
0800
0800
0800
0800
0800
FFC0
ENDCHAR
STARTCHAR 00BA
ENCODING 186
SWIDTH 385 0
DWIDTH 15 0
BBX 12 12 2 17
BITMAP
1F00
20C0
4020
8010
8010
8010
8010
8010
8010
8020
6040
1F80
ENDCHAR
STARTCHAR 00BB
ENCODING 187
SWIDTH 411 0
DWIDTH 16 0
BBX 12 14 2 3
BITMAP
8200
4100
2080
1080
1040
0820
0410
0410
0820
1040
1080
2080
4100
8200
ENDCHAR
STARTCHAR 00BC
ENCODING 188
SWIDTH 1002 0
DWIDTH 39 0
BBX 35 27 3 0
BITMAP
7C00004000
0400008000
0400008000
0400010000
0400020000
0400020000
0400040000
0400080000
0400080000
0400100000
0400200000
0400200400
0400400800
0400800800
0400801000
FFE1002000
0002004000
0004004000
0004008200
0008010200
0010020200
0010040200
002003FFE0
0040000200
0040000200
0080000200
0100000200
ENDCHAR
STARTCHAR 00BD
ENCODING 189
SWIDTH 1002 0
DWIDTH 39 0
BBX 34 27 3 0
BITMAP
7C00004000
0400008000
0400008000
0400010000
0400020000
0400020000
0400040000
0400080000
0400080000
0400100000
0400200000
040020FE00
0400430100
0400800080
0400800080
FFE1000080
0002000080
0004000080
0004000100
0008000200
0010000400
0010001800
0020002000
0040004000
0040008000
0080010000
010003FFC0
ENDCHAR
STARTCHAR 00BE
ENCODING 190
SWIDTH 1002 0
DWIDTH 39 0
BBX 36 27 2 0
BITMAP
FFE0002000
0040004000
0080004000
0080008000
0100010000
0200010000
0400020000
0780040000
0060040000
0010080000
0010100000
0010100200
0010200400
0010400400
C020400800
1FC0801000
0001002000
0002002000
0002004100
0004008100
0008010100
0008020100
001001FFF0
0020000100
0020000100
0040000100
0080000100
ENDCHAR
STARTCHAR 00BF
ENCODING 191
SWIDTH 540 0
DWIDTH 21 0
BBX 18 26 3 -6
BITMAP
018000
008000
000000
000000
000000
000000
000000
008000
008000
010000
010000
020000
040000
080000
100000
200000
400000
400000
800000
800000
800000
400000
400040
200080
100300
0FFC00
ENDCHAR
STARTCHAR 00C0
ENCODING 192
SWIDTH 668 0
DWIDTH 26 0
BBX 26 34 0 0
BITMAP
00C00000
00200000
00180000
00040000
00020000
00000000
00000000
00040000
000A0000
000A0000
00130000
00110000
00210000
00208000
00408000
00404000
00804000
00802000
01002000
01001000
01001000
02000800
02000800
04000400
04000400
0FFFFC00
08000200
10000200
10000100
20000100
20000080
40000080
40000040
80000040
ENDCHAR
STARTCHAR 00C1
ENCODING 193
SWIDTH 668 0
DWIDTH 26 0
BBX 26 34 0 0
BITMAP
00004000
00008000
00030000
00040000
00080000
00000000
00000000
00040000
000A0000
000A0000
00130000
00110000
00210000
00208000
00408000
00404000
00804000
00802000
01002000
01001000
01001000
02000800
02000800
04000400
04000400
0FFFFC00
08000200
10000200
10000100
20000100
20000080
40000080
40000040
80000040
ENDCHAR
STARTCHAR 00C2
ENCODING 194
SWIDTH 668 0
DWIDTH 26 0
BBX 26 34 0 0
BITMAP
00040000
001A0000
00310000
0040C000
00802000
00000000
00000000
00040000
000A0000
000A0000
00130000
00110000
00210000
00208000
00408000
00404000
00804000
00802000
01002000
01001000
01001000
02000800
02000800
04000400
04000400
0FFFFC00
08000200
10000200
10000100
20000100
20000080
40000080
40000040
80000040
ENDCHAR
STARTCHAR 00C3
ENCODING 195
SWIDTH 668 0
DWIDTH 26 0
BBX 26 33 0 0
BITMAP
00782000
00844000
0083C000
00000000
00000000
00000000
00040000
000A0000
000A0000
00130000
00110000
00210000
00208000
00408000
00404000
00804000
00802000
01002000
01001000
01001000
02000800
02000800
04000400
04000400
0FFFFC00
08000200
10000200
10000100
20000100
20000080
40000080
40000040
80000040
ENDCHAR
STARTCHAR 00C4
ENCODING 196
SWIDTH 668 0
DWIDTH 26 0
BBX 26 33 0 0
BITMAP
00208000
0060C000
00000000
00000000
00000000
00000000
00040000
000A0000
000A0000
00130000
00110000
00210000
00208000
00408000
00404000
00804000
00802000
01002000
01001000
01001000
02000800
02000800
04000400
04000400
0FFFFC00
08000200
10000200
10000100
20000100
20000080
40000080
40000040
80000040
ENDCHAR
STARTCHAR 00C5
ENCODING 197
SWIDTH 668 0
DWIDTH 26 0
BBX 26 37 0 0
BITMAP
001F0000
00208000
00208000
00208000
00208000
00110000
00060000
00000000
00000000
00000000
00040000
000A0000
000A0000
00130000
00110000
00210000
00208000
00408000
00404000
00804000
00802000
01002000
01001000
01001000
02000800
02000800
04000400
04000400
0FFFFC00
08000200
10000200
10000100
20000100
20000080
40000080
40000040
80000040
ENDCHAR
STARTCHAR 00C6
ENCODING 198
SWIDTH 1002 0
DWIDTH 39 0
BBX 35 27 1 0
BITMAP
0000FFFFE0
0001400000
0001400000
0002400000
0002400000
0004400000
0008400000
0008400000
0010400000
0020400000
0020400000
0040400000
0080400000
00807FFF80
0100400000
0100400000
0200400000
0400400000
07FFC00000
0800400000
1000400000
1000400000
2000400000
4000400000
4000400000
8000400000
80007FFFE0
ENDCHAR
STARTCHAR 00C7
ENCODING 199
SWIDTH 694 0
DWIDTH 27 0
BBX 23 35 2 -8
BITMAP
007FE0
018018
020006
0C0000
180000
100000
200000
400000
400000
400000
800000
800000
800000
800000
800000
800000
800000
400000
400000
200000
200000
100000
080000
040000
020006
018018
007FC0
000400
000400
000600
000100
000080
000080
000080
001F00
ENDCHAR
STARTCHAR 00C8
ENCODING 200
SWIDTH 642 0
DWIDTH 25 0
BBX 18 34 5 0
BITMAP
0C0000
060000
010000
008000
006000
000000
000000
FFFFC0
800000
800000
800000
800000
800000
800000
800000
800000
800000
800000
800000
800000
FFFF00
800000
800000
800000
800000
800000
800000
800000
800000
800000
800000
800000
800000
FFFFC0
ENDCHAR
STARTCHAR 00C9
ENCODING 201
SWIDTH 642 0
DWIDTH 25 0
BBX 18 34 5 0
BITMAP
000C00
001800
002000
004000
018000
000000
000000
FFFFC0
800000
800000
800000
800000
800000
800000
800000
800000
800000
800000
800000
800000
FFFF00
800000
800000
800000
800000
800000
800000
800000
800000
800000
800000
800000
800000
FFFFC0
ENDCHAR
STARTCHAR 00CA
ENCODING 202
SWIDTH 642 0
DWIDTH 25 0
BBX 18 34 5 0
BITMAP
00C000
012000
021000
040800
080400
000000
000000
FFFFC0
800000
800000
800000
800000
800000
800000
800000
800000
800000
800000
800000
800000
FFFF00
800000
800000
800000
800000
800000
800000
800000
800000
800000
800000
800000
800000
FFFFC0
ENDCHAR
STARTCHAR 00CB
ENCODING 203
SWIDTH 642 0
DWIDTH 25 0
BBX 18 33 5 0
BITMAP
041800
061800
000000
000000
000000
000000
FFFFC0
800000
800000
800000
800000
800000
800000
800000
800000
800000
800000
800000
800000
FFFF00
800000
800000
800000
800000
800000
800000
800000
800000
800000
800000
800000
800000
FFFFC0
ENDCHAR
STARTCHAR 00CC
ENCODING 204
SWIDTH 282 0
DWIDTH 11 0
BBX 6 34 1 0
BITMAP
80
40
30
08
04
00
00
08
08
08
08
08
08
08
08
08
08
08
08
08
08
08
08
08
08
08
08
08
08
08
08
08
08
08
ENDCHAR
STARTCHAR 00CD
ENCODING 205
SWIDTH 282 0
DWIDTH 11 0
BBX 7 34 4 0
BITMAP
06
08
30
40
80
00
00
40
40
40
40
40
40
40
40
40
40
40
40
40
40
40
40
40
40
40
40
40
40
40
40
40
40
40
ENDCHAR
STARTCHAR 00CE
ENCODING 206
SWIDTH 282 0
DWIDTH 11 0
BBX 11 34 0 0
BITMAP
0400
0B00
3180
6040
8020
0000
0000
0400
0400
0400
0400
0400
0400
0400
0400
0400
0400
0400
0400
0400
0400
0400
0400
0400
0400
0400
0400
0400
0400
0400
0400
0400
0400
0400
ENDCHAR
STARTCHAR 00CF
ENCODING 207
SWIDTH 282 0
DWIDTH 11 0
BBX 9 33 1 0
BITMAP
4100
C180
0000
0000
0000
0000
0800
0800
0800
0800
0800
0800
0800
0800
0800
0800
0800
0800
0800
0800
0800
0800
0800
0800
0800
0800
0800
0800
0800
0800
0800
0800
0800
ENDCHAR
STARTCHAR 00D0
ENCODING 208
SWIDTH 822 0
DWIDTH 32 0
BBX 29 27 1 0
BITMAP
0FFFF000
08000C00
08000300
08000080
08000040
08000040
08000020
08000010
08000010
08000010
08000008
08000008
08000008
FFFC0008
08000008
08000008
08000008
08000010
08000010
08000020
08000020
08000040
08000080
08000100
08000200
08000800
0FFFF000
ENDCHAR
STARTCHAR 00D1
ENCODING 209
SWIDTH 797 0
DWIDTH 31 0
BBX 22 33 5 0
BITMAP
03C100
023100
040E00
000000
000000
000000
800004
C00004
A00004
900004
900004
880004
840004
820004
810004
810004
808004
804004
802004
802004
801004
800804
800404
800204
800204
800104
800084
800044
800044
800024
800014
80000C
800004
ENDCHAR
STARTCHAR 00D2
ENCODING 210
SWIDTH 822 0
DWIDTH 32 0
BBX 28 34 2 0
BITMAP
00600000
00100000
00080000
00060000
00010000
00000000
00000000
007FE000
01801800
02000600
0C000100
10000080
10000040
20000040
40000020
40000020
40000010
80000010
80000010
80000010
80000010
80000010
80000010
80000010
40000010
40000020
20000020
20000040
10000040
08000080
04000100
02000600
01801800
007FE000
ENDCHAR
STARTCHAR 00D3
ENCODING 211
SWIDTH 822 0
DWIDTH 32 0
BBX 28 34 2 0
BITMAP
00002000
0000C000
00018000
00020000
00040000
00000000
00000000
007FE000
01801800
02000600
0C000100
10000080
10000040
20000040
40000020
40000020
40000010
80000010
80000010
80000010
80000010
80000010
80000010
80000010
40000010
40000020
20000020
20000040
10000040
08000080
04000100
02000600
01801800
007FE000
ENDCHAR
STARTCHAR 00D4
ENCODING 212
SWIDTH 822 0
DWIDTH 32 0
BBX 28 34 2 0
BITMAP
00060000
000D0000
00108000
00204000
00403000
00000000
00000000
007FE000
01801800
02000600
0C000100
10000080
10000040
20000040
40000020
40000020
40000010
80000010
80000010
80000010
80000010
80000010
80000010
80000010
40000010
40000020
20000020
20000040
10000040
08000080
04000100
02000600
01801800
007FE000
ENDCHAR
STARTCHAR 00D5
ENCODING 213
SWIDTH 822 0
DWIDTH 32 0
BBX 28 33 2 0
BITMAP
003C2000
00422000
0041C000
00000000
00000000
00000000
007FE000
01801800
02000600
0C000100
10000080
10000040
20000040
40000020
40000020
40000010
80000010
80000010
80000010
80000010
80000010
80000010
80000010
40000010
40000020
20000020
20000040
10000040
08000080
04000100
02000600
01801800
007FE000
ENDCHAR
STARTCHAR 00D6
ENCODING 214
SWIDTH 822 0
DWIDTH 32 0
BBX 28 33 2 0
BITMAP
00304000
0030C000
00000000
00000000
00000000
00000000
007FE000
01801800
02000600
0C000100
10000080
10000040
20000040
40000020
40000020
40000010
80000010
80000010
80000010
80000010
80000010
80000010
80000010
40000010
40000020
20000020
20000040
10000040
08000080
04000100
02000600
01801800
007FE000
ENDCHAR
STARTCHAR 00D7
ENCODING 215
SWIDTH 540 0
DWIDTH 21 0
BBX 12 12 5 8
BITMAP
8000
C020
6040
3080
1900
0E00
0600
0B00
1180
20C0
4060
8030
ENDCHAR
STARTCHAR 00D8
ENCODING 216
SWIDTH 822 0
DWIDTH 32 0
BBX 28 33 2 -3
BITMAP
00000040
00000040
00000080
007FE100
01801A00
02000600
0C000500
10000880
10001040
20001040
40002020
40004020
40004010
80008010
80010010
80020010
80020010
80040010
80080010
80100010
40100010
40200020
20400020
20400040
10800040
09000080
06000100
02000600
05801800
087FE000
10000000
10000000
20000000
ENDCHAR
STARTCHAR 00D9
ENCODING 217
SWIDTH 771 0
DWIDTH 30 0
BBX 21 34 5 0
BITMAP
060000
010000
00C000
002000
001000
000000
000000
800008
800008
800008
800008
800008
800008
800008
800008
800008
800008
800008
800008
800008
800008
800008
800008
800008
800008
800008
800008
800010
400010
400020
200020
100040
0C0180
03FE00
ENDCHAR
STARTCHAR 00DA
ENCODING 218
SWIDTH 771 0
DWIDTH 30 0
BBX 21 34 5 0
BITMAP
000200
000400
001800
002000
004000
000000
000000
800008
800008
800008
800008
800008
800008
800008
800008
800008
800008
800008
800008
800008
800008
800008
800008
800008
800008
800008
800008
800010
400010
400020
200020
100040
0C0180
03FE00
ENDCHAR
STARTCHAR 00DB
ENCODING 219
SWIDTH 771 0
DWIDTH 30 0
BBX 21 34 5 0
BITMAP
002000
00D000
018C00
020600
040100
000000
000000
800008
800008
800008
800008
800008
800008
800008
800008
800008
800008
800008
800008
800008
800008
800008
800008
800008
800008
800008
800008
800010
400010
400020
200020
100040
0C0180
03FE00
ENDCHAR
STARTCHAR 00DC
ENCODING 220
SWIDTH 771 0
DWIDTH 30 0
BBX 21 33 5 0
BITMAP
010400
030600
000000
000000
000000
000000
800008
800008
800008
800008
800008
800008
800008
800008
800008
800008
800008
800008
800008
800008
800008
800008
800008
800008
800008
800008
800010
400010
400020
200020
100040
0C0180
03FE00
ENDCHAR
STARTCHAR 00DD
ENCODING 221
SWIDTH 591 0
DWIDTH 23 0
BBX 22 34 1 0
BITMAP
000300
000400
000800
003000
004000
000000
000000
800004
800008
400008
200010
200020
100020
100040
080040
040080
040100
020100
010200
010200
008400
008800
004800
003000
002000
002000
002000
002000
002000
002000
002000
002000
002000
002000
ENDCHAR
STARTCHAR 00DE
ENCODING 222
SWIDTH 694 0
DWIDTH 27 0
BBX 20 27 5 0
BITMAP
800000
800000
800000
800000
FFFE00
800180
800040
800020
800020
800010
800010
800010
800010
800010
800010
800010
800020
800020
800040
800080
800700
FFD800
800000
800000
800000
800000
800000
ENDCHAR
STARTCHAR 00DF
ENCODING 223
SWIDTH 642 0
DWIDTH 25 0
BBX 19 29 4 0
BITMAP
03F000
0C0C00
100200
200100
400080
400080
400080
800080
800080
800080
800100
800200
800400
801800
80FC00
800300
800080
800040
800020
800020
800020
800020
800020
800020
800020
800040
800080
800100
83FE00
ENDCHAR
STARTCHAR 00E0
ENCODING 224
SWIDTH 565 0
DWIDTH 22 0
BBX 15 28 3 0
BITMAP
1000
0C00
0200
0100
0080
0000
0000
0000
0FF0
3008
C004
0004
0002
0002
0002
0002
0002
1FFE
6002
8002
8002
8002
8002
8002
8006
800A
6012
1FE2
ENDCHAR
STARTCHAR 00E1
ENCODING 225
SWIDTH 565 0
DWIDTH 22 0
BBX 15 28 3 0
BITMAP
0010
0020
00C0
0100
0000
0000
0000
0000
0FF0
3008
C004
0004
0002
0002
0002
0002
0002
1FFE
6002
8002
8002
8002
8002
8002
8006
800A
6012
1FE2
ENDCHAR
STARTCHAR 00E2
ENCODING 226
SWIDTH 565 0
DWIDTH 22 0
BBX 15 28 3 0
BITMAP
0180
06C0
0C20
1010
0000
0000
0000
0000
0FF0
3008
C004
0004
0002
0002
0002
0002
0002
1FFE
6002
8002
8002
8002
8002
8002
8006
800A
6012
1FE2
ENDCHAR
STARTCHAR 00E3
ENCODING 227
SWIDTH 565 0
DWIDTH 22 0
BBX 15 27 3 1
BITMAP
1E08
2190
2070
0000
0000
0000
0000
0FF0
3008
C004
0004
0002
0002
0002
0002
0002
1FFE
6002
8002
8002
8002
8002
8002
8006
800A
6012
1FE2
ENDCHAR
STARTCHAR 00E4
ENCODING 228
SWIDTH 565 0
DWIDTH 22 0
BBX 15 27 3 0
BITMAP
0830
0830
0000
0000
0000
0000
0000
0FF0
3008
C004
0004
0002
0002
0002
0002
0002
1FFE
6002
8002
8002
8002
8002
8002
8006
800A
6012
1FE2
ENDCHAR
STARTCHAR 00E5
ENCODING 229
SWIDTH 565 0
DWIDTH 22 0
BBX 15 30 3 0
BITMAP
07C0
0820
0820
0820
0820
0440
0180
0000
0000
0000
0FF0
3008
C004
0004
0002
0002
0002
0002
0002
1FFE
6002
8002
8002
8002
8002
8002
8006
800A
6012
1FE2
ENDCHAR
STARTCHAR 00E6
ENCODING 230
SWIDTH 977 0
DWIDTH 38 0
BBX 33 20 3 0
BITMAP
0FF00FE000
3008301800
C004400400
0004800200
0003800100
0003000100
0003000080
0002000080
0002000080
1FFFFFFF80
6002000000
8002000000
8002000000
8003000000
8003000000
8002800000
8004400000
8008600200
6010100C00
1FE00FF000
ENDCHAR
STARTCHAR 00E7
ENCODING 231
SWIDTH 540 0
DWIDTH 21 0
BBX 17 28 2 -8
BITMAP
03FC00
0C0300
100080
200000
400000
400000
800000
800000
800000
800000
800000
800000
800000
800000
400000
400000
200080
100180
0C0200
03F800
008000
008000
00C000
003000
001000
001000
001000
03E000
ENDCHAR
STARTCHAR 00E8
ENCODING 232
SWIDTH 565 0
DWIDTH 22 0
BBX 19 28 2 0
BITMAP
040000
030000
018000
004000
002000
000000
000000
000000
03F800
0C0600
100100
200080
400080
400040
800040
800020
800020
FFFFE0
800000
800000
800000
800000
400000
400000
200000
100080
0C0300
03FC00
ENDCHAR
STARTCHAR 00E9
ENCODING 233
SWIDTH 565 0
DWIDTH 22 0
BBX 19 28 2 0
BITMAP
000400
001800
002000
004000
008000
000000
000000
000000
03F800
0C0600
100100
200080
400080
400040
800040
800020
800020
FFFFE0
800000
800000
800000
800000
400000
400000
200000
100080
0C0300
03FC00
ENDCHAR
STARTCHAR 00EA
ENCODING 234
SWIDTH 565 0
DWIDTH 22 0
BBX 19 28 2 0
BITMAP
00E000
01B000
021800
040400
000000
000000
000000
000000
03F800
0C0600
100100
200080
400080
400040
800040
800020
800020
FFFFE0
800000
800000
800000
800000
400000
400000
200000
100080
0C0300
03FC00
ENDCHAR
STARTCHAR 00EB
ENCODING 235
SWIDTH 565 0
DWIDTH 22 0
BBX 19 27 2 0
BITMAP
060800
060C00
000000
000000
000000
000000
000000
03F800
0C0600
100100
200080
400080
400040
800040
800020
800020
FFFFE0
800000
800000
800000
800000
400000
400000
200000
100080
0C0300
03FC00
ENDCHAR
STARTCHAR 00EC
ENCODING 236
SWIDTH 231 0
DWIDTH 9 0
BBX 6 28 0 0
BITMAP
C0
60
10
0C
00
00
00
00
08
08
08
08
08
08
08
08
08
08
08
08
08
08
08
08
08
08
08
08
ENDCHAR
STARTCHAR 00ED
ENCODING 237
SWIDTH 231 0
DWIDTH 9 0
BBX 6 28 4 0
BITMAP
0C
10
60
80
00
00
00
00
80
80
80
80
80
80
80
80
80
80
80
80
80
80
80
80
80
80
80
80
ENDCHAR
STARTCHAR 00EE
ENCODING 238
SWIDTH 231 0
DWIDTH 9 0
BBX 8 28 1 0
BITMAP
18
24
46
82
01
00
00
00
10
10
10
10
10
10
10
10
10
10
10
10
10
10
10
10
10
10
10
10
ENDCHAR
STARTCHAR 00EF
ENCODING 239
SWIDTH 231 0
DWIDTH 9 0
BBX 6 27 2 0
BITMAP
8C
CC
00
00
00
00
00
20
20
20
20
20
20
20
20
20
20
20
20
20
20
20
20
20
20
20
20
ENDCHAR
STARTCHAR 00F0
ENCODING 240
SWIDTH 617 0
DWIDTH 24 0
BBX 20 27 2 0
BITMAP
3FF8C0
000700
001900
006080
018040
060040
080020
000020
000020
000010
01F010
0E0C10
100310
200090
400050
800050
800050
800030
800020
800020
800020
800040
400040
400080
200100
180600
07F800
ENDCHAR
STARTCHAR 00F1
ENCODING 241
SWIDTH 642 0
DWIDTH 25 0
BBX 18 27 4 1
BITMAP
0F8400
084400
083800
000000
000000
000000
000000
83F800
8C0600
900100
A00080
C00080
C00080
C00040
800040
800040
800040
800040
800040
800040
800040
800040
800040
800040
800040
800040
800040
ENDCHAR
STARTCHAR 00F2
ENCODING 242
SWIDTH 591 0
DWIDTH 23 0
BBX 20 28 2 0
BITMAP
060000
030000
008000
006000
000000
000000
000000
000000
03FC00
0C0300
100080
200040
400040
400020
800020
800020
800010
800010
800010
800010
800020
800020
400020
400040
200080
100180
0C0200
03FC00
ENDCHAR
STARTCHAR 00F3
ENCODING 243
SWIDTH 591 0
DWIDTH 23 0
BBX 20 28 2 0
BITMAP
000600
000800
003000
004000
000000
000000
000000
000000
03FC00
0C0300
100080
200040
400040
400020
800020
800020
800010
800010
800010
800010
800020
800020
400020
400040
200080
100180
0C0200
03FC00
ENDCHAR
STARTCHAR 00F4
ENCODING 244
SWIDTH 591 0
DWIDTH 23 0
BBX 20 28 2 0
BITMAP
006000
009000
010800
060400
000200
000000
000000
000000
03FC00
0C0300
100080
200040
400040
400020
800020
800020
800010
800010
800010
800010
800020
800020
400020
400040
200080
100180
0C0200
03FC00
ENDCHAR
STARTCHAR 00F5
ENCODING 245
SWIDTH 591 0
DWIDTH 23 0
BBX 20 28 2 0
BITMAP
010000
06C200
042200
001C00
000000
000000
000000
000000
03FC00
0C0300
100080
200040
400040
400020
800020
800020
800010
800010
800010
800010
800020
800020
400020
400040
200080
100180
0C0200
03FC00
ENDCHAR
STARTCHAR 00F6
ENCODING 246
SWIDTH 591 0
DWIDTH 23 0
BBX 20 27 2 0
BITMAP
020C00
030C00
000000
000000
000000
000000
000000
03FC00
0C0300
100080
200040
400040
400020
800020
800020
800010
800010
800010
800010
800020
800020
400020
400040
200080
100180
0C0200
03FC00
ENDCHAR
STARTCHAR 00F7
ENCODING 247
SWIDTH 540 0
DWIDTH 21 0
BBX 16 15 3 7
BITMAP
0180
0000
0000
0000
0000
0000
0000
FFFF
0000
0000
0000
0000
0000
0000
0180
ENDCHAR
STARTCHAR 00F8
ENCODING 248
SWIDTH 591 0
DWIDTH 23 0
BBX 20 26 2 -3
BITMAP
000020
000040
000080
03FC80
0C0300
100280
200240
400440
400820
800820
801020
802010
802010
804010
808010
808020
810020
420020
420040
240080
180180
0C0200
13FC00
200000
400000
400000
ENDCHAR
STARTCHAR 00F9
ENCODING 249
SWIDTH 642 0
DWIDTH 25 0
BBX 17 28 4 0
BITMAP
0C0000
060000
010000
008000
004000
000000
000000
000000
800080
800080
800080
800080
800080
800080
800080
800080
800080
800080
800080
800080
800080
800080
800080
400180
400180
200280
100C80
0FF080
ENDCHAR
STARTCHAR 00FA
ENCODING 250
SWIDTH 642 0
DWIDTH 25 0
BBX 17 28 4 0
BITMAP
000C00
001000
006000
008000
000000
000000
000000
000000
800080
800080
800080
800080
800080
800080
800080
800080
800080
800080
800080
800080
800080
800080
800080
400180
400180
200280
100C80
0FF080
ENDCHAR
STARTCHAR 00FB
ENCODING 251
SWIDTH 642 0
DWIDTH 25 0
BBX 17 28 4 0
BITMAP
00C000
012000
021000
0C0800
000400
000000
000000
000000
800080
800080
800080
800080
800080
800080
800080
800080
800080
800080
800080
800080
800080
800080
800080
400180
400180
200280
100C80
0FF080
ENDCHAR
STARTCHAR 00FC
ENCODING 252
SWIDTH 642 0
DWIDTH 25 0
BBX 17 27 4 0
BITMAP
041800
041800
000000
000000
000000
000000
000000
800080
800080
800080
800080
800080
800080
800080
800080
800080
800080
800080
800080
800080
800080
800080
400180
400180
200280
100C80
0FF080
ENDCHAR
STARTCHAR 00FD
ENCODING 253
SWIDTH 488 0
DWIDTH 19 0
BBX 20 36 -1 -8
BITMAP
000600
000C00
001000
002000
004000
000000
000000
000000
400010
200010
200020
100020
100040
080040
080040
040080
040080
020100
020100
020200
010200
010400
008400
008800
004800
005000
003000
003000
002000
002000
004000
004000
008000
818000
C30000
380000
ENDCHAR
STARTCHAR 00FE
ENCODING 254
SWIDTH 668 0
DWIDTH 26 0
BBX 20 37 4 -8
BITMAP
800000
800000
800000
800000
800000
800000
800000
800000
800000
83FC00
840300
900080
B00040
A00020
C00020
C00020
C00010
800010
800010
800010
800010
C00010
C00020
C00020
A00020
900040
880080
840300
83FC00
800000
800000
800000
800000
800000
800000
800000
800000
ENDCHAR
STARTCHAR 00FF
ENCODING 255
SWIDTH 488 0
DWIDTH 19 0
BBX 20 35 -1 -8
BITMAP
030400
030400
000000
000000
000000
000000
000000
400010
200010
200020
100020
100040
080040
080040
040080
040080
020100
020100
020200
010200
010400
008400
008800
004800
005000
003000
003000
002000
002000
004000
004000
008000
818000
C30000
380000
ENDCHAR
STARTCHAR 0100
ENCODING 256
SWIDTH 668 0
DWIDTH 26 0
BBX 26 32 0 0
BITMAP
00FFE000
00000000
00000000
00000000
00000000
00040000
000A0000
000A0000
00130000
00110000
00210000
00208000
00408000
00404000
00804000
00802000
01002000
01001000
01001000
02000800
02000800
04000400
04000400
0FFFFC00
08000200
10000200
10000100
20000100
20000080
40000080
40000040
80000040
ENDCHAR
STARTCHAR 0101
ENCODING 257
SWIDTH 565 0
DWIDTH 22 0
BBX 15 26 3 0
BITMAP
3FF8
0000
0000
0000
0000
0000
0FF0
3008
C004
0004
0002
0002
0002
0002
0002
1FFE
6002
8002
8002
8002
8002
8002
8006
800A
6012
1FE2
ENDCHAR
STARTCHAR 0102
ENCODING 258
SWIDTH 668 0
DWIDTH 26 0
BBX 26 34 0 0
BITMAP
00802000
00804000
00404000
00208000
001F0000
00000000
00000000
00040000
000A0000
000A0000
00130000
00110000
00210000
00208000
00408000
00404000
00804000
00802000
01002000
01001000
01001000
02000800
02000800
04000400
04000400
0FFFFC00
08000200
10000200
10000100
20000100
20000080
40000080
40000040
80000040
ENDCHAR
STARTCHAR 0103
ENCODING 259
SWIDTH 565 0
DWIDTH 22 0
BBX 15 28 3 0
BITMAP
0008
1008
1010
0C60
0280
0000
0000
0000
0FF0
3008
C004
0004
0002
0002
0002
0002
0002
1FFE
6002
8002
8002
8002
8002
8002
8006
800A
6012
1FE2
ENDCHAR
STARTCHAR 0104
ENCODING 260
SWIDTH 668 0
DWIDTH 26 0
BBX 27 35 0 -8
BITMAP
00040000
000A0000
000A0000
00130000
00110000
00210000
00208000
00408000
00404000
00804000
00802000
01002000
01001000
01001000
02000800
02000800
04000400
04000400
0FFFFC00
08000200
10000200
10000100
20000100
20000080
40000080
40000040
80000040
00000080
00000300
00000200
00000400
00000400
00000800
00000400
000003E0
ENDCHAR
STARTCHAR 0105
ENCODING 261
SWIDTH 565 0
DWIDTH 22 0
BBX 15 28 3 -8
BITMAP
0FF0
3008
C004
0004
0002
0002
0002
0002
0002
1FFE
6002
8002
8002
8002
8002
8002
8006
800A
6012
1FE2
000C
0010
0020
0020
0040
0040
0020
003E
ENDCHAR
STARTCHAR 0106
ENCODING 262
SWIDTH 694 0
DWIDTH 27 0
BBX 23 34 2 0
BITMAP
000060
000080
000100
000600
000800
000000
000000
007FE0
018018
020006
0C0000
180000
100000
200000
400000
400000
400000
800000
800000
800000
800000
800000
800000
800000
400000
400000
200000
200000
100000
080000
040000
020006
018018
007FC0
ENDCHAR
STARTCHAR 0107
ENCODING 263
SWIDTH 540 0
DWIDTH 21 0
BBX 17 28 2 0
BITMAP
000C00
001800
002000
004000
008000
000000
000000
000000
03FC00
0C0300
100080
200000
400000
400000
800000
800000
800000
800000
800000
800000
800000
800000
400000
400000
200080
100180
0C0200
03F800
ENDCHAR
STARTCHAR 0108
ENCODING 264
SWIDTH 694 0
DWIDTH 27 0
BBX 23 34 2 0
BITMAP
000600
000900
001080
002040
004020
000000
000000
007FE0
018018
020006
0C0000
180000
100000
200000
400000
400000
400000
800000
800000
800000
800000
800000
800000
800000
400000
400000
200000
200000
100000
080000
040000
020006
018018
007FC0
ENDCHAR
STARTCHAR 0109
ENCODING 265
SWIDTH 540 0
DWIDTH 21 0
BBX 17 28 2 0
BITMAP
00C000
013000
021800
040400
080000
000000
000000
000000
03FC00
0C0300
100080
200000
400000
400000
800000
800000
800000
800000
800000
800000
800000
800000
400000
400000
200080
100180
0C0200
03F800
ENDCHAR
STARTCHAR 010A
ENCODING 266
SWIDTH 694 0
DWIDTH 27 0
BBX 23 33 2 0
BITMAP
000600
000600
000000
000000
000000
000000
007FE0
018018
020006
0C0000
180000
100000
200000
400000
400000
400000
800000
800000
800000
800000
800000
800000
800000
400000
400000
200000
200000
100000
080000
040000
020006
018018
007FC0
ENDCHAR
STARTCHAR 010B
ENCODING 267
SWIDTH 540 0
DWIDTH 21 0
BBX 17 27 2 0
BITMAP
00C000
00C000
000000
000000
000000
000000
000000
03FC00
0C0300
100080
200000
400000
400000
800000
800000
800000
800000
800000
800000
800000
800000
400000
400000
200080
100180
0C0200
03F800
ENDCHAR
STARTCHAR 010C
ENCODING 268
SWIDTH 694 0
DWIDTH 27 0
BBX 23 34 2 0
BITMAP
004020
002040
001080
000B00
000600
000000
000000
007FE0
018018
020006
0C0000
180000
100000
200000
400000
400000
400000
800000
800000
800000
800000
800000
800000
800000
400000
400000
200000
200000
100000
080000
040000
020006
018018
007FC0
ENDCHAR
STARTCHAR 010D
ENCODING 269
SWIDTH 540 0
DWIDTH 21 0
BBX 17 28 2 0
BITMAP
080400
060800
011000
00A000
004000
000000
000000
000000
03FC00
0C0300
100080
200000
400000
400000
800000
800000
800000
800000
800000
800000
800000
800000
400000
400000
200080
100180
0C0200
03F800
ENDCHAR
STARTCHAR 010E
ENCODING 270
SWIDTH 822 0
DWIDTH 32 0
BBX 25 34 5 0
BITMAP
04020000
02040000
01080000
00D00000
00600000
00000000
00000000
FFFF0000
8000C000
80003000
80000800
80000400
80000400
80000200
80000100
80000100
80000100
80000080
80000080
80000080
80000080
80000080
80000080
80000080
80000100
80000100
80000200
80000200
80000400
80000800
80001000
80002000
80008000
FFFF0000
ENDCHAR
STARTCHAR 010F
ENCODING 271
SWIDTH 668 0
DWIDTH 26 0
BBX 24 29 2 1
BITMAP
000011
000011
000011
000011
000011
000011
000010
000010
000010
03FC10
0C0210
100190
200090
400050
400030
800030
800010
800010
800010
800010
800010
800010
800030
400030
400050
200090
100190
0C0210
03FC10
ENDCHAR
STARTCHAR 0110
ENCODING 272
SWIDTH 822 0
DWIDTH 32 0
BBX 29 27 1 0
BITMAP
0FFFF000
08000C00
08000300
08000080
08000040
08000040
08000020
08000010
08000010
08000010
08000008
08000008
08000008
FFFC0008
08000008
08000008
08000008
08000010
08000010
08000020
08000020
08000040
08000080
08000100
08000200
08000800
0FFFF000
ENDCHAR
STARTCHAR 0111
ENCODING 273
SWIDTH 668 0
DWIDTH 26 0
BBX 24 29 2 0
BITMAP
000010
000010
000010
000010
007FFF
000010
000010
000010
000010
03FC10
0C0210
100190
200090
400050
400030
800030
800010
800010
800010
800010
800010
800010
800030
400030
400050
200090
100190
0C0210
03FC10
ENDCHAR
STARTCHAR 0112
ENCODING 274
SWIDTH 642 0
DWIDTH 25 0
BBX 18 32 5 0
BITMAP
0FFC00
000000
000000
000000
000000
FFFFC0
800000
800000
800000
800000
800000
800000
800000
800000
800000
800000
800000
800000
FFFF00
800000
800000
800000
800000
800000
800000
800000
800000
800000
800000
800000
800000
FFFFC0
ENDCHAR
STARTCHAR 0113
ENCODING 275
SWIDTH 565 0
DWIDTH 22 0
BBX 19 26 2 0
BITMAP
0FFE00
000000
000000
000000
000000
000000
03F800
0C0600
100100
200080
400080
400040
800040
800020
800020
FFFFE0
800000
800000
800000
800000
400000
400000
200000
100080
0C0300
03FC00
ENDCHAR
STARTCHAR 0114
ENCODING 276
SWIDTH 642 0
DWIDTH 25 0
BBX 18 34 5 0
BITMAP
080400
080400
080800
061800
00C000
000000
000000
FFFFC0
800000
800000
800000
800000
800000
800000
800000
800000
800000
800000
800000
800000
FFFF00
800000
800000
800000
800000
800000
800000
800000
800000
800000
800000
800000
800000
FFFFC0
ENDCHAR
STARTCHAR 0115
ENCODING 277
SWIDTH 565 0
DWIDTH 22 0
BBX 19 28 2 0
BITMAP
080200
080400
040400
031800
00E000
000000
000000
000000
03F800
0C0600
100100
200080
400080
400040
800040
800020
800020
FFFFE0
800000
800000
800000
800000
400000
400000
200000
100080
0C0300
03FC00
ENDCHAR
STARTCHAR 0116
ENCODING 278
SWIDTH 642 0
DWIDTH 25 0
BBX 18 33 5 0
BITMAP
00C000
00C000
000000
000000
000000
000000
FFFFC0
800000
800000
800000
800000
800000
800000
800000
800000
800000
800000
800000
800000
FFFF00
800000
800000
800000
800000
800000
800000
800000
800000
800000
800000
800000
800000
FFFFC0
ENDCHAR
STARTCHAR 0117
ENCODING 279
SWIDTH 565 0
DWIDTH 22 0
BBX 19 27 2 0
BITMAP
004000
004000
000000
000000
000000
000000
000000
03F800
0C0600
100100
200080
400080
400040
800040
800020
800020
FFFFE0
800000
800000
800000
800000
400000
400000
200000
100080
0C0300
03FC00
ENDCHAR
STARTCHAR 0118
ENCODING 280
SWIDTH 642 0
DWIDTH 25 0
BBX 19 35 5 -8
BITMAP
FFFFC0
800000
800000
800000
800000
800000
800000
800000
800000
800000
800000
800000
800000
FFFF00
800000
800000
800000
800000
800000
800000
800000
800000
800000
800000
800000
800000
FFFFC0
000080
000300
000400
000400
000800
000800
000400
0003E0
ENDCHAR
STARTCHAR 0119
ENCODING 281
SWIDTH 565 0
DWIDTH 22 0
BBX 19 28 2 -8
BITMAP
03F800
0C0600
100100
200080
400080
400040
800040
800020
800020
FFFFE0
800000
800000
800000
800000
400000
400000
200000
100080
0C0300
03FE00
000400
000800
001000
001000
001000
001000
001000
000F80
ENDCHAR
STARTCHAR 011A
ENCODING 282
SWIDTH 642 0
DWIDTH 25 0
BBX 18 34 5 0
BITMAP
080400
040800
021000
016000
00C000
000000
000000
FFFFC0
800000
800000
800000
800000
800000
800000
800000
800000
800000
800000
800000
800000
FFFF00
800000
800000
800000
800000
800000
800000
800000
800000
800000
800000
800000
800000
FFFFC0
ENDCHAR
STARTCHAR 011B
ENCODING 283
SWIDTH 565 0
DWIDTH 22 0
BBX 19 28 2 0
BITMAP
0C0400
020800
011000
00A000
004000
000000
000000
000000
03F800
0C0600
100100
200080
400080
400040
800040
800020
800020
FFFFE0
800000
800000
800000
800000
400000
400000
200000
100080
0C0300
03FC00
ENDCHAR
STARTCHAR 011C
ENCODING 284
SWIDTH 771 0
DWIDTH 30 0
BBX 24 34 2 0
BITMAP
000400
000B00
001180
006040
008020
000000
000000
007FF0
01800C
020002
0C0000
180000
100000
200000
400000
400000
400000
800000
800000
800000
800000
800001
800001
800001
400001
400001
200001
200001
100001
080001
040001
020006
018018
007FE0
ENDCHAR
STARTCHAR 011D
ENCODING 285
SWIDTH 668 0
DWIDTH 26 0
BBX 20 36 2 -8
BITMAP
006000
009000
010C00
020600
040000
000000
000000
000000
03FC10
0C0310
100090
200050
400050
400030
800010
800010
800010
800010
800010
800010
800010
400030
400030
200050
100090
080110
079E10
006010
000010
000010
000020
000020
200040
180080
060300
017C00
ENDCHAR
STARTCHAR 011E
ENCODING 286
SWIDTH 771 0
DWIDTH 30 0
BBX 24 34 2 0
BITMAP
008020
008020
004040
002080
001F00
000000
000000
007FF0
01800C
020002
0C0000
180000
100000
200000
400000
400000
400000
800000
800000
800000
800000
800001
800001
800001
400001
400001
200001
200001
100001
080001
040001
020006
018018
007FE0
ENDCHAR
STARTCHAR 011F
ENCODING 287
SWIDTH 668 0
DWIDTH 26 0
BBX 20 36 2 -8
BITMAP
040000
040200
020200
018C00
005000
000000
000000
000000
03FC10
0C0310
100090
200050
400050
400030
800010
800010
800010
800010
800010
800010
800010
400030
400030
200050
100090
080110
079E10
006010
000010
000010
000020
000020
200040
180080
060300
017C00
ENDCHAR
STARTCHAR 0120
ENCODING 288
SWIDTH 771 0
DWIDTH 30 0
BBX 24 33 2 0
BITMAP
000400
000600
000000
000000
000000
000000
007FF0
01800C
020002
0C0000
180000
100000
200000
400000
400000
400000
800000
800000
800000
800000
800001
800001
800001
400001
400001
200001
200001
100001
080001
040001
020006
018018
007FE0
ENDCHAR
STARTCHAR 0121
ENCODING 289
SWIDTH 668 0
DWIDTH 26 0
BBX 20 35 2 -8
BITMAP
006000
006000
000000
000000
000000
000000
000000
03FC10
0C0310
100090
200050
400050
400030
800010
800010
800010
800010
800010
800010
800010
400030
400030
200050
100090
080110
079E10
006010
000010
000010
000020
000020
200040
180080
060300
017C00
ENDCHAR
STARTCHAR 0122
ENCODING 290
SWIDTH 771 0
DWIDTH 30 0
BBX 24 37 2 -10
BITMAP
007FF0
01800C
020002
0C0000
180000
100000
200000
400000
400000
400000
800000
800000
800000
800000
800001
800001
800001
400001
400001
200001
200001
100001
080001
040001
020006
018018
007FE0
000000
000000
000000
000000
000000
000600
000600
000400
000400
000400
ENDCHAR
STARTCHAR 0123
ENCODING 291
SWIDTH 668 0
DWIDTH 26 0
BBX 20 38 2 -8
BITMAP
002000
002000
002000
002000
004000
006000
000000
000000
000000
000000
03FC10
0C0310
100090
200050
400050
400030
800010
800010
800010
800010
800010
800010
800010
400030
400030
200050
100090
080110
079E10
006010
000010
000010
000020
000020
200040
180080
060300
017C00
ENDCHAR
STARTCHAR 0124
ENCODING 292
SWIDTH 797 0
DWIDTH 31 0
BBX 22 34 5 0
BITMAP
003000
004800
008400
010200
020100
000000
000000
800004
800004
800004
800004
800004
800004
800004
800004
800004
800004
800004
800004
800004
FFFFFC
800004
800004
800004
800004
800004
800004
800004
800004
800004
800004
800004
800004
800004
ENDCHAR
STARTCHAR 0125
ENCODING 293
SWIDTH 642 0
DWIDTH 25 0
BBX 22 35 0 0
BITMAP
1C0000
230000
418000
804000
000000
000000
080000
080000
080000
080000
080000
080000
080000
080000
080000
083F80
08C060
090010
0A0008
0C0008
0C0008
0C0004
080004
080004
080004
080004
080004
080004
080004
080004
080004
080004
080004
080004
080004
ENDCHAR
STARTCHAR 0126
ENCODING 294
SWIDTH 797 0
DWIDTH 31 0
BBX 29 27 1 0
BITMAP
08000040
08000040
08000040
08000040
08000040
08000040
FFFFFFF8
08000040
08000040
08000040
08000040
08000040
08000040
0FFFFFC0
08000040
08000040
08000040
08000040
08000040
08000040
08000040
08000040
08000040
08000040
08000040
08000040
08000040
ENDCHAR
STARTCHAR 0127
ENCODING 295
SWIDTH 642 0
DWIDTH 25 0
BBX 22 29 0 0
BITMAP
080000
080000
080000
080000
FFFE00
080000
080000
080000
080000
083F80
08C060
090010
0A0008
0C0008
0C0008
0C0004
080004
080004
080004
080004
080004
080004
080004
080004
080004
080004
080004
080004
080004
ENDCHAR
STARTCHAR 0128
ENCODING 296
SWIDTH 282 0
DWIDTH 11 0
BBX 11 33 0 0
BITMAP
7820
8440
83C0
0000
0000
0000
0400
0400
0400
0400
0400
0400
0400
0400
0400
0400
0400
0400
0400
0400
0400
0400
0400
0400
0400
0400
0400
0400
0400
0400
0400
0400
0400
ENDCHAR
STARTCHAR 0129
ENCODING 297
SWIDTH 231 0
DWIDTH 9 0
BBX 8 27 1 1
BITMAP
F1
89
06
00
00
00
00
10
10
10
10
10
10
10
10
10
10
10
10
10
10
10
10
10
10
10
10
ENDCHAR
STARTCHAR 012A
ENCODING 298
SWIDTH 282 0
DWIDTH 11 0
BBX 9 32 1 0
BITMAP
FF80
0000
0000
0000
0000
0800
0800
0800
0800
0800
0800
0800
0800
0800
0800
0800
0800
0800
0800
0800
0800
0800
0800
0800
0800
0800
0800
0800
0800
0800
0800
0800
ENDCHAR
STARTCHAR 012B
ENCODING 299
SWIDTH 231 0
DWIDTH 9 0
BBX 8 26 1 0
BITMAP
FF
00
00
00
00
00
10
10
10
10
10
10
10
10
10
10
10
10
10
10
10
10
10
10
10
10
ENDCHAR
STARTCHAR 012C
ENCODING 300
SWIDTH 282 0
DWIDTH 11 0
BBX 11 34 0 0
BITMAP
8020
8020
4040
2080
1F00
0000
0000
0400
0400
0400
0400
0400
0400
0400
0400
0400
0400
0400
0400
0400
0400
0400
0400
0400
0400
0400
0400
0400
0400
0400
0400
0400
0400
0400
ENDCHAR
STARTCHAR 012D
ENCODING 301
SWIDTH 231 0
DWIDTH 9 0
BBX 8 28 1 0
BITMAP
81
81
82
46
28
00
00
00
10
10
10
10
10
10
10
10
10
10
10
10
10
10
10
10
10
10
10
10
ENDCHAR
STARTCHAR 012E
ENCODING 302
SWIDTH 282 0
DWIDTH 11 0
BBX 4 35 3 -8
BITMAP
20
20
20
20
20
20
20
20
20
20
20
20
20
20
20
20
20
20
20
20
20
20
20
20
20
20
20
20
40
80
80
80
80
80
70
ENDCHAR
STARTCHAR 012F
ENCODING 303
SWIDTH 231 0
DWIDTH 9 0
BBX 5 36 2 -8
BITMAP
20
30
00
00
00
00
00
00
20
20
20
20
20
20
20
20
20
20
20
20
20
20
20
20
20
20
20
20
20
40
40
80
80
80
80
78
ENDCHAR
STARTCHAR 0130
ENCODING 304
SWIDTH 282 0
DWIDTH 11 0
BBX 2 33 5 0
BITMAP
80
C0
00
00
00
00
80
80
80
80
80
80
80
80
80
80
80
80
80
80
80
80
80
80
80
80
80
80
80
80
80
80
80
ENDCHAR
STARTCHAR 0131
ENCODING 305
SWIDTH 231 0
DWIDTH 9 0
BBX 1 20 4 0
BITMAP
80
80
80
80
80
80
80
80
80
80
80
80
80
80
80
80
80
80
80
80
ENDCHAR
STARTCHAR 0132
ENCODING 306
SWIDTH 694 0
DWIDTH 27 0
BBX 18 27 5 0
BITMAP
800040
800040
800040
800040
800040
800040
800040
800040
800040
800040
800040
800040
800040
800040
800040
800040
000040
000040
000040
000080
000080
000080
000100
000100
800200
600C00
1FE000
ENDCHAR
STARTCHAR 0133
ENCODING 307
SWIDTH 488 0
DWIDTH 19 0
BBX 12 36 4 -8
BITMAP
8020
C030
0000
0000
0000
0000
0000
0000
8020
8020
8020
8020
8020
8020
8020
8020
8020
8020
8020
8020
8020
8020
8020
8020
8020
8020
8020
8020
0020
0020
0020
0020
0020
0020
10C0
0E00
ENDCHAR
STARTCHAR 0134
ENCODING 308
SWIDTH 462 0
DWIDTH 18 0
BBX 14 34 0 0
BITMAP
0180
0240
0420
0810
1008
0000
0000
1FFC
0004
0004
0004
0004
0004
0004
0004
0004
0004
0004
0004
0004
0004
0004
0004
0004
0004
0004
0004
0004
0008
0008
8008
4010
3030
0FC0
ENDCHAR
STARTCHAR 0135
ENCODING 309
SWIDTH 231 0
DWIDTH 9 0
BBX 12 36 -3 -8
BITMAP
0180
0240
0420
0C10
0000
0000
0000
0000
0100
0100
0100
0100
0100
0100
0100
0100
0100
0100
0100
0100
0100
0100
0100
0100
0100
0100
0100
0100
0100
0100
0100
0100
0100
0100
8200
5C00
ENDCHAR
STARTCHAR 0136
ENCODING 310
SWIDTH 668 0
DWIDTH 26 0
BBX 21 37 5 -10
BITMAP
800010
800020
800040
800080
800100
800200
800400
800800
801000
802000
804000
808000
818000
828000
844000
882000
901000
A00800
C00400
800200
800100
800100
800080
800040
800020
800010
800008
000000
000000
000000
000000
000000
00C000
004000
004000
004000
008000
ENDCHAR
STARTCHAR 0137
ENCODING 311
SWIDTH 565 0
DWIDTH 22 0
BBX 17 39 4 -10
BITMAP
800000
800000
800000
800000
800000
800000
800000
800000
800000
800100
800200
800400
801800
803000
804000
808000
810000
830000
848000
884000
902000
A03000
C01000
800800
800400
800200
800200
800100
800080
000000
000000
000000
000000
000000
018000
018000
008000
010000
010000
ENDCHAR
STARTCHAR 0138
ENCODING 312
SWIDTH 540 0
DWIDTH 21 0
BBX 17 20 4 0
BITMAP
800100
800200
800400
801800
803000
804000
808000
810000
830000
848000
884000
902000
A03000
C01000
800800
800400
800200
800200
800100
800080
ENDCHAR
STARTCHAR 0139
ENCODING 313
SWIDTH 565 0
DWIDTH 22 0
BBX 18 34 4 0
BITMAP
060000
080000
300000
400000
800000
000000
000000
400000
400000
400000
400000
400000
400000
400000
400000
400000
400000
400000
400000
400000
400000
400000
400000
400000
400000
400000
400000
400000
400000
400000
400000
400000
400000
7FFFC0
ENDCHAR
STARTCHAR 013A
ENCODING 314
SWIDTH 231 0
DWIDTH 9 0
BBX 7 37 3 0
BITMAP
06
0C
10
20
C0
00
00
00
40
40
40
40
40
40
40
40
40
40
40
40
40
40
40
40
40
40
40
40
40
40
40
40
40
40
40
40
40
ENDCHAR
STARTCHAR 013B
ENCODING 315
SWIDTH 565 0
DWIDTH 22 0
BBX 17 37 5 -10
BITMAP
800000
800000
800000
800000
800000
800000
800000
800000
800000
800000
800000
800000
800000
800000
800000
800000
800000
800000
800000
800000
800000
800000
800000
800000
800000
800000
FFFF80
000000
000000
000000
000000
000000
00C000
00C000
004000
008000
008000
ENDCHAR
STARTCHAR 013C
ENCODING 316
SWIDTH 231 0
DWIDTH 9 0
BBX 2 39 4 -10
BITMAP
80
80
80
80
80
80
80
80
80
80
80
80
80
80
80
80
80
80
80
80
80
80
80
80
80
80
80
80
80
00
00
00
00
00
C0
C0
40
80
80
ENDCHAR
STARTCHAR 013D
ENCODING 317
SWIDTH 565 0
DWIDTH 22 0
BBX 17 28 5 0
BITMAP
000800
800800
800800
800800
800800
800800
800800
800000
800000
800000
800000
800000
800000
800000
800000
800000
800000
800000
800000
800000
800000
800000
800000
800000
800000
800000
800000
FFFF80
ENDCHAR
STARTCHAR 013E
ENCODING 318
SWIDTH 231 0
DWIDTH 9 0
BBX 6 30 4 0
BITMAP
04
84
84
84
84
84
84
80
80
80
80
80
80
80
80
80
80
80
80
80
80
80
80
80
80
80
80
80
80
80
ENDCHAR
STARTCHAR 013F
ENCODING 319
SWIDTH 565 0
DWIDTH 22 0
BBX 17 27 5 0
BITMAP
800000
800000
800000
800000
800000
800000
800000
800000
800000
800000
800000
800000
801800
801800
800000
800000
800000
800000
800000
800000
800000
800000
800000
800000
800000
800000
FFFF80
ENDCHAR
STARTCHAR 0140
ENCODING 320
SWIDTH 231 0
DWIDTH 9 0
BBX 7 29 4 0
BITMAP
80
80
80
80
80
80
80
80
80
80
80
80
80
80
84
86
80
80
80
80
80
80
80
80
80
80
80
80
80
ENDCHAR
STARTCHAR 0141
ENCODING 321
SWIDTH 565 0
DWIDTH 22 0
BBX 20 27 2 0
BITMAP
100000
100000
100000
100000
100000
100000
100000
100000
100000
108000
130000
140000
180000
300000
500000
900000
100000
100000
100000
100000
100000
100000
100000
100000
100000
100000
1FFFF0
ENDCHAR
STARTCHAR 0142
ENCODING 322
SWIDTH 231 0
DWIDTH 9 0
BBX 8 29 1 0
BITMAP
10
10
10
10
10
10
10
10
10
10
10
10
11
12
1C
10
30
D0
10
10
10
10
10
10
10
10
10
10
10
ENDCHAR
STARTCHAR 0143
ENCODING 323
SWIDTH 797 0
DWIDTH 31 0
BBX 22 34 5 0
BITMAP
000300
000400
000800
003000
004000
000000
000000
800004
C00004
A00004
900004
900004
880004
840004
820004
810004
810004
808004
804004
802004
802004
801004
800804
800404
800204
800204
800104
800084
800044
800044
800024
800014
80000C
800004
ENDCHAR
STARTCHAR 0144
ENCODING 324
SWIDTH 642 0
DWIDTH 25 0
BBX 18 28 4 0
BITMAP
000C00
001000
002000
00C000
000000
000000
000000
000000
83F800
8C0600
900100
A00080
C00080
C00080
C00040
800040
800040
800040
800040
800040
800040
800040
800040
800040
800040
800040
800040
800040
ENDCHAR
STARTCHAR 0145
ENCODING 325
SWIDTH 797 0
DWIDTH 31 0
BBX 22 37 5 -10
BITMAP
800004
C00004
A00004
900004
900004
880004
840004
820004
810004
810004
808004
804004
802004
802004
801004
800804
800404
800204
800204
800104
800084
800044
800044
800024
800014
80000C
800004
000000
000000
000000
000000
000000
003000
003000
001000
002000
002000
ENDCHAR
STARTCHAR 0146
ENCODING 326
SWIDTH 642 0
DWIDTH 25 0
BBX 18 30 4 -10
BITMAP
83F800
8C0600
900100
A00080
C00080
C00080
C00040
800040
800040
800040
800040
800040
800040
800040
800040
800040
800040
800040
800040
800040
000000
000000
000000
000000
000000
00C000
00C000
004000
008000
008000
ENDCHAR
STARTCHAR 0147
ENCODING 327
SWIDTH 797 0
DWIDTH 31 0
BBX 22 34 5 0
BITMAP
020100
010200
008400
005800
003000
000000
000000
800004
C00004
A00004
900004
900004
880004
840004
820004
810004
810004
808004
804004
802004
802004
801004
800804
800404
800204
800204
800104
800084
800044
800044
800024
800014
80000C
800004
ENDCHAR
STARTCHAR 0148
ENCODING 328
SWIDTH 642 0
DWIDTH 25 0
BBX 18 28 4 0
BITMAP
080400
040800
033000
01E000
000000
000000
000000
000000
83F800
8C0600
900100
A00080
C00080
C00080
C00040
800040
800040
800040
800040
800040
800040
800040
800040
800040
800040
800040
800040
800040
ENDCHAR
STARTCHAR 0149
ENCODING 329
SWIDTH 694 0
DWIDTH 27 0
BBX 21 29 2 0
BITMAP
400000
600000
400000
400000
400000
400000
800000
000000
000000
087F80
098060
0A0010
0C0010
0C0008
080008
080008
080008
080008
080008
080008
080008
080008
080008
080008
080008
080008
080008
080008
080008
ENDCHAR
STARTCHAR 014A
ENCODING 330
SWIDTH 797 0
DWIDTH 31 0
BBX 22 35 5 -8
BITMAP
800004
C00004
A00004
900004
900004
880004
840004
820004
810004
810004
808004
804004
802004
802004
801004
800804
800404
800204
800204
800104
800084
800044
800044
800024
800014
80000C
800004
000004
000008
000008
008008
004008
006010
001860
000300
ENDCHAR
STARTCHAR 014B
ENCODING 331
SWIDTH 642 0
DWIDTH 25 0
BBX 18 28 4 -8
BITMAP
83F800
8C0600
900100
A00080
C00080
C00080
C00040
800040
800040
800040
800040
800040
800040
800040
800040
800040
800040
800040
800040
800040
000040
000040
000040
000040
000080
000080
006100
000E00
ENDCHAR
STARTCHAR 014C
ENCODING 332
SWIDTH 822 0
DWIDTH 32 0
BBX 28 32 2 0
BITMAP
007FF000
00000000
00000000
00000000
00000000
007FE000
01801800
02000600
0C000100
10000080
10000040
20000040
40000020
40000020
40000010
80000010
80000010
80000010
80000010
80000010
80000010
80000010
40000010
40000020
20000020
20000040
10000040
08000080
04000100
02000600
01801800
007FE000
ENDCHAR
STARTCHAR 014D
ENCODING 333
SWIDTH 591 0
DWIDTH 23 0
BBX 20 26 2 0
BITMAP
07FE00
000000
000000
000000
000000
000000
03FC00
0C0300
100080
200040
400040
400020
800020
800020
800010
800010
800010
800010
800020
800020
400020
400040
200080
100180
0C0200
03FC00
ENDCHAR
STARTCHAR 014E
ENCODING 334
SWIDTH 822 0
DWIDTH 32 0
BBX 28 34 2 0
BITMAP
00400000
00402000
00202000
0010C000
000F0000
00000000
00000000
007FE000
01801800
02000600
0C000100
10000080
10000040
20000040
40000020
40000020
40000010
80000010
80000010
80000010
80000010
80000010
80000010
80000010
40000010
40000020
20000020
20000040
10000040
08000080
04000100
02000600
01801800
007FE000
ENDCHAR
STARTCHAR 014F
ENCODING 335
SWIDTH 591 0
DWIDTH 23 0
BBX 20 28 2 0
BITMAP
000200
040200
040400
030800
00B000
000000
000000
000000
03FC00
0C0300
100080
200040
400040
400020
800020
800020
800010
800010
800010
800010
800020
800020
400020
400040
200080
100180
0C0200
03FC00
ENDCHAR
STARTCHAR 0150
ENCODING 336
SWIDTH 822 0
DWIDTH 32 0
BBX 28 34 2 0
BITMAP
00010400
00020800
00043000
00086000
0010C000
00000000
00000000
007FE000
01801800
02000600
0C000100
10000080
10000040
20000040
40000020
40000020
40000010
80000010
80000010
80000010
80000010
80000010
80000010
80000010
40000010
40000020
20000020
20000040
10000040
08000080
04000100
02000600
01801800
007FE000
ENDCHAR
STARTCHAR 0151
ENCODING 337
SWIDTH 591 0
DWIDTH 23 0
BBX 20 28 2 0
BITMAP
001080
002100
004200
008400
010000
000000
000000
000000
03FC00
0C0300
100080
200040
400040
400020
800020
800020
800010
800010
800010
800010
800020
800020
400020
400040
200080
100180
0C0200
03FC00
ENDCHAR
STARTCHAR 0152
ENCODING 338
SWIDTH 1105 0
DWIDTH 43 0
BBX 39 27 2 0
BITMAP
003FFFFFFC
01C0080000
0200080000
0C00080000
1800080000
1000080000
2000080000
4000080000
4000080000
4000080000
8000080000
8000080000
8000080000
80000FFFF0
8000080000
8000080000
8000080000
4000080000
4000080000
4000080000
2000080000
1000080000
0800080000
0400080000
0200080000
01C0080000
003FFFFFFE
ENDCHAR
STARTCHAR 0153
ENCODING 339
SWIDTH 1054 0
DWIDTH 41 0
BBX 38 20 2 0
BITMAP
03FC007F00
0C020180C0
1001820020
2000440010
4000480010
4000280008
8000300008
8000100008
8000100008
80001FFFFC
8000100000
8000100000
8000100000
8000300000
4000280000
4000480000
2000840000
1001820010
0C02018060
03FC007F80
ENDCHAR
STARTCHAR 0154
ENCODING 340
SWIDTH 694 0
DWIDTH 27 0
BBX 20 34 5 0
BITMAP
000400
001800
002000
004000
008000
000000
000000
FFFC00
800300
8000C0
800020
800020
800010
800010
800010
800010
800010
800010
800010
800020
800020
800040
800080
800700
FFEC00
800400
800200
800100
800080
800080
800040
800020
800020
800010
ENDCHAR
STARTCHAR 0155
ENCODING 341
SWIDTH 360 0
DWIDTH 14 0
BBX 10 28 4 0
BITMAP
00C0
0100
0600
0800
0000
0000
0000
0000
8780
8800
9000
A000
C000
C000
C000
8000
8000
8000
8000
8000
8000
8000
8000
8000
8000
8000
8000
8000
ENDCHAR
STARTCHAR 0156
ENCODING 342
SWIDTH 694 0
DWIDTH 27 0
BBX 20 37 5 -10
BITMAP
FFFC00
800300
8000C0
800020
800020
800010
800010
800010
800010
800010
800010
800010
800020
800020
800040
800080
800700
FFEC00
800400
800200
800100
800080
800080
800040
800020
800020
800010
000000
000000
000000
000000
000000
00C000
004000
004000
004000
008000
ENDCHAR
STARTCHAR 0157
ENCODING 343
SWIDTH 360 0
DWIDTH 14 0
BBX 9 30 4 -10
BITMAP
8780
8800
9000
A000
C000
C000
C000
8000
8000
8000
8000
8000
8000
8000
8000
8000
8000
8000
8000
8000
0000
0000
0000
0000
0000
C000
C000
4000
8000
8000
ENDCHAR
STARTCHAR 0158
ENCODING 344
SWIDTH 694 0
DWIDTH 27 0
BBX 20 34 5 0
BITMAP
080400
040800
031000
01A000
004000
000000
000000
FFFC00
800300
8000C0
800020
800020
800010
800010
800010
800010
800010
800010
800010
800020
800020
800040
800080
800700
FFEC00
800400
800200
800100
800080
800080
800040
800020
800020
800010
ENDCHAR
STARTCHAR 0159
ENCODING 345
SWIDTH 360 0
DWIDTH 14 0
BBX 10 28 4 0
BITMAP
8040
4180
2300
1C00
0000
0000
0000
0000
8780
8800
9000
A000
C000
C000
C000
8000
8000
8000
8000
8000
8000
8000
8000
8000
8000
8000
8000
8000
ENDCHAR
STARTCHAR 015A
ENCODING 346
SWIDTH 591 0
DWIDTH 23 0
BBX 19 34 2 0
BITMAP
000200
000C00
001800
002000
004000
000000
000000
07FE00
080180
300040
200000
400000
400000
400000
400000
400000
200000
200000
180000
070000
00F000
000E00
000180
000040
000020
000020
000020
000020
000020
000020
C00040
2000C0
180100
07FE00
ENDCHAR
STARTCHAR 015B
ENCODING 347
SWIDTH 462 0
DWIDTH 18 0
BBX 16 28 1 0
BITMAP
0018
0020
0040
0180
0000
0000
0000
0000
0FF0
100C
2000
4000
4000
4000
4000
2000
1000
0F00
00F0
000C
0002
0002
0001
0001
0002
C002
3004
0FF8
ENDCHAR
STARTCHAR 015C
ENCODING 348
SWIDTH 591 0
DWIDTH 23 0
BBX 19 34 2 0
BITMAP
006000
00D000
018800
020600
040100
000000
000000
07FE00
080180
300040
200000
400000
400000
400000
400000
400000
200000
200000
180000
070000
00F000
000E00
000180
000040
000020
000020
000020
000020
000020
000020
C00040
2000C0
180100
07FE00
ENDCHAR
STARTCHAR 015D
ENCODING 349
SWIDTH 462 0
DWIDTH 18 0
BBX 16 28 1 0
BITMAP
0180
0240
0420
0810
1008
0000
0000
0000
0FF0
100C
2000
4000
4000
4000
4000
2000
1000
0F00
00F0
000C
0002
0002
0001
0001
0002
C002
3004
0FF8
ENDCHAR
STARTCHAR 015E
ENCODING 350
SWIDTH 591 0
DWIDTH 23 0
BBX 19 35 2 -8
BITMAP
07FE00
080180
300040
200000
400000
400000
400000
400000
400000
200000
200000
180000
070000
00F000
000E00
000180
000040
000020
000020
000020
000020
000020
000020
C00040
2000C0
180100
07FE00
002000
004000
007000
000800
000800
000800
000800
01F000
ENDCHAR
STARTCHAR 015F
ENCODING 351
SWIDTH 462 0
DWIDTH 18 0
BBX 16 28 1 -8
BITMAP
0FF0
100C
2000
4000
4000
4000
4000
2000
1000
0F00
00F0
000C
0002
0002
0001
0001
0002
C002
3004
0FF8
0100
0100
0180
0040
0020
0020
0020
07C0
ENDCHAR
STARTCHAR 0160
ENCODING 352
SWIDTH 591 0
DWIDTH 23 0
BBX 19 34 2 0
BITMAP
040300
030400
018800
005000
002000
000000
000000
07FE00
080180
300040
200000
400000
400000
400000
400000
400000
200000
200000
180000
070000
00F000
000E00
000180
000040
000020
000020
000020
000020
000020
000020
C00040
2000C0
180100
07FE00
ENDCHAR
STARTCHAR 0161
ENCODING 353
SWIDTH 462 0
DWIDTH 18 0
BBX 16 28 1 0
BITMAP
1008
0810
0660
03C0
0000
0000
0000
0000
0FF0
100C
2000
4000
4000
4000
4000
2000
1000
0F00
00F0
000C
0002
0002
0001
0001
0002
C002
3004
0FF8
ENDCHAR
STARTCHAR 0162
ENCODING 354
SWIDTH 540 0
DWIDTH 21 0
BBX 21 35 0 -8
BITMAP
FFFFF8
002000
002000
002000
002000
002000
002000
002000
002000
002000
002000
002000
002000
002000
002000
002000
002000
002000
002000
002000
002000
002000
002000
002000
002000
002000
002000
002000
002000
003000
000800
000800
000400
000800
01F000
ENDCHAR
STARTCHAR 0163
ENCODING 355
SWIDTH 385 0
DWIDTH 15 0
BBX 12 33 1 -8
BITMAP
0800
0800
0800
0800
0800
FFE0
0800
0800
0800
0800
0800
0800
0800
0800
0800
0800
0800
0800
0800
0800
0800
0800
0800
0400
03F0
0080
0100
01C0
0020
0020
0020
0020
07C0
ENDCHAR
STARTCHAR 0164
ENCODING 356
SWIDTH 540 0
DWIDTH 21 0
BBX 21 34 0 0
BITMAP
020100
010200
008C00
005000
002000
000000
000000
FFFFF8
002000
002000
002000
002000
002000
002000
002000
002000
002000
002000
002000
002000
002000
002000
002000
002000
002000
002000
002000
002000
002000
002000
002000
002000
002000
002000
ENDCHAR
STARTCHAR 0165
ENCODING 357
SWIDTH 385 0
DWIDTH 15 0
BBX 12 29 1 1
BITMAP
0080
0080
0080
0080
0880
0800
0800
0800
0800
FFE0
0800
0800
0800
0800
0800
0800
0800
0800
0800
0800
0800
0800
0800
0800
0800
0800
0800
0400
03F0
ENDCHAR
STARTCHAR 0166
ENCODING 358
SWIDTH 540 0
DWIDTH 21 0
BBX 21 27 0 0
BITMAP
FFFFF8
002000
002000
002000
002000
002000
002000
002000
002000
002000
002000
002000
002000
0FFFC0
002000
002000
002000
002000
002000
002000
002000
002000
002000
002000
002000
002000
002000
ENDCHAR
STARTCHAR 0167
ENCODING 359
SWIDTH 385 0
DWIDTH 15 0
BBX 13 25 1 0
BITMAP
0800
0800
0800
0800
0800
FFF0
0800
0800
0800
0800
0800
0800
0800
7FE0
0800
0800
0800
0800
0800
0800
0800
0800
0800
0408
03F0
ENDCHAR
STARTCHAR 0168
ENCODING 360
SWIDTH 771 0
DWIDTH 30 0
BBX 21 33 5 0
BITMAP
03C100
042200
041E00
000000
000000
000000
800008
800008
800008
800008
800008
800008
800008
800008
800008
800008
800008
800008
800008
800008
800008
800008
800008
800008
800008
800008
800010
400010
400020
200020
100040
0C0180
03FE00
ENDCHAR
STARTCHAR 0169
ENCODING 361
SWIDTH 642 0
DWIDTH 25 0
BBX 17 28 4 0
BITMAP
020000
0D8400
084400
103800
000000
000000
000000
000000
800080
800080
800080
800080
800080
800080
800080
800080
800080
800080
800080
800080
800080
800080
800080
400180
400180
200280
100C80
0FF080
ENDCHAR
STARTCHAR 016A
ENCODING 362
SWIDTH 771 0
DWIDTH 30 0
BBX 21 32 5 0
BITMAP
07FF00
000000
000000
000000
000000
800008
800008
800008
800008
800008
800008
800008
800008
800008
800008
800008
800008
800008
800008
800008
800008
800008
800008
800008
800008
800010
400010
400020
200020
100040
0C0180
03FE00
ENDCHAR
STARTCHAR 016B
ENCODING 363
SWIDTH 642 0
DWIDTH 25 0
BBX 17 26 4 0
BITMAP
1FFC00
000000
000000
000000
000000
000000
800080
800080
800080
800080
800080
800080
800080
800080
800080
800080
800080
800080
800080
800080
800080
400180
400180
200280
100C80
0FF080
ENDCHAR
STARTCHAR 016C
ENCODING 364
SWIDTH 771 0
DWIDTH 30 0
BBX 21 34 5 0
BITMAP
040100
040200
020200
010400
00F800
000000
000000
800008
800008
800008
800008
800008
800008
800008
800008
800008
800008
800008
800008
800008
800008
800008
800008
800008
800008
800008
800008
800010
400010
400020
200020
100040
0C0180
03FE00
ENDCHAR
STARTCHAR 016D
ENCODING 365
SWIDTH 642 0
DWIDTH 25 0
BBX 17 28 4 0
BITMAP
000400
080400
080800
061000
016000
000000
000000
000000
800080
800080
800080
800080
800080
800080
800080
800080
800080
800080
800080
800080
800080
800080
800080
400180
400180
200280
100C80
0FF080
ENDCHAR
STARTCHAR 016E
ENCODING 366
SWIDTH 771 0
DWIDTH 30 0
BBX 21 37 5 0
BITMAP
00F800
010400
010400
010400
010400
008800
002000
000000
000000
000000
800008
800008
800008
800008
800008
800008
800008
800008
800008
800008
800008
800008
800008
800008
800008
800008
800008
800008
800008
800008
800010
400010
400020
200020
100040
0C0180
03FE00
ENDCHAR
STARTCHAR 016F
ENCODING 367
SWIDTH 642 0
DWIDTH 25 0
BBX 17 30 4 0
BITMAP
03E000
021000
041000
041000
041000
023000
00C000
000000
000000
000000
800080
800080
800080
800080
800080
800080
800080
800080
800080
800080
800080
800080
800080
800080
800080
400180
400180
200280
100C80
0FF080
ENDCHAR
STARTCHAR 0170
ENCODING 368
SWIDTH 771 0
DWIDTH 30 0
BBX 21 34 5 0
BITMAP
001840
003080
004100
008200
010400
000000
000000
800008
800008
800008
800008
800008
800008
800008
800008
800008
800008
800008
800008
800008
800008
800008
800008
800008
800008
800008
800008
800010
400010
400020
200020
100040
0C0180
03FE00
ENDCHAR
STARTCHAR 0171
ENCODING 369
SWIDTH 642 0
DWIDTH 25 0
BBX 17 28 4 0
BITMAP
006100
00C200
018400
030800
001000
000000
000000
000000
800080
800080
800080
800080
800080
800080
800080
800080
800080
800080
800080
800080
800080
800080
800080
400180
400180
200280
100C80
0FF080
ENDCHAR
STARTCHAR 0172
ENCODING 370
SWIDTH 771 0
DWIDTH 30 0
BBX 21 35 5 -8
BITMAP
800008
800008
800008
800008
800008
800008
800008
800008
800008
800008
800008
800008
800008
800008
800008
800008
800008
800008
800008
800008
800010
400010
400020
200020
100040
0C0180
03FE00
003000
004000
008000
010000
010000
010000
010000
00F800
ENDCHAR
STARTCHAR 0173
ENCODING 371
SWIDTH 642 0
DWIDTH 25 0
BBX 18 28 4 -8
BITMAP
800080
800080
800080
800080
800080
800080
800080
800080
800080
800080
800080
800080
800080
800080
800080
400180
400180
200280
100C80
0FF080
000100
000600
000800
000800
001000
001000
000800
0007C0
ENDCHAR
STARTCHAR 0174
ENCODING 372
SWIDTH 1080 0
DWIDTH 42 0
BBX 38 34 2 0
BITMAP
0000300000
0000480000
0000840000
0001020000
0002010000
0000000000
0000000000
8000300004
8000300004
4000500008
4000480008
4000480008
2000880010
2000840010
2000840010
1001040020
1001020020
1001020020
0802020040
0802010040
0802010040
0404008080
0404008080
0404008080
0208004100
0208004100
0210004100
0110002200
0110002200
0120002400
00A0001400
00A0001400
00C0001800
0040000800
ENDCHAR
STARTCHAR 0175
ENCODING 373
SWIDTH 822 0
DWIDTH 32 0
BBX 32 28 0 0
BITMAP
00018000
00024000
00043000
00080800
00100000
00000000
00000000
00000000
80008001
40018001
40014002
20024002
20024004
20022004
10042004
10041008
08081008
08081010
08080810
04100810
04100420
04200420
02200420
02200240
01400240
01400280
01800180
00800180
ENDCHAR
STARTCHAR 0176
ENCODING 374
SWIDTH 591 0
DWIDTH 23 0
BBX 22 34 1 0
BITMAP
003000
004800
008400
010200
020100
000000
000000
800004
800008
400008
200010
200020
100020
100040
080040
040080
040100
020100
010200
010200
008400
008800
004800
003000
002000
002000
002000
002000
002000
002000
002000
002000
002000
002000
ENDCHAR
STARTCHAR 0177
ENCODING 375
SWIDTH 488 0
DWIDTH 19 0
BBX 20 36 -1 -8
BITMAP
006000
009000
010C00
020200
040000
000000
000000
000000
400010
200010
200020
100020
100040
080040
080040
040080
040080
020100
020100
020200
010200
010400
008400
008800
004800
005000
003000
003000
002000
002000
004000
004000
008000
818000
C30000
380000
ENDCHAR
STARTCHAR 0178
ENCODING 376
SWIDTH 591 0
DWIDTH 23 0
BBX 22 33 1 0
BITMAP
010600
018600
000000
000000
000000
000000
800004
800008
400008
200010
200020
100020
100040
080040
040080
040100
020100
010200
010200
008400
008800
004800
003000
002000
002000
002000
002000
002000
002000
002000
002000
002000
002000
ENDCHAR
STARTCHAR 0179
ENCODING 377
SWIDTH 617 0
DWIDTH 24 0
BBX 21 34 2 0
BITMAP
000300
000400
001800
003000
004000
000000
000000
FFFFF8
000010
000020
000020
000040
000080
000100
000200
000200
000400
000800
001000
001000
002000
004000
008000
008000
010000
020000
040000
080000
080000
100000
200000
400000
400000
FFFFF8
ENDCHAR
STARTCHAR 017A
ENCODING 378
SWIDTH 488 0
DWIDTH 19 0
BBX 15 28 2 0
BITMAP
0010
0060
00C0
0100
0200
0000
0000
0000
FFFE
0004
0004
0008
0010
0020
0020
0040
0080
0100
0200
0200
0400
0800
1000
1000
2000
4000
8000
FFFE
ENDCHAR
STARTCHAR 017B
ENCODING 379
SWIDTH 617 0
DWIDTH 24 0
BBX 21 33 2 0
BITMAP
002000
003000
000000
000000
000000
000000
FFFFF8
000010
000020
000020
000040
000080
000100
000200
000200
000400
000800
001000
001000
002000
004000
008000
008000
010000
020000
040000
080000
080000
100000
200000
400000
400000
FFFFF8
ENDCHAR
STARTCHAR 017C
ENCODING 380
SWIDTH 488 0
DWIDTH 19 0
BBX 15 27 2 0
BITMAP
0100
0100
0000
0000
0000
0000
0000
FFFE
0004
0004
0008
0010
0020
0020
0040
0080
0100
0200
0200
0400
0800
1000
1000
2000
4000
8000
FFFE
ENDCHAR
STARTCHAR 017D
ENCODING 381
SWIDTH 617 0
DWIDTH 24 0
BBX 21 34 2 0
BITMAP
060100
010600
008C00
005000
002000
000000
000000
FFFFF8
000010
000020
000020
000040
000080
000100
000200
000200
000400
000800
001000
001000
002000
004000
008000
008000
010000
020000
040000
080000
080000
100000
200000
400000
400000
FFFFF8
ENDCHAR
STARTCHAR 017E
ENCODING 382
SWIDTH 488 0
DWIDTH 19 0
BBX 15 28 2 0
BITMAP
1010
0820
0440
0280
0100
0000
0000
0000
FFFE
0004
0004
0008
0010
0020
0020
0040
0080
0100
0200
0200
0400
0800
1000
1000
2000
4000
8000
FFFE
ENDCHAR
STARTCHAR 017F
ENCODING 383
SWIDTH 257 0
DWIDTH 10 0
BBX 13 29 1 0
BITMAP
01F0
0608
0400
0800
0800
0800
0800
0800
0800
F800
0800
0800
0800
0800
0800
0800
0800
0800
0800
0800
0800
0800
0800
0800
0800
0800
0800
0800
0800
ENDCHAR
STARTCHAR 018F
ENCODING 399
SWIDTH 797 0
DWIDTH 31 0
BBX 27 27 2 0
BITMAP
00FFE000
03001800
04000400
08000200
00000100
00000080
00000040
00000040
00000020
00000020
00000020
00000020
00000020
FFFFFFE0
80000020
80000020
80000020
40000020
40000040
40000040
20000080
10000080
18000100
0C000200
02000C00
01803000
007FC000
ENDCHAR
STARTCHAR 0192
ENCODING 402
SWIDTH 411 0
DWIDTH 16 0
BBX 21 37 -3 -8
BITMAP
0003E0
000418
000800
000800
001000
001000
001000
001000
001000
01FFC0
002000
002000
002000
002000
002000
002000
002000
002000
002000
004000
004000
004000
004000
004000
004000
004000
004000
008000
008000
008000
008000
008000
008000
010000
010000
820000
540000
ENDCHAR
STARTCHAR 01A0
ENCODING 416
SWIDTH 822 0
DWIDTH 32 0
BBX 28 33 2 0
BITMAP
00000020
00000020
00000020
00000020
00000020
00000020
007FFFC0
01800800
02000600
0C000100
18000080
10000040
20000040
40000020
40000020
40000010
80000010
80000010
80000010
80000010
80000010
80000010
80000010
40000010
40000020
20000020
20000040
10000040
08000080
04000100
02000600
01801800
007FE000
ENDCHAR
STARTCHAR 01A1
ENCODING 417
SWIDTH 591 0
DWIDTH 23 0
BBX 20 26 2 0
BITMAP
000020
000020
000020
000020
000020
000040
03FF80
0C0200
100180
200040
400040
400020
800020
800020
800010
800010
800010
800010
800020
800020
400020
400040
200080
100180
0C0200
03FC00
ENDCHAR
STARTCHAR 01AF
ENCODING 431
SWIDTH 771 0
DWIDTH 30 0
BBX 25 33 5 0
BITMAP
00000100
00000100
00000080
00000080
00000100
00000100
80000E00
80000800
80000800
80000800
80000800
80000800
80000800
80000800
80000800
80000800
80000800
80000800
80000800
80000800
80000800
80000800
80000800
80000800
80000800
80000800
80001000
40001000
40002000
20002000
10004000
0C018000
03FE0000
ENDCHAR
STARTCHAR 01B0
ENCODING 432
SWIDTH 642 0
DWIDTH 25 0
BBX 20 26 4 0
BITMAP
000010
000010
000010
000010
000010
000010
800060
800080
800080
800080
800080
800080
800080
800080
800080
800080
800080
800080
800080
800080
800080
400180
400180
200280
100C80
0FF080
ENDCHAR
STARTCHAR 01B7
ENCODING 439
SWIDTH 591 0
DWIDTH 23 0
BBX 19 27 2 0
BITMAP
FFFFC0
000080
000100
000200
000400
000400
000800
001000
002000
004000
008000
008000
01F800
000600
000180
000040
000040
000040
000020
000020
000020
000040
000040
800040
400080
300300
0FFC00
ENDCHAR
STARTCHAR 01C4
ENCODING 452
SWIDTH 1440 0
DWIDTH 56 0
BBX 50 34 5 0
BITMAP
00000000201000
00000000102000
000000000C4000
00000000068000
00000000030000
00000000000000
00000000000000
FFFF0007FFFF80
8000C000000080
80003000000100
80000800000200
80000400000400
80000400000400
80000200000800
80000100001000
80000100002000
80000100004000
80000080004000
80000080008000
80000080010000
80000080020000
80000080020000
80000080040000
80000080080000
80000100100000
80000100100000
80000200200000
80000200400000
80000400800000
80000801800000
80001001000000
80002002000000
80008004000000
FFFF000FFFFFC0
ENDCHAR
STARTCHAR 01C5
ENCODING 453
SWIDTH 1311 0
DWIDTH 51 0
BBX 44 28 5 0
BITMAP
0000000080C0
FFFF00004100
8000C0002200
800030001400
800008000800
800004000000
800004000000
800002000000
80000107FFF0
800001000020
800001000020
800000800040
800000800080
800000800100
800000800100
800000800200
800000800400
800000800800
800001000800
800001001000
800002002000
800002004000
800004004000
800008008000
800010010000
800020020000
800080020000
FFFF0007FFF0
ENDCHAR
STARTCHAR 01C6
ENCODING 454
SWIDTH 1182 0
DWIDTH 46 0
BBX 41 29 2 0
BITMAP
000010000000
000010040200
000010020C00
000010011000
00001000A000
000010004000
000010000000
000010000000
000010000000
03FC103FFF80
0C0210000100
100190000100
200090000200
400050000400
400030000800
800030000800
800010001000
800010002000
800010004000
800010004000
800010008000
800010010000
800030020000
400030020000
400050040000
200090080000
100190100000
0C0210100000
03FC103FFF80
ENDCHAR
STARTCHAR 01C7
ENCODING 455
SWIDTH 1054 0
DWIDTH 41 0
BBX 31 27 5 0
BITMAP
80000FFE
80000002
80000002
80000002
80000002
80000002
80000002
80000002
80000002
80000002
80000002
80000002
80000002
80000002
80000002
80000002
80000002
80000002
80000002
80000002
80000002
80000002
80000002
80002002
80001004
80000808
FFFF87F0
ENDCHAR
STARTCHAR 01C8
ENCODING 456
SWIDTH 822 0
DWIDTH 32 0
BBX 24 36 5 -8
BITMAP
000002
800003
800000
800000
800000
800000
800000
800000
800002
800002
800002
800002
800002
800002
800002
800002
800002
800002
800002
800002
800002
800002
800002
800002
800002
800002
800002
FFFF82
000002
000002
000002
000002
000002
000004
00030C
0000E0
ENDCHAR
STARTCHAR 01C9
ENCODING 457
SWIDTH 488 0
DWIDTH 19 0
BBX 12 37 4 -8
BITMAP
8000
8020
8030
8000
8000
8000
8000
8000
8000
8020
8020
8020
8020
8020
8020
8020
8020
8020
8020
8020
8020
8020
8020
8020
8020
8020
8020
8020
8020
0020
0020
0020
0020
0020
0020
10C0
0E00
ENDCHAR
STARTCHAR 01CA
ENCODING 458
SWIDTH 1285 0
DWIDTH 50 0
BBX 40 27 5 0
BITMAP
80000407FF
C000040001
A000040001
9000040001
9000040001
8800040001
8400040001
8200040001
8100040001
8100040001
8080040001
8040040001
8020040001
8020040001
8010040001
8008040001
8004040001
8002040001
8002040001
8001040001
8000840001
8000440001
8000440001
8000241001
8000140802
80000C0404
80000403F8
ENDCHAR
STARTCHAR 01CB
ENCODING 459
SWIDTH 1054 0
DWIDTH 41 0
BBX 33 36 5 -8
BITMAP
0000000100
8000040180
C000040000
A000040000
9000040000
9000040000
8800040000
8400040000
8200040100
8100040100
8100040100
8080040100
8040040100
8020040100
8020040100
8010040100
8008040100
8004040100
8002040100
8002040100
8001040100
8000840100
8000440100
8000440100
8000240100
8000140100
80000C0100
8000040100
0000000100
0000000100
0000000100
0000000100
0000000100
0000000100
0000008600
0000007000
ENDCHAR
STARTCHAR 01CC
ENCODING 460
SWIDTH 900 0
DWIDTH 35 0
BBX 28 35 4 -7
BITMAP
00000030
00000000
00000000
00000000
00000000
00000000
00000000
83F80020
8C060020
90010020
A0008020
C0008020
C0008020
C0004020
80004020
80004020
80004020
80004020
80004020
80004020
80004020
80004020
80004020
80004020
80004020
80004020
80004020
00000020
00000020
00000020
00000020
00000020
00000020
00001040
00000B80
ENDCHAR
STARTCHAR 01CD
ENCODING 461
SWIDTH 668 0
DWIDTH 26 0
BBX 26 34 0 0
BITMAP
00806000
00608000
00310000
000A0000
00040000
00000000
00000000
00040000
000A0000
000A0000
00130000
00110000
00210000
00208000
00408000
00404000
00804000
00802000
01002000
01001000
01001000
02000800
02000800
04000400
04000400
0FFFFC00
08000200
10000200
10000100
20000100
20000080
40000080
40000040
80000040
ENDCHAR
STARTCHAR 01CE
ENCODING 462
SWIDTH 565 0
DWIDTH 22 0
BBX 15 28 3 0
BITMAP
1018
0820
0440
0280
0100
0000
0000
0000
0FF0
3008
C004
0004
0002
0002
0002
0002
0002
1FFE
6002
8002
8002
8002
8002
8002
8006
800A
6012
1FE2
ENDCHAR
STARTCHAR 01D3
ENCODING 467
SWIDTH 771 0
DWIDTH 30 0
BBX 21 34 5 0
BITMAP
040300
030400
008800
005000
002000
000000
000000
800008
800008
800008
800008
800008
800008
800008
800008
800008
800008
800008
800008
800008
800008
800008
800008
800008
800008
800008
800008
800010
400010
400020
200020
100040
0C0180
03FE00
ENDCHAR
STARTCHAR 01D4
ENCODING 468
SWIDTH 642 0
DWIDTH 25 0
BBX 17 28 4 0
BITMAP
080400
041800
023000
01C000
000000
000000
000000
000000
800080
800080
800080
800080
800080
800080
800080
800080
800080
800080
800080
800080
800080
800080
800080
400180
400180
200280
100C80
0FF080
ENDCHAR
STARTCHAR 01E4
ENCODING 484
SWIDTH 797 0
DWIDTH 31 0
BBX 28 27 2 0
BITMAP
007FF000
01800C00
02000200
0C000000
18000000
10000000
20000000
40000000
40000000
40000000
80000000
80000000
80000000
80000000
80000100
80000100
80000100
40000100
4001FFF0
20000100
20000100
10000100
08000100
04000100
02000600
01801800
007FE000
ENDCHAR
STARTCHAR 01E5
ENCODING 485
SWIDTH 668 0
DWIDTH 26 0
BBX 22 28 2 -8
BITMAP
03FC10
0C0310
100090
200050
400050
400030
800010
800010
800010
800010
800010
800010
800010
400030
400030
200050
100090
080110
079E10
006010
000010
000010
003FFC
000020
200040
180080
060300
017C00
ENDCHAR
STARTCHAR 01E6
ENCODING 486
SWIDTH 771 0
DWIDTH 30 0
BBX 24 34 2 0
BITMAP
00C020
002040
001180
000A00
000400
000000
000000
007FF0
01800C
020002
0C0000
180000
100000
200000
400000
400000
400000
800000
800000
800000
800000
800001
800001
800001
400001
400001
200001
200001
100001
080001
040001
020006
018018
007FE0
ENDCHAR
STARTCHAR 01E7
ENCODING 487
SWIDTH 668 0
DWIDTH 26 0
BBX 20 36 2 -8
BITMAP
040200
030400
008800
005000
002000
000000
000000
000000
03FC10
0C0310
100090
200050
400050
400030
800010
800010
800010
800010
800010
800010
800010
400030
400030
200050
100090
080110
079E10
006010
000010
000010
000020
000020
200040
180080
060300
017C00
ENDCHAR
STARTCHAR 01E8
ENCODING 488
SWIDTH 668 0
DWIDTH 26 0
BBX 21 34 5 0
BITMAP
080600
060800
031000
00A000
004000
000000
000000
800010
800020
800040
800080
800100
800200
800400
800800
801000
802000
804000
808000
818000
828000
844000
882000
901000
A00800
C00400
800200
800100
800100
800080
800040
800020
800010
800008
ENDCHAR
STARTCHAR 01E9
ENCODING 489
SWIDTH 565 0
DWIDTH 22 0
BBX 21 37 0 0
BITMAP
804000
408000
210000
160000
0C0000
000000
000000
000000
080000
080000
080000
080000
080000
080000
080000
080000
080000
080010
080020
080040
080180
080300
080400
080800
081000
083000
084800
088400
090200
0A0300
0C0100
080080
080040
080020
080020
080010
080008
ENDCHAR
STARTCHAR 01EA
ENCODING 490
SWIDTH 822 0
DWIDTH 32 0
BBX 28 35 2 -8
BITMAP
007FE000
01801800
02000600
0C000100
10000080
10000040
20000040
40000020
40000020
40000010
80000010
80000010
80000010
80000010
80000010
80000010
80000010
40000010
40000020
20000020
20000040
10000040
08000080
04000100
02000600
01801800
007FC000
00020000
000C0000
00100000
00100000
00200000
00200000
00100000
000F8000
ENDCHAR
STARTCHAR 01EB
ENCODING 491
SWIDTH 591 0
DWIDTH 23 0
BBX 20 28 2 -8
BITMAP
03FC00
0C0300
100080
200040
400040
400020
800020
800020
800010
800010
800010
800010
800020
800020
400020
400040
2000C0
100180
0C0200
03FC00
003000
004000
008000
008000
010000
010000
008000
007C00
ENDCHAR
STARTCHAR 01EE
ENCODING 494
SWIDTH 591 0
DWIDTH 23 0
BBX 19 34 2 0
BITMAP
080400
040800
031000
01A000
00C000
000000
000000
FFFFC0
000080
000100
000200
000400
000400
000800
001000
002000
004000
008000
008000
01F800
000600
000180
000040
000040
000040
000020
000020
000020
000040
000040
800040
400080
300300
0FFC00
ENDCHAR
STARTCHAR 01EF
ENCODING 495
SWIDTH 462 0
DWIDTH 18 0
BBX 18 36 -1 -8
BITMAP
080400
060800
011000
00A000
004000
000000
000000
000000
7FFF80
000080
000100
000200
000400
000400
000800
001000
002000
002000
004000
008000
01F000
000E00
000100
000080
000040
000040
000040
000040
000040
000040
000040
800040
400080
200100
1C0600
03F800
ENDCHAR
STARTCHAR 01FA
ENCODING 506
SWIDTH 668 0
DWIDTH 26 0
BBX 26 40 0 0
BITMAP
00002000
00006000
0000C000
001F0000
00208000
00208000
00208000
00208000
00110000
00060000
00000000
00000000
00000000
00040000
000A0000
000A0000
00130000
00110000
00210000
00208000
00408000
00404000
00804000
00802000
01002000
01001000
01001000
02000800
02000800
04000400
04000400
0FFFFC00
08000200
10000200
10000100
20000100
20000080
40000080
40000040
80000040
ENDCHAR
STARTCHAR 01FB
ENCODING 507
SWIDTH 565 0
DWIDTH 22 0
BBX 15 32 3 1
BITMAP
0008
0010
07E0
0820
0820
0820
0820
0440
0180
0000
0000
0000
0FF0
3008
C004
0004
0002
0002
0002
0002
0002
1FFE
6002
8002
8002
8002
8002
8002
8006
800A
6012
1FE2
ENDCHAR
STARTCHAR 01FC
ENCODING 508
SWIDTH 1002 0
DWIDTH 39 0
BBX 35 34 1 0
BITMAP
0000060000
0000080000
0000100000
0000600000
0000800000
0000000000
0000000000
0000FFFFE0
0001400000
0001400000
0002400000
0002400000
0004400000
0008400000
0008400000
0010400000
0020400000
0020400000
0040400000
0080400000
00807FFF80
0100400000
0100400000
0200400000
0400400000
07FFC00000
0800400000
1000400000
1000400000
2000400000
4000400000
4000400000
8000400000
80007FFFE0
ENDCHAR
STARTCHAR 01FD
ENCODING 509
SWIDTH 977 0
DWIDTH 38 0
BBX 33 28 3 0
BITMAP
0000200000
0000400000
0001800000
0002000000
0000000000
0000000000
0000000000
0000000000
0FF00FE000
3008301800
C004400400
0004800200
0003800100
0003000100
0003000080
0002000080
0002000080
1FFFFFFF80
6002000000
8002000000
8002000000
8003000000
8003000000
8002800000
8004400000
8008600200
6010100C00
1FE00FF000
ENDCHAR
STARTCHAR 01FE
ENCODING 510
SWIDTH 822 0
DWIDTH 32 0
BBX 28 37 2 -3
BITMAP
00002000
0000C000
00018000
00020000
00040040
00000040
00000080
007FE100
01801A00
02000600
0C000500
10000880
10001040
20001040
40002020
40004020
40004010
80008010
80010010
80020010
80020010
80040010
80080010
80100010
40100010
40200020
20400020
20400040
10800040
09000080
06000100
02000600
05801800
087FE000
10000000
10000000
20000000
ENDCHAR
STARTCHAR 01FF
ENCODING 511
SWIDTH 591 0
DWIDTH 23 0
BBX 20 31 2 -3
BITMAP
000600
000800
003000
004000
000000
000020
000040
000080
03FC80
0C0300
100280
200240
400440
400820
800820
801020
802010
802010
804010
808010
808020
810020
420020
420040
240080
180180
0C0200
13FC00
200000
400000
400000
ENDCHAR
STARTCHAR 0200
ENCODING 512
SWIDTH 668 0
DWIDTH 26 0
BBX 26 34 0 0
BITMAP
02180000
010C0000
00860000
00430000
00218000
00000000
00000000
00040000
000A0000
000A0000
00130000
00110000
00210000
00208000
00408000
00404000
00804000
00802000
01002000
01001000
01001000
02000800
02000800
04000400
04000400
0FFFFC00
08000200
10000200
10000100
20000100
20000080
40000080
40000040
80000040
ENDCHAR
STARTCHAR 0201
ENCODING 513
SWIDTH 565 0
DWIDTH 22 0
BBX 15 28 3 0
BITMAP
C200
6100
3080
1840
0000
0000
0000
0000
0FF0
3008
C004
0004
0002
0002
0002
0002
0002
1FFE
6002
8002
8002
8002
8002
8002
8006
800A
6012
1FE2
ENDCHAR
STARTCHAR 0202
ENCODING 514
SWIDTH 668 0
DWIDTH 26 0
BBX 26 34 0 0
BITMAP
001E0000
00218000
00404000
00804000
00802000
00000000
00000000
00040000
000A0000
000A0000
00130000
00110000
00210000
00208000
00408000
00404000
00804000
00802000
01002000
01001000
01001000
02000800
02000800
04000400
04000400
0FFFFC00
08000200
10000200
10000100
20000100
20000080
40000080
40000040
80000040
ENDCHAR
STARTCHAR 0203
ENCODING 515
SWIDTH 565 0
DWIDTH 22 0
BBX 15 28 3 0
BITMAP
07C0
0830
1010
2008
0000
0000
0000
0000
0FF0
3008
C004
0004
0002
0002
0002
0002
0002
1FFE
6002
8002
8002
8002
8002
8002
8006
800A
6012
1FE2
ENDCHAR
STARTCHAR 0204
ENCODING 516
SWIDTH 642 0
DWIDTH 25 0
BBX 18 34 5 0
BITMAP
610000
308000
084000
042000
021000
000000
000000
FFFFC0
800000
800000
800000
800000
800000
800000
800000
800000
800000
800000
800000
800000
FFFF00
800000
800000
800000
800000
800000
800000
800000
800000
800000
800000
800000
800000
FFFFC0
ENDCHAR
STARTCHAR 0205
ENCODING 517
SWIDTH 565 0
DWIDTH 22 0
BBX 19 28 2 0
BITMAP
218000
10C000
082000
041000
020000
000000
000000
000000
03F800
0C0600
100100
200080
400080
400040
800040
800020
800020
FFFFE0
800000
800000
800000
800000
400000
400000
200000
100080
0C0300
03FC00
ENDCHAR
STARTCHAR 0206
ENCODING 518
SWIDTH 642 0
DWIDTH 25 0
BBX 18 34 5 0
BITMAP
01E000
061800
080400
080400
080400
000000
000000
FFFFC0
800000
800000
800000
800000
800000
800000
800000
800000
800000
800000
800000
800000
FFFF00
800000
800000
800000
800000
800000
800000
800000
800000
800000
800000
800000
800000
FFFFC0
ENDCHAR
STARTCHAR 0207
ENCODING 519
SWIDTH 565 0
DWIDTH 22 0
BBX 19 28 2 0
BITMAP
01F000
060800
040400
080400
000000
000000
000000
000000
03F800
0C0600
100100
200080
400080
400040
800040
800020
800020
FFFFE0
800000
800000
800000
800000
400000
400000
200000
100080
0C0300
03FC00
ENDCHAR
STARTCHAR 0208
ENCODING 520
SWIDTH 282 0
DWIDTH 11 0
BBX 11 34 -2 0
BITMAP
8600
4300
2080
1040
0820
0000
0000
0100
0100
0100
0100
0100
0100
0100
0100
0100
0100
0100
0100
0100
0100
0100
0100
0100
0100
0100
0100
0100
0100
0100
0100
0100
0100
0100
ENDCHAR
STARTCHAR 0209
ENCODING 521
SWIDTH 231 0
DWIDTH 9 0
BBX 11 28 -3 0
BITMAP
C200
6100
1080
0840
0020
0000
0000
0000
0100
0100
0100
0100
0100
0100
0100
0100
0100
0100
0100
0100
0100
0100
0100
0100
0100
0100
0100
0100
ENDCHAR
STARTCHAR 020A
ENCODING 522
SWIDTH 282 0
DWIDTH 11 0
BBX 11 34 0 0
BITMAP
0F00
3080
4040
8020
8020
0000
0000
0400
0400
0400
0400
0400
0400
0400
0400
0400
0400
0400
0400
0400
0400
0400
0400
0400
0400
0400
0400
0400
0400
0400
0400
0400
0400
0400
ENDCHAR
STARTCHAR 020B
ENCODING 523
SWIDTH 231 0
DWIDTH 9 0
BBX 8 28 1 0
BITMAP
3C
42
81
81
00
00
00
00
10
10
10
10
10
10
10
10
10
10
10
10
10
10
10
10
10
10
10
10
ENDCHAR
STARTCHAR 020C
ENCODING 524
SWIDTH 822 0
DWIDTH 32 0
BBX 28 34 2 0
BITMAP
01080000
00840000
00420000
00210000
00108000
00000000
00000000
007FE000
01801800
02000600
0C000100
10000080
10000040
20000040
40000020
40000020
40000010
80000010
80000010
80000010
80000010
80000010
80000010
80000010
40000010
40000020
20000020
20000040
10000040
08000080
04000100
02000600
01801800
007FE000
ENDCHAR
STARTCHAR 020D
ENCODING 525
SWIDTH 591 0
DWIDTH 23 0
BBX 20 28 2 0
BITMAP
308000
184000
042000
021000
000800
000000
000000
000000
03FC00
0C0300
100080
200040
400040
400020
800020
800020
800010
800010
800010
800010
800020
800020
400020
400040
200080
100180
0C0200
03FC00
ENDCHAR
STARTCHAR 020E
ENCODING 526
SWIDTH 822 0
DWIDTH 32 0
BBX 28 34 2 0
BITMAP
000F0000
0030C000
00202000
00402000
00400000
00000000
00000000
007FE000
01801800
02000600
0C000100
10000080
10000040
20000040
40000020
40000020
40000010
80000010
80000010
80000010
80000010
80000010
80000010
80000010
40000010
40000020
20000020
20000040
10000040
08000080
04000100
02000600
01801800
007FE000
ENDCHAR
STARTCHAR 020F
ENCODING 527
SWIDTH 591 0
DWIDTH 23 0
BBX 20 28 2 0
BITMAP
01F000
020C00
040200
040200
000000
000000
000000
000000
03FC00
0C0300
100080
200040
400040
400020
800020
800020
800010
800010
800010
800010
800020
800020
400020
400040
200080
100180
0C0200
03FC00
ENDCHAR
STARTCHAR 0210
ENCODING 528
SWIDTH 694 0
DWIDTH 27 0
BBX 20 34 5 0
BITMAP
210000
108000
084000
042000
021000
000000
000000
FFFC00
800300
8000C0
800020
800020
800010
800010
800010
800010
800010
800010
800010
800020
800020
800040
800080
800700
FFEC00
800400
800200
800100
800080
800080
800040
800020
800020
800010
ENDCHAR
STARTCHAR 0211
ENCODING 529
SWIDTH 360 0
DWIDTH 14 0
BBX 12 28 1 0
BITMAP
C200
6100
1080
0840
0020
0000
0000
0000
10F0
1100
1200
1400
1800
1800
1800
1000
1000
1000
1000
1000
1000
1000
1000
1000
1000
1000
1000
1000
ENDCHAR
STARTCHAR 0212
ENCODING 530
SWIDTH 694 0
DWIDTH 27 0
BBX 20 34 5 0
BITMAP
01E000
061800
040400
080400
080000
000000
000000
FFFC00
800300
8000C0
800020
800020
800010
800010
800010
800010
800010
800010
800010
800020
800020
800040
800080
800700
FFEC00
800400
800200
800100
800080
800080
800040
800020
800020
800010
ENDCHAR
STARTCHAR 0213
ENCODING 531
SWIDTH 360 0
DWIDTH 14 0
BBX 10 28 4 0
BITMAP
3E00
4180
8040
8040
0000
0000
0000
0000
8780
8800
9000
A000
C000
C000
C000
8000
8000
8000
8000
8000
8000
8000
8000
8000
8000
8000
8000
8000
ENDCHAR
STARTCHAR 0214
ENCODING 532
SWIDTH 771 0
DWIDTH 30 0
BBX 21 34 5 0
BITMAP
10C000
086000
043000
021800
010400
000000
000000
800008
800008
800008
800008
800008
800008
800008
800008
800008
800008
800008
800008
800008
800008
800008
800008
800008
800008
800008
800008
800010
400010
400020
200020
100040
0C0180
03FE00
ENDCHAR
STARTCHAR 0215
ENCODING 533
SWIDTH 642 0
DWIDTH 25 0
BBX 17 28 4 0
BITMAP
610000
308000
084000
042000
001000
000000
000000
000000
800080
800080
800080
800080
800080
800080
800080
800080
800080
800080
800080
800080
800080
800080
800080
400180
400180
200280
100C80
0FF080
ENDCHAR
STARTCHAR 0216
ENCODING 534
SWIDTH 771 0
DWIDTH 30 0
BBX 21 34 5 0
BITMAP
00F000
010C00
020200
040200
040100
000000
000000
800008
800008
800008
800008
800008
800008
800008
800008
800008
800008
800008
800008
800008
800008
800008
800008
800008
800008
800008
800008
800010
400010
400020
200020
100040
0C0180
03FE00
ENDCHAR
STARTCHAR 0217
ENCODING 535
SWIDTH 642 0
DWIDTH 25 0
BBX 17 28 4 0
BITMAP
03E000
041800
080800
080400
000000
000000
000000
000000
800080
800080
800080
800080
800080
800080
800080
800080
800080
800080
800080
800080
800080
800080
800080
400180
400180
200280
100C80
0FF080
ENDCHAR
STARTCHAR 0218
ENCODING 536
SWIDTH 591 0
DWIDTH 23 0
BBX 19 37 2 -10
BITMAP
07FE00
080180
300040
200000
400000
400000
400000
400000
400000
200000
200000
180000
070000
00F000
000E00
000180
000040
000020
000020
000020
000020
000020
000020
C00040
2000C0
180100
07FE00
000000
000000
000000
000000
000000
006000
002000
002000
002000
004000
ENDCHAR
STARTCHAR 0219
ENCODING 537
SWIDTH 462 0
DWIDTH 18 0
BBX 16 30 1 -10
BITMAP
0FF0
100C
2000
4000
4000
4000
4000
2000
1000
0F00
00F0
000C
0002
0002
0001
0001
0002
C002
3004
0FF8
0000
0000
0000
0000
0000
0180
0180
0080
0100
0100
ENDCHAR
STARTCHAR 021A
ENCODING 538
SWIDTH 540 0
DWIDTH 21 0
BBX 21 37 0 -10
BITMAP
FFFFF8
002000
002000
002000
002000
002000
002000
002000
002000
002000
002000
002000
002000
002000
002000
002000
002000
002000
002000
002000
002000
002000
002000
002000
002000
002000
002000
000000
000000
000000
000000
000000
003000
003000
002000
002000
002000
ENDCHAR
STARTCHAR 021B
ENCODING 539
SWIDTH 385 0
DWIDTH 15 0
BBX 12 35 1 -10
BITMAP
0800
0800
0800
0800
0800
FFE0
0800
0800
0800
0800
0800
0800
0800
0800
0800
0800
0800
0800
0800
0800
0800
0800
0800
0400
03F0
0000
0000
0000
0000
0000
0180
0080
0080
0080
0100
ENDCHAR
STARTCHAR 021E
ENCODING 542
SWIDTH 797 0
DWIDTH 31 0
BBX 22 34 5 0
BITMAP
020100
010200
008400
005800
003000
000000
000000
800004
800004
800004
800004
800004
800004
800004
800004
800004
800004
800004
800004
800004
FFFFFC
800004
800004
800004
800004
800004
800004
800004
800004
800004
800004
800004
800004
800004
ENDCHAR
STARTCHAR 021F
ENCODING 543
SWIDTH 642 0
DWIDTH 25 0
BBX 22 37 0 0
BITMAP
804000
408000
210000
160000
0C0000
000000
000000
000000
080000
080000
080000
080000
080000
080000
080000
080000
080000
083F80
08C060
090010
0A0008
0C0008
0C0008
0C0004
080004
080004
080004
080004
080004
080004
080004
080004
080004
080004
080004
080004
080004
ENDCHAR
STARTCHAR 022A
ENCODING 554
SWIDTH 822 0
DWIDTH 32 0
BBX 28 36 2 0
BITMAP
007FF000
00000000
00000000
00304000
0030C000
00000000
00000000
00000000
00000000
007FE000
01801800
02000600
0C000100
10000080
10000040
20000040
40000020
40000020
40000010
80000010
80000010
80000010
80000010
80000010
80000010
80000010
40000010
40000020
20000020
20000040
10000040
08000080
04000100
02000600
01801800
007FE000
ENDCHAR
STARTCHAR 022B
ENCODING 555
SWIDTH 591 0
DWIDTH 23 0
BBX 20 30 2 0
BITMAP
07FE00
000000
000000
020C00
030C00
000000
000000
000000
000000
000000
03FC00
0C0300
100080
200040
400040
400020
800020
800020
800010
800010
800010
800010
800020
800020
400020
400040
200080
100180
0C0200
03FC00
ENDCHAR
STARTCHAR 022C
ENCODING 556
SWIDTH 822 0
DWIDTH 32 0
BBX 28 36 2 0
BITMAP
007FF000
00000000
00000000
00380000
00462000
0041C000
00000000
00000000
00000000
007FE000
01801800
02000600
0C000100
10000080
10000040
20000040
40000020
40000020
40000010
80000010
80000010
80000010
80000010
80000010
80000010
80000010
40000010
40000020
20000020
20000040
10000040
08000080
04000100
02000600
01801800
007FE000
ENDCHAR
STARTCHAR 022D
ENCODING 557
SWIDTH 591 0
DWIDTH 23 0
BBX 20 30 2 0
BITMAP
07FE00
000000
000000
038200
046200
001C00
000000
000000
000000
000000
03FC00
0C0300
100080
200040
400040
400020
800020
800020
800010
800010
800010
800010
800020
800020
400020
400040
200080
100180
0C0200
03FC00
ENDCHAR
STARTCHAR 0230
ENCODING 560
SWIDTH 822 0
DWIDTH 32 0
BBX 28 36 2 0
BITMAP
007FF000
00000000
00000000
00020000
00060000
00000000
00000000
00000000
00000000
007FE000
01801800
02000600
0C000100
10000080
10000040
20000040
40000020
40000020
40000010
80000010
80000010
80000010
80000010
80000010
80000010
80000010
40000010
40000020
20000020
20000040
10000040
08000080
04000100
02000600
01801800
007FE000
ENDCHAR
STARTCHAR 0231
ENCODING 561
SWIDTH 591 0
DWIDTH 23 0
BBX 20 30 2 0
BITMAP
07FE00
000000
000000
006000
006000
000000
000000
000000
000000
000000
03FC00
0C0300
100080
200040
400040
400020
800020
800020
800010
800010
800010
800010
800020
800020
400020
400040
200080
100180
0C0200
03FC00
ENDCHAR
STARTCHAR 0232
ENCODING 562
SWIDTH 591 0
DWIDTH 23 0
BBX 22 32 1 0
BITMAP
03FF00
000000
000000
000000
000000
800004
800008
400008
200010
200020
100020
100040
080040
040080
040100
020100
010200
010200
008400
008800
004800
003000
002000
002000
002000
002000
002000
002000
002000
002000
002000
002000
ENDCHAR
STARTCHAR 0233
ENCODING 563
SWIDTH 488 0
DWIDTH 19 0
BBX 20 34 -1 -8
BITMAP
07FF00
000000
000000
000000
000000
000000
400010
200010
200020
100020
100040
080040
080040
040080
040080
020100
020100
020200
010200
010400
008400
008800
004800
005000
003000
003000
002000
002000
004000
004000
008000
818000
C30000
380000
ENDCHAR
STARTCHAR 0237
ENCODING 567
SWIDTH 231 0
DWIDTH 9 0
BBX 8 28 -3 -8
BITMAP
01
01
01
01
01
01
01
01
01
01
01
01
01
01
01
01
01
01
01
01
01
01
01
01
01
01
82
5C
ENDCHAR
STARTCHAR 0259
ENCODING 601
SWIDTH 565 0
DWIDTH 22 0
BBX 19 20 2 0
BITMAP
07F800
180600
200100
000080
000080
000040
000040
000040
000020
000020
FFFFE0
800020
800040
800040
400040
400080
200080
100100
0C0600
03F800
ENDCHAR
STARTCHAR 0292
ENCODING 658
SWIDTH 462 0
DWIDTH 18 0
BBX 18 28 -1 -8
BITMAP
7FFF80
000080
000100
000200
000400
000400
000800
001000
002000
002000
004000
008000
01F000
000E00
000100
000080
000040
000040
000040
000040
000040
000040
000040
800040
400080
200100
1C0600
03F800
ENDCHAR
STARTCHAR 02B9
ENCODING 697
SWIDTH 180 0
DWIDTH 7 0
BBX 1 10 3 17
BITMAP
80
80
80
80
80
80
80
80
80
80
ENDCHAR
STARTCHAR 02BA
ENCODING 698
SWIDTH 308 0
DWIDTH 12 0
BBX 7 10 3 17
BITMAP
82
82
82
82
82
82
82
82
82
82
ENDCHAR
STARTCHAR 02BB
ENCODING 699
SWIDTH 231 0
DWIDTH 9 0
BBX 2 7 4 24
BITMAP
40
40
80
80
80
80
C0
ENDCHAR
STARTCHAR 02BC
ENCODING 700
SWIDTH 180 0
DWIDTH 7 0
BBX 2 7 3 22
BITMAP
C0
C0
40
80
80
80
80
ENDCHAR
STARTCHAR 02BE
ENCODING 702
SWIDTH 591 0
DWIDTH 23 0
BBX 3 7 12 23
BITMAP
C0
20
20
20
20
40
80
ENDCHAR
STARTCHAR 02BF
ENCODING 703
SWIDTH 591 0
DWIDTH 23 0
BBX 4 7 8 23
BITMAP
60
80
80
80
80
40
10
ENDCHAR
STARTCHAR 02C6
ENCODING 710
SWIDTH 591 0
DWIDTH 23 0
BBX 9 4 7 24
BITMAP
0C00
3200
6100
8080
ENDCHAR
STARTCHAR 02C7
ENCODING 711
SWIDTH 591 0
DWIDTH 23 0
BBX 10 4 7 24
BITMAP
8040
4180
2200
1C00
ENDCHAR
STARTCHAR 02C8
ENCODING 712
SWIDTH 128 0
DWIDTH 5 0
BBX 1 6 3 20
BITMAP
80
80
80
80
80
80
ENDCHAR
STARTCHAR 02C9
ENCODING 713
SWIDTH 591 0
DWIDTH 23 0
BBX 11 1 6 25
BITMAP
FFE0
ENDCHAR
STARTCHAR 02CA
ENCODING 714
SWIDTH 591 0
DWIDTH 23 0
BBX 5 4 11 24
BITMAP
08
10
60
80
ENDCHAR
STARTCHAR 02CB
ENCODING 715
SWIDTH 591 0
DWIDTH 23 0
BBX 6 4 7 24
BITMAP
80
60
10
0C
ENDCHAR
STARTCHAR 02CC
ENCODING 716
SWIDTH 128 0
DWIDTH 5 0
BBX 1 6 3 -7
BITMAP
80
80
80
80
80
80
ENDCHAR
STARTCHAR 02D8
ENCODING 728
SWIDTH 591 0
DWIDTH 23 0
BBX 10 5 7 23
BITMAP
0040
8040
8080
6300
1400
ENDCHAR
STARTCHAR 02D9
ENCODING 729
SWIDTH 591 0
DWIDTH 23 0
BBX 2 2 11 25
BITMAP
80
C0
ENDCHAR
STARTCHAR 02DA
ENCODING 730
SWIDTH 591 0
DWIDTH 23 0
BBX 7 7 8 23
BITMAP
7C
82
82
82
82
44
18
ENDCHAR
STARTCHAR 02DB
ENCODING 731
SWIDTH 591 0
DWIDTH 23 0
BBX 6 8 6 -7
BITMAP
18
20
40
80
80
80
80
7C
ENDCHAR
STARTCHAR 02DC
ENCODING 732
SWIDTH 591 0
DWIDTH 23 0
BBX 11 3 6 25
BITMAP
7820
8620
81C0
ENDCHAR
STARTCHAR 02DD
ENCODING 733
SWIDTH 591 0
DWIDTH 23 0
BBX 10 4 9 24
BITMAP
1840
3080
6100
8600
ENDCHAR
STARTCHAR 0300
ENCODING 768
SWIDTH 0 0
DWIDTH 0 0
BBX 6 4 7 24
BITMAP
80
60
10
0C
ENDCHAR
STARTCHAR 0301
ENCODING 769
SWIDTH 0 0
DWIDTH 0 0
BBX 5 4 11 24
BITMAP
08
10
60
80
ENDCHAR
STARTCHAR 0302
ENCODING 770
SWIDTH 0 0
DWIDTH 0 0
BBX 9 4 7 24
BITMAP
0C00
3200
6100
8080
ENDCHAR
STARTCHAR 0303
ENCODING 771
SWIDTH 0 0
DWIDTH 0 0
BBX 11 3 6 25
BITMAP
7820
8620
81C0
ENDCHAR
STARTCHAR 0304
ENCODING 772
SWIDTH 0 0
DWIDTH 0 0
BBX 11 1 6 25
BITMAP
FFE0
ENDCHAR
STARTCHAR 0306
ENCODING 774
SWIDTH 0 0
DWIDTH 0 0
BBX 10 5 7 23
BITMAP
0040
8040
8080
6300
1400
ENDCHAR
STARTCHAR 0307
ENCODING 775
SWIDTH 0 0
DWIDTH 0 0
BBX 2 2 11 25
BITMAP
80
C0
ENDCHAR
STARTCHAR 0308
ENCODING 776
SWIDTH 0 0
DWIDTH 0 0
BBX 8 2 8 25
BITMAP
83
83
ENDCHAR
STARTCHAR 0309
ENCODING 777
SWIDTH 0 0
DWIDTH 0 0
BBX 6 6 9 23
BITMAP
70
88
04
04
08
10
ENDCHAR
STARTCHAR 030A
ENCODING 778
SWIDTH 0 0
DWIDTH 0 0
BBX 7 7 8 23
BITMAP
7C
82
82
82
82
44
18
ENDCHAR
STARTCHAR 030B
ENCODING 779
SWIDTH 0 0
DWIDTH 0 0
BBX 10 4 9 24
BITMAP
1840
3080
6100
8600
ENDCHAR
STARTCHAR 030C
ENCODING 780
SWIDTH 0 0
DWIDTH 0 0
BBX 10 4 7 24
BITMAP
8040
4180
2200
1C00
ENDCHAR
STARTCHAR 030F
ENCODING 783
SWIDTH 0 0
DWIDTH 0 0
BBX 10 4 4 24
BITMAP
C200
6100
3080
1840
ENDCHAR
STARTCHAR 0311
ENCODING 785
SWIDTH 0 0
DWIDTH 0 0
BBX 10 4 7 24
BITMAP
3E00
4180
8080
8040
ENDCHAR
STARTCHAR 0312
ENCODING 786
SWIDTH 0 0
DWIDTH 0 0
BBX 2 6 11 23
BITMAP
40
80
80
80
80
C0
ENDCHAR
STARTCHAR 031B
ENCODING 795
SWIDTH 0 0
DWIDTH 0 0
BBX 4 6 11 20
BITMAP
10
10
10
10
20
80
ENDCHAR
STARTCHAR 0323
ENCODING 803
SWIDTH 0 0
DWIDTH 0 0
BBX 2 2 11 -7
BITMAP
C0
80
ENDCHAR
STARTCHAR 0324
ENCODING 804
SWIDTH 0 0
DWIDTH 0 0
BBX 8 2 8 -7
BITMAP
C3
C2
ENDCHAR
STARTCHAR 0326
ENCODING 806
SWIDTH 0 0
DWIDTH 0 0
BBX 2 5 11 -10
BITMAP
C0
C0
80
80
80
ENDCHAR
STARTCHAR 0327
ENCODING 807
SWIDTH 0 0
DWIDTH 0 0
BBX 7 8 8 -8
BITMAP
10
10
18
04
04
02
04
FC
ENDCHAR
STARTCHAR 0328
ENCODING 808
SWIDTH 0 0
DWIDTH 0 0
BBX 6 8 6 -7
BITMAP
18
20
40
80
80
80
80
7C
ENDCHAR
STARTCHAR 032E
ENCODING 814
SWIDTH 0 0
DWIDTH 0 0
BBX 10 5 7 -8
BITMAP
0040
8040
8080
4100
3E00
ENDCHAR
STARTCHAR 0331
ENCODING 817
SWIDTH 0 0
DWIDTH 0 0
BBX 11 1 6 -6
BITMAP
FFE0
ENDCHAR
STARTCHAR 0335
ENCODING 821
SWIDTH 0 0
DWIDTH 0 0
BBX 15 1 4 17
BITMAP
FFFE
ENDCHAR
STARTCHAR 0336
ENCODING 822
SWIDTH 0 0
DWIDTH 0 0
BBX 31 1 0 17
BITMAP
FFFFFFFE
ENDCHAR
STARTCHAR 0337
ENCODING 823
SWIDTH 0 0
DWIDTH 0 0
BBX 8 6 2 12
BITMAP
01
02
04
18
20
C0
ENDCHAR
STARTCHAR 0338
ENCODING 824
SWIDTH 0 0
DWIDTH 0 0
BBX 18 26 3 -3
BITMAP
000040
000080
000100
000100
000200
000400
000400
000800
001000
001000
002000
004000
004000
008000
010000
020000
020000
040000
080000
080000
100000
200000
200000
400000
800000
800000
ENDCHAR
STARTCHAR 0394
ENCODING 916
SWIDTH 668 0
DWIDTH 26 0
BBX 25 27 1 0
BITMAP
00080000
00140000
00140000
00260000
00220000
00420000
00410000
00810000
00808000
01008000
01004000
02004000
02002000
02002000
04001000
04001000
08000800
08000800
10000800
10000400
20000400
20000200
40000200
40000100
80000100
80000080
FFFFFF80
ENDCHAR
STARTCHAR 03A9
ENCODING 937
SWIDTH 900 0
DWIDTH 35 0
BBX 35 27 0 0
BITMAP
0007FE0000
0038018000
0040004000
0080003000
0100001800
0200000800
0400000400
0400000400
0800000200
0800000200
0800000200
0800000100
0800000100
0800000100
0800000100
0800000100
0800000200
0800000200
0800000200
0400000400
0400000400
0200000800
0100001800
0080003000
0040006000
0020008000
FFF801FFE0
ENDCHAR
STARTCHAR 03BC
ENCODING 956
SWIDTH 668 0
DWIDTH 26 0
BBX 18 28 4 -8
BITMAP
800040
800040
800040
800040
800040
800040
800040
800040
800040
800040
800040
800040
800040
8000C0
C000C0
C00140
C00140
A00240
980440
87F840
800000
800000
800000
800000
800000
800000
800000
800000
ENDCHAR
STARTCHAR 03C0
ENCODING 960
SWIDTH 694 0
DWIDTH 27 0
BBX 28 20 0 0
BITMAP
1FFFFFF0
20400800
40400800
80400800
80400800
80400800
80400800
80400800
40800800
00800800
00800800
00800800
00800800
00800800
00800800
00800800
00800800
01000800
01000800
01000800
ENDCHAR
STARTCHAR 0400
ENCODING 1024
SWIDTH 642 0
DWIDTH 25 0
BBX 18 34 5 0
BITMAP
0C0000
020000
010000
00C000
002000
000000
000000
FFFFC0
800000
800000
800000
800000
800000
800000
800000
800000
800000
800000
800000
800000
FFFF00
800000
800000
800000
800000
800000
800000
800000
800000
800000
800000
800000
800000
FFFFC0
ENDCHAR
STARTCHAR 0401
ENCODING 1025
SWIDTH 642 0
DWIDTH 25 0
BBX 18 33 5 0
BITMAP
060800
061800
000000
000000
000000
000000
FFFFC0
800000
800000
800000
800000
800000
800000
800000
800000
800000
800000
800000
800000
FFFF00
800000
800000
800000
800000
800000
800000
800000
800000
800000
800000
800000
800000
FFFFC0
ENDCHAR
STARTCHAR 0402
ENCODING 1026
SWIDTH 797 0
DWIDTH 31 0
BBX 30 27 0 0
BITMAP
FFFFFC00
00200000
00200000
00200000
00200000
00200000
00200000
00200000
00200000
00200000
00200000
0020FF00
00270060
00380030
00200010
00200008
00200008
00200008
00200008
00200004
00200008
00200008
00200008
00200010
00200010
00200060
00203F80
ENDCHAR
STARTCHAR 0403
ENCODING 1027
SWIDTH 540 0
DWIDTH 21 0
BBX 17 34 5 0
BITMAP
000800
003000
004000
008000
030000
000000
000000
FFFF80
800000
800000
800000
800000
800000
800000
800000
800000
800000
800000
800000
800000
800000
800000
800000
800000
800000
800000
800000
800000
800000
800000
800000
800000
800000
800000
ENDCHAR
STARTCHAR 0404
ENCODING 1028
SWIDTH 694 0
DWIDTH 27 0
BBX 23 27 3 0
BITMAP
00FFC0
030030
04000C
080000
100000
200000
400000
400000
800000
800000
800000
800000
800000
FFFF00
800000
800000
800000
800000
800000
400000
400000
200000
100000
080002
04000C
030030
00FFC0
ENDCHAR
STARTCHAR 0405
ENCODING 1029
SWIDTH 591 0
DWIDTH 23 0
BBX 18 27 3 0
BITMAP
0FFC00
100300
200080
400000
800000
800000
800000
800000
800000
400000
200000
100000
0E0000
01E000
001C00
000300
000080
000040
000040
000040
000040
000040
000040
800080
400080
300300
0FFC00
ENDCHAR
STARTCHAR 0406
ENCODING 1030
SWIDTH 282 0
DWIDTH 11 0
BBX 1 27 5 0
BITMAP
80
80
80
80
80
80
80
80
80
80
80
80
80
80
80
80
80
80
80
80
80
80
80
80
80
80
80
ENDCHAR
STARTCHAR 0407
ENCODING 1031
SWIDTH 282 0
DWIDTH 11 0
BBX 9 33 1 0
BITMAP
4100
C180
0000
0000
0000
0000
0800
0800
0800
0800
0800
0800
0800
0800
0800
0800
0800
0800
0800
0800
0800
0800
0800
0800
0800
0800
0800
0800
0800
0800
0800
0800
0800
ENDCHAR
STARTCHAR 0408
ENCODING 1032
SWIDTH 488 0
DWIDTH 19 0
BBX 14 27 1 0
BITMAP
1FFC
0004
0004
0004
0004
0004
0004
0004
0004
0004
0004
0004
0004
0004
0004
0004
0004
0004
0004
0004
0008
0008
0008
8008
4010
2030
1FC0
ENDCHAR
STARTCHAR 0409
ENCODING 1033
SWIDTH 1182 0
DWIDTH 46 0
BBX 44 27 0 0
BITMAP
00FFFF800000
008000800000
008000800000
008000800000
010000800000
010000800000
010000800000
010000800000
010000800000
010000800000
010000FFFC00
010000800380
010000800040
010000800020
010000800020
010000800010
010000800010
010000800010
010000800010
010000800010
020000800010
020000800010
020000800020
040000800020
040000800040
080000800100
F00000FFFE00
ENDCHAR
STARTCHAR 040A
ENCODING 1034
SWIDTH 1182 0
DWIDTH 46 0
BBX 40 27 5 0
BITMAP
8000080000
8000080000
8000080000
8000080000
8000080000
8000080000
8000080000
8000080000
8000080000
8000080000
8000080000
8000080000
FFFFFFFFE0
8000080018
8000080004
8000080002
8000080002
8000080002
8000080001
8000080001
8000080002
8000080002
8000080002
8000080004
800008000C
8000080010
80000FFFE0
ENDCHAR
STARTCHAR 040B
ENCODING 1035
SWIDTH 822 0
DWIDTH 32 0
BBX 29 27 0 0
BITMAP
FFFFFC00
00200000
00200000
00200000
00200000
00200000
00200000
00200000
00200000
00200000
00200000
0020FF80
00270060
00380010
00200010
00200008
00200008
00200008
00200008
00200008
00200008
00200008
00200008
00200008
00200008
00200008
00200008
ENDCHAR
STARTCHAR 040C
ENCODING 1036
SWIDTH 668 0
DWIDTH 26 0
BBX 20 34 5 0
BITMAP
000800
003000
004000
008000
030000
000000
000000
800020
800040
800040
800080
800100
800200
800400
800800
800800
801000
802000
804000
808000
FF8000
804000
802000
801000
800800
800800
800400
800200
800100
800080
800040
800040
800020
800010
ENDCHAR
STARTCHAR 040D
ENCODING 1037
SWIDTH 822 0
DWIDTH 32 0
BBX 22 34 5 0
BITMAP
030000
018000
004000
002000
001800
000000
000000
800004
80000C
800014
800024
800024
800044
800084
800104
800204
800204
800404
800804
801004
802004
802004
804004
808004
810004
810004
820004
840004
880004
900004
900004
A00004
C00004
800004
ENDCHAR
STARTCHAR 040E
ENCODING 1038
SWIDTH 642 0
DWIDTH 25 0
BBX 23 34 1 0
BITMAP
020080
020080
030100
008200
007400
000000
000000
800002
400002
400004
200004
200008
100008
080010
080010
040020
040020
020040
020080
010080
010100
008100
008200
004200
004400
002400
002800
001800
001000
002000
002000
004000
008000
1F0000
ENDCHAR
STARTCHAR 040F
ENCODING 1039
SWIDTH 797 0
DWIDTH 31 0
BBX 21 34 5 -7
BITMAP
800008
800008
800008
800008
800008
800008
800008
800008
800008
800008
800008
800008
800008
800008
800008
800008
800008
800008
800008
800008
800008
800008
800008
800008
800008
800008
FFFFF8
002000
002000
002000
002000
002000
002000
002000
ENDCHAR
STARTCHAR 0410
ENCODING 1040
SWIDTH 694 0
DWIDTH 27 0
BBX 26 27 1 0
BITMAP
000C0000
000C0000
00120000
00120000
00220000
00210000
00410000
00408000
00808000
00804000
01004000
01002000
01002000
02001000
02001000
04000800
04000800
08000400
0FFFFC00
10000400
10000200
20000200
20000100
40000100
40000080
40000080
80000040
ENDCHAR
STARTCHAR 0411
ENCODING 1041
SWIDTH 694 0
DWIDTH 27 0
BBX 20 27 5 0
BITMAP
FFFFE0
800000
800000
800000
800000
800000
800000
800000
800000
800000
800000
800000
FFFF00
8000C0
800020
800010
800010
800010
800010
800010
800010
800010
800010
800020
800040
800080
FFFF00
ENDCHAR
STARTCHAR 0412
ENCODING 1042
SWIDTH 745 0
DWIDTH 29 0
BBX 21 27 5 0
BITMAP
FFFE00
800180
800040
800020
800020
800010
800010
800010
800020
800020
800020
8000C0
800300
FFFF80
800060
800010
800010
800008
800008
800008
800008
800008
800008
800010
800020
800040
FFFF80
ENDCHAR
STARTCHAR 0413
ENCODING 1043
SWIDTH 540 0
DWIDTH 21 0
BBX 17 27 5 0
BITMAP
FFFF80
800000
800000
800000
800000
800000
800000
800000
800000
800000
800000
800000
800000
800000
800000
800000
800000
800000
800000
800000
800000
800000
800000
800000
800000
800000
800000
ENDCHAR
STARTCHAR 0414
ENCODING 1044
SWIDTH 771 0
DWIDTH 30 0
BBX 28 33 0 -6
BITMAP
01FFFF00
01000100
01000100
01000100
01000100
01000100
01000100
01000100
01000100
01000100
01000100
01000100
01000100
01000100
01000100
02000100
02000100
02000100
02000100
02000100
02000100
04000100
04000100
04000100
08000100
08000100
FFFFFFF0
80000010
80000010
80000010
80000010
80000010
80000010
ENDCHAR
STARTCHAR 0415
ENCODING 1045
SWIDTH 642 0
DWIDTH 25 0
BBX 18 27 5 0
BITMAP
FFFFC0
800000
800000
800000
800000
800000
800000
800000
800000
800000
800000
800000
800000
FFFF00
800000
800000
800000
800000
800000
800000
800000
800000
800000
800000
800000
800000
FFFFC0
ENDCHAR
STARTCHAR 0416
ENCODING 1046
SWIDTH 951 0
DWIDTH 37 0
BBX 34 27 2 0
BITMAP
4000800080
4000800080
2000800100
1000800200
1000800200
0800800400
0400800800
0400801000
0200801000
0100802000
0080804000
0080804000
0040808000
007FFF8000
0080808000
0080804000
0100802000
0200801000
0400801000
0400800800
0800800400
1000800200
1000800200
2000800100
4000800080
8000800040
8000800040
ENDCHAR
STARTCHAR 0417
ENCODING 1047
SWIDTH 617 0
DWIDTH 24 0
BBX 19 27 2 1
BITMAP
0FF800
300600
400100
000080
000040
000040
000040
000040
000040
000080
000080
000200
0FFC00
000600
000180
000040
000040
000020
000020
000020
000020
000020
000040
800040
400080
300300
0FFC00
ENDCHAR
STARTCHAR 0418
ENCODING 1048
SWIDTH 822 0
DWIDTH 32 0
BBX 22 27 5 0
BITMAP
800004
80000C
800014
800024
800024
800044
800084
800104
800204
800204
800404
800804
801004
802004
802004
804004
808004
810004
810004
820004
840004
880004
900004
900004
A00004
C00004
800004
ENDCHAR
STARTCHAR 0419
ENCODING 1049
SWIDTH 822 0
DWIDTH 32 0
BBX 22 34 5 0
BITMAP
040080
040100
020100
018600
003800
000000
000000
800004
80000C
800014
800024
800024
800044
800084
800104
800204
800204
800404
800804
801004
802004
802004
804004
808004
810004
810004
820004
840004
880004
900004
900004
A00004
C00004
800004
ENDCHAR
STARTCHAR 041A
ENCODING 1050
SWIDTH 668 0
DWIDTH 26 0
BBX 20 27 5 0
BITMAP
800020
800040
800040
800080
800100
800200
800400
800800
800800
801000
802000
804000
808000
FF8000
804000
802000
801000
800800
800800
800400
800200
800100
800080
800040
800040
800020
800010
ENDCHAR
STARTCHAR 041B
ENCODING 1051
SWIDTH 771 0
DWIDTH 30 0
BBX 25 27 0 0
BITMAP
00FFFF80
00800080
00800080
00800080
01000080
01000080
01000080
01000080
01000080
01000080
01000080
01000080
01000080
01000080
01000080
01000080
01000080
01000080
01000080
01000080
02000080
02000080
02000080
04000080
04000080
08000080
F0000080
ENDCHAR
STARTCHAR 041C
ENCODING 1052
SWIDTH 951 0
DWIDTH 37 0
BBX 27 27 5 0
BITMAP
80000020
C0000020
A0000060
A00000A0
900000A0
90000120
88000120
88000220
84000420
82000420
82000820
81000820
81001020
80801020
80802020
80404020
80204020
80208020
80108020
80110020
80090020
800A0020
80040020
80000020
80000020
80000020
80000020
ENDCHAR
STARTCHAR 041D
ENCODING 1053
SWIDTH 822 0
DWIDTH 32 0
BBX 22 27 5 0
BITMAP
800004
800004
800004
800004
800004
800004
800004
800004
800004
800004
800004
800004
800004
FFFFFC
800004
800004
800004
800004
800004
800004
800004
800004
800004
800004
800004
800004
800004
ENDCHAR
STARTCHAR 041E
ENCODING 1054
SWIDTH 848 0
DWIDTH 33 0
BBX 28 27 3 0
BITMAP
007FE000
03801800
04000400
08000300
10000100
20000080
40000040
40000040
80000020
80000020
80000020
80000020
80000010
80000010
80000010
80000020
80000020
80000020
80000020
40000040
40000040
20000080
10000100
08000200
06000400
01801800
007FE000
ENDCHAR
STARTCHAR 041F
ENCODING 1055
SWIDTH 822 0
DWIDTH 32 0
BBX 22 27 5 0
BITMAP
FFFFFC
800004
800004
800004
800004
800004
800004
800004
800004
800004
800004
800004
800004
800004
800004
800004
800004
800004
800004
800004
800004
800004
800004
800004
800004
800004
800004
ENDCHAR
STARTCHAR 0420
ENCODING 1056
SWIDTH 694 0
DWIDTH 27 0
BBX 20 27 5 0
BITMAP
FFFC00
800300
8000C0
800020
800020
800010
800010
800010
800010
800010
800010
800010
800020
800020
800040
800080
800700
FFF800
800000
800000
800000
800000
800000
800000
800000
800000
800000
ENDCHAR
STARTCHAR 0421
ENCODING 1057
SWIDTH 694 0
DWIDTH 27 0
BBX 23 27 3 0
BITMAP
007FE0
038018
040004
080002
100000
200000
400000
400000
800000
800000
800000
800000
800000
800000
800000
800000
800000
800000
800000
400000
200000
200000
100000
080002
060004
018018
007FE0
ENDCHAR
STARTCHAR 0422
ENCODING 1058
SWIDTH 540 0
DWIDTH 21 0
BBX 21 27 0 0
BITMAP
FFFFF8
002000
002000
002000
002000
002000
002000
002000
002000
002000
002000
002000
002000
002000
002000
002000
002000
002000
002000
002000
002000
002000
002000
002000
002000
002000
002000
ENDCHAR
STARTCHAR 0423
ENCODING 1059
SWIDTH 642 0
DWIDTH 25 0
BBX 23 27 1 0
BITMAP
800002
400002
400004
200004
200008
100008
080010
080010
040020
040020
020040
020080
010080
010100
008100
008200
004200
004400
002400
002800
001800
001000
002000
002000
004000
008000
1F0000
ENDCHAR
STARTCHAR 0424
ENCODING 1060
SWIDTH 874 0
DWIDTH 34 0
BBX 31 29 2 -1
BITMAP
00010000
00010000
00010000
007FFC00
03010300
040100C0
08010020
10010010
20010008
40010004
40010004
80010004
80010004
80010002
80010002
80010002
80010004
40010004
40010004
40010008
20010008
10010010
08010020
060100C0
01810300
007FFC00
00010000
00010000
00010000
ENDCHAR
STARTCHAR 0425
ENCODING 1061
SWIDTH 591 0
DWIDTH 23 0
BBX 20 27 2 0
BITMAP
800020
400020
200040
100080
100100
080100
040200
020400
020400
010800
009000
00A000
006000
006000
009000
011000
010800
020400
040400
040200
080100
100080
200080
200040
400020
800020
800010
ENDCHAR
STARTCHAR 0426
ENCODING 1062
SWIDTH 797 0
DWIDTH 31 0
BBX 25 33 5 -7
BITMAP
80000800
80000800
80000800
80000800
80000800
80000800
80000800
80000800
80000800
80000800
80000800
80000800
80000800
80000800
80000800
80000800
80000800
80000800
80000800
80000800
80000800
80000800
80000800
80000800
80000800
80000800
FFFFFF80
00000080
00000080
00000080
00000080
00000080
00000080
ENDCHAR
STARTCHAR 0427
ENCODING 1063
SWIDTH 720 0
DWIDTH 28 0
BBX 20 27 3 0
BITMAP
800010
800010
800010
800010
800010
800010
800010
800010
800010
800010
800010
800010
800010
400010
200030
1801D0
07FE10
000010
000010
000010
000010
000010
000010
000010
000010
000010
000010
ENDCHAR
STARTCHAR 0428
ENCODING 1064
SWIDTH 1080 0
DWIDTH 42 0
BBX 32 27 5 0
BITMAP
80008001
80008001
80008001
80008001
80008001
80008001
80008001
80008001
80008001
80008001
80008001
80008001
80008001
80008001
80008001
80008001
80008001
80008001
80008001
80008001
80008001
80008001
80008001
80008001
80008001
80008001
FFFFFFFF
ENDCHAR
STARTCHAR 0429
ENCODING 1065
SWIDTH 1105 0
DWIDTH 43 0
BBX 37 33 5 -6
BITMAP
8000800100
8000800100
8000800100
8000800100
8000800100
8000800100
8000800100
8000800100
8000800100
8000800100
8000800100
8000800100
8000800100
8000800100
8000800100
8000800100
8000800100
8000800100
8000800100
8000800100
8000800100
8000800100
8000800100
8000800100
8000800100
8000800100
FFFFFFFFF8
0000000008
0000000008
0000000008
0000000008
0000000008
0000000008
ENDCHAR
STARTCHAR 042A
ENCODING 1066
SWIDTH 797 0
DWIDTH 31 0
BBX 29 27 0 0
BITMAP
FFC00000
00400000
00400000
00400000
00400000
00400000
00400000
00400000
00400000
00400000
007FFE00
004001C0
00400020
00400010
00400008
00400008
00400008
00400008
00400008
00400008
00400008
00400008
00400010
00400010
00400020
004000C0
007FFF00
ENDCHAR
STARTCHAR 042B
ENCODING 1067
SWIDTH 925 0
DWIDTH 36 0
BBX 27 27 5 0
BITMAP
80000020
80000020
80000020
80000020
80000020
80000020
80000020
80000020
80000020
80000020
FFFE0020
80018020
80004020
80002020
80001020
80001020
80001020
80001020
80001020
80001020
80001020
80001020
80002020
80002020
80004020
80018020
FFFE0020
ENDCHAR
STARTCHAR 042C
ENCODING 1068
SWIDTH 694 0
DWIDTH 27 0
BBX 20 27 5 0
BITMAP
800000
800000
800000
800000
800000
800000
800000
800000
800000
800000
FFFE00
800180
800040
800020
800010
800010
800010
800010
800010
800010
800010
800010
800020
800020
800040
800180
FFFE00
ENDCHAR
STARTCHAR 042D
ENCODING 1069
SWIDTH 694 0
DWIDTH 27 0
BBX 23 27 2 0
BITMAP
0FFC00
300300
C000C0
000020
000010
000010
000008
000008
000004
000004
000004
000002
000002
01FFFE
000002
000002
000004
000004
000004
000008
000008
000010
000020
800060
400080
300300
0FF800
ENDCHAR
STARTCHAR 042E
ENCODING 1070
SWIDTH 1080 0
DWIDTH 42 0
BBX 34 27 5 0
BITMAP
8000FFC000
8003003000
8004000800
8008000400
8010000200
8020000100
8060000080
8040000080
8040000080
8080000040
8080000040
8080000040
8080000040
FF80000040
8080000040
8080000040
8080000040
8080000040
8040000080
8040000080
8020000100
8020000100
8010000200
8008000400
8004000800
8003003000
8000FFC000
ENDCHAR
STARTCHAR 042F
ENCODING 1071
SWIDTH 720 0
DWIDTH 28 0
BBX 20 27 3 0
BITMAP
03FFF0
0C0010
100010
200010
400010
400010
800010
800010
800010
800010
800010
800010
400010
400010
200010
100010
080010
07FFF0
020010
040010
040010
080010
100010
100010
200010
400010
800010
ENDCHAR
STARTCHAR 0430
ENCODING 1072
SWIDTH 565 0
DWIDTH 22 0
BBX 15 20 3 0
BITMAP
0FF0
3008
C004
0004
0002
0002
0002
0002
0002
1FFE
6002
8002
8002
8002
8002
8002
8006
800A
6012
1FE2
ENDCHAR
STARTCHAR 0431
ENCODING 1073
SWIDTH 642 0
DWIDTH 25 0
BBX 20 30 3 0
BITMAP
000020
0003C0
003C00
01C000
060000
080000
100000
200000
200000
400000
40F800
470600
880180
900040
A00040
A00020
C00020
C00010
C00010
C00010
C00010
400010
400010
400020
400020
200040
100040
180080
040300
03FC00
ENDCHAR
STARTCHAR 0432
ENCODING 1074
SWIDTH 591 0
DWIDTH 23 0
BBX 15 20 5 0
BITMAP
FFE0
8018
8004
8004
8004
8004
8004
8004
8008
FFF0
8018
8004
8002
8002
8002
8002
8002
8004
8008
FFE0
ENDCHAR
STARTCHAR 0433
ENCODING 1075
SWIDTH 437 0
DWIDTH 17 0
BBX 13 20 5 0
BITMAP
FFF8
8000
8000
8000
8000
8000
8000
8000
8000
8000
8000
8000
8000
8000
8000
8000
8000
8000
8000
8000
ENDCHAR
STARTCHAR 0434
ENCODING 1076
SWIDTH 617 0
DWIDTH 24 0
BBX 22 25 0 -5
BITMAP
03FFE0
020020
020020
020020
020020
020020
040020
040020
040020
040020
040020
040020
040020
040020
040020
080020
080020
080020
100020
FFFFFC
800004
800004
800004
800004
800004
ENDCHAR
STARTCHAR 0435
ENCODING 1077
SWIDTH 591 0
DWIDTH 23 0
BBX 19 20 2 0
BITMAP
03F800
0C0600
100100
200080
200040
400040
400020
800020
800020
FFFFE0
800000
800000
800000
400000
400000
200000
100040
080080
040300
03FC00
ENDCHAR
STARTCHAR 0436
ENCODING 1078
SWIDTH 771 0
DWIDTH 30 0
BBX 28 20 1 0
BITMAP
40020020
20020040
10020040
10020080
08020100
04020100
04020200
02020400
01020800
00FFF800
01020800
01020400
02020600
04020200
08020100
10020080
10020040
20020040
40020020
80020010
ENDCHAR
STARTCHAR 0437
ENCODING 1079
SWIDTH 488 0
DWIDTH 19 0
BBX 15 20 2 0
BITMAP
1FE0
6018
0004
0004
0004
0004
0004
0004
0018
0FE0
0038
0004
0002
0002
0002
0002
0002
8004
4018
3FE0
ENDCHAR
STARTCHAR 0438
ENCODING 1080
SWIDTH 668 0
DWIDTH 26 0
BBX 17 20 5 0
BITMAP
800080
800180
800280
800480
800880
801080
802080
802080
804080
808080
810080
820080
840080
840080
880080
900080
A00080
C00080
800080
800080
ENDCHAR
STARTCHAR 0439
ENCODING 1081
SWIDTH 668 0
DWIDTH 26 0
BBX 17 28 5 0
BITMAP
100800
100800
081000
042000
03C000
000000
000000
000000
800080
800180
800280
800480
800880
801080
802080
802080
804080
808080
810080
820080
840080
840080
880080
900080
A00080
C00080
800080
800080
ENDCHAR
STARTCHAR 043A
ENCODING 1082
SWIDTH 540 0
DWIDTH 21 0
BBX 15 20 5 0
BITMAP
8004
8004
8008
8010
8020
8040
8080
8100
8200
FE00
8200
8100
8080
8040
8020
8010
8010
8008
8004
8002
ENDCHAR
STARTCHAR 043B
ENCODING 1083
SWIDTH 591 0
DWIDTH 23 0
BBX 19 20 0 0
BITMAP
03FFE0
020020
020020
020020
020020
020020
020020
040020
040020
040020
040020
040020
040020
040020
040020
080020
080020
080020
100020
E00020
ENDCHAR
STARTCHAR 043C
ENCODING 1084
SWIDTH 771 0
DWIDTH 30 0
BBX 21 20 5 0
BITMAP
800008
800018
C00028
C00028
A00048
900088
900088
880108
880108
840208
820408
820408
810808
810808
809008
806008
806008
800008
800008
800008
ENDCHAR
STARTCHAR 043D
ENCODING 1085
SWIDTH 642 0
DWIDTH 25 0
BBX 16 20 5 0
BITMAP
8001
8001
8001
8001
8001
8001
8001
8001
8001
FFFF
8001
8001
8001
8001
8001
8001
8001
8001
8001
8001
ENDCHAR
STARTCHAR 043E
ENCODING 1086
SWIDTH 617 0
DWIDTH 24 0
BBX 20 20 2 0
BITMAP
03FC00
040300
180080
200040
200020
400020
400020
800010
800010
800010
800010
800010
800010
400020
400020
200040
100040
180080
040300
03FC00
ENDCHAR
STARTCHAR 043F
ENCODING 1087
SWIDTH 642 0
DWIDTH 25 0
BBX 16 20 5 0
BITMAP
FFFF
8001
8001
8001
8001
8001
8001
8001
8001
8001
8001
8001
8001
8001
8001
8001
8001
8001
8001
8001
ENDCHAR
STARTCHAR 0440
ENCODING 1088
SWIDTH 668 0
DWIDTH 26 0
BBX 19 27 5 -8
BITMAP
83F800
8C0600
900100
A00080
C00040
800040
800020
800020
800020
800020
800020
800020
800020
800020
800040
C00040
A00080
900100
880600
87F800
800000
800000
800000
800000
800000
800000
800000
ENDCHAR
STARTCHAR 0441
ENCODING 1089
SWIDTH 540 0
DWIDTH 21 0
BBX 17 20 2 0
BITMAP
03FC00
040300
180080
200000
200000
400000
400000
800000
800000
800000
800000
800000
800000
400000
400000
200000
100000
180080
040300
03FC00
ENDCHAR
STARTCHAR 0442
ENCODING 1090
SWIDTH 411 0
DWIDTH 16 0
BBX 17 20 0 0
BITMAP
FFFF80
008000
008000
008000
008000
008000
008000
008000
008000
008000
008000
008000
008000
008000
008000
008000
008000
008000
008000
008000
ENDCHAR
STARTCHAR 0443
ENCODING 1091
SWIDTH 514 0
DWIDTH 20 0
BBX 20 28 0 -8
BITMAP
400010
400020
200020
200040
100040
100080
080080
080100
080100
040100
040200
020200
020400
010400
010800
008800
009000
005000
006000
002000
004000
004000
004000
008000
008000
010000
820000
540000
ENDCHAR
STARTCHAR 0444
ENCODING 1092
SWIDTH 720 0
DWIDTH 28 0
BBX 25 37 2 -8
BITMAP
00080000
00080000
00080000
00080000
00080000
00080000
00080000
00080000
00080000
01FFC000
06083000
18080800
30080400
20080200
40080100
40080100
80080100
80080100
80080080
80080080
80080100
80080100
40080100
40080100
20080200
10080400
08080800
06083000
01FFC000
00080000
00080000
00080000
00080000
00080000
00080000
00080000
00080000
ENDCHAR
STARTCHAR 0445
ENCODING 1093
SWIDTH 488 0
DWIDTH 19 0
BBX 17 20 1 0
BITMAP
400100
200200
100200
100400
080800
041000
021000
022000
014000
008000
014000
012000
022000
041000
080800
080400
100400
200200
400100
800080
ENDCHAR
STARTCHAR 0446
ENCODING 1094
SWIDTH 668 0
DWIDTH 26 0
BBX 19 25 5 -5
BITMAP
800100
800100
800100
800100
800100
800100
800100
800100
800100
800100
800100
800100
800100
800100
800100
800100
800100
800100
800100
FFFFE0
000020
000020
000020
000020
000020
ENDCHAR
STARTCHAR 0447
ENCODING 1095
SWIDTH 565 0
DWIDTH 22 0
BBX 16 20 2 0
BITMAP
8001
8001
8001
8001
8001
8001
8001
8001
8001
4001
6001
101F
0BA1
0001
0001
0001
0001
0001
0001
0001
ENDCHAR
STARTCHAR 0448
ENCODING 1096
SWIDTH 900 0
DWIDTH 35 0
BBX 26 20 5 0
BITMAP
80080040
80080040
80080040
80080040
80080040
80080040
80080040
80080040
80080040
80080040
80080040
80080040
80080040
80080040
80080040
80080040
80080040
80080040
80080040
FFFFFFC0
ENDCHAR
STARTCHAR 0449
ENCODING 1097
SWIDTH 900 0
DWIDTH 35 0
BBX 29 25 5 -5
BITMAP
80080040
80080040
80080040
80080040
80080040
80080040
80080040
80080040
80080040
80080040
80080040
80080040
80080040
80080040
80080040
80080040
80080040
80080040
80080040
FFFFFFF8
00000008
00000008
00000008
00000008
00000008
ENDCHAR
STARTCHAR 044A
ENCODING 1098
SWIDTH 565 0
DWIDTH 22 0
BBX 21 20 0 0
BITMAP
FE0000
020000
020000
020000
020000
020000
020000
03FC00
0201C0
020030
020010
020008
020008
020008
020008
020008
020010
020010
020020
03FFC0
ENDCHAR
STARTCHAR 044B
ENCODING 1099
SWIDTH 720 0
DWIDTH 28 0
BBX 19 20 5 0
BITMAP
800020
800020
800020
800020
800020
800020
800020
FA0020
81E020
801820
800420
800420
800420
800420
800420
800420
800420
800820
801020
FFE020
ENDCHAR
STARTCHAR 044C
ENCODING 1100
SWIDTH 514 0
DWIDTH 20 0
BBX 14 20 5 0
BITMAP
8000
8000
8000
8000
8000
8000
8000
FA00
81E0
8018
8004
8004
8004
8004
8004
8004
8004
8008
8010
FFE0
ENDCHAR
STARTCHAR 044D
ENCODING 1101
SWIDTH 540 0
DWIDTH 21 0
BBX 18 20 2 0
BITMAP
1FE000
601800
800400
000200
000100
000080
000080
000080
000080
07FFC0
000040
000080
000080
000080
000080
000100
000200
800400
601800
1FE000
ENDCHAR
STARTCHAR 044E
ENCODING 1102
SWIDTH 822 0
DWIDTH 32 0
BBX 25 20 5 0
BITMAP
800FF000
80300800
80400600
80800200
81000100
81000100
82000080
82000080
82000080
FE000080
82000080
82000080
82000080
81000080
81000100
80800100
80800200
80400400
80300800
800FF000
ENDCHAR
STARTCHAR 044F
ENCODING 1103
SWIDTH 591 0
DWIDTH 23 0
BBX 16 20 3 0
BITMAP
0FFF
3001
4001
8001
8001
8001
8001
8001
8001
8001
4001
3001
0FFF
0801
0801
1001
2001
2001
4001
8001
ENDCHAR
STARTCHAR 0450
ENCODING 1104
SWIDTH 591 0
DWIDTH 23 0
BBX 19 28 2 0
BITMAP
060000
030000
008000
004000
002000
000000
000000
000000
03F800
0C0600
100100
200080
200040
400040
400020
800020
800020
FFFFE0
800000
800000
800000
400000
400000
200000
100040
080080
040300
03FC00
ENDCHAR
STARTCHAR 0451
ENCODING 1105
SWIDTH 591 0
DWIDTH 23 0
BBX 19 27 2 0
BITMAP
020C00
020C00
000000
000000
000000
000000
000000
03F800
0C0600
100100
200080
200040
400040
400020
800020
800020
FFFFE0
800000
800000
800000
400000
400000
200000
100040
080080
040300
03FC00
ENDCHAR
STARTCHAR 0452
ENCODING 1106
SWIDTH 642 0
DWIDTH 25 0
BBX 22 36 0 -7
BITMAP
080000
080000
080000
FFFF00
080000
080000
080000
080000
083FC0
08C020
090010
0A0008
0C0008
040004
040004
080004
080004
080004
080004
080004
080004
080004
080004
080004
080004
080004
080004
080004
000004
000004
000004
000004
000004
000008
000610
0001C0
ENDCHAR
STARTCHAR 0453
ENCODING 1107
SWIDTH 437 0
DWIDTH 17 0
BBX 13 28 5 0
BITMAP
0060
00C0
0100
0200
0400
0000
0000
0000
FFF8
8000
8000
8000
8000
8000
8000
8000
8000
8000
8000
8000
8000
8000
8000
8000
8000
8000
8000
8000
ENDCHAR
STARTCHAR 0454
ENCODING 1108
SWIDTH 540 0
DWIDTH 21 0
BBX 18 20 2 0
BITMAP
01FE00
060180
180040
300000
200000
400000
400000
800000
800000
800000
FFF800
800000
800000
400000
400000
200000
100000
080040
040180
03FE00
ENDCHAR
STARTCHAR 0455
ENCODING 1109
SWIDTH 488 0
DWIDTH 19 0
BBX 16 20 2 0
BITMAP
0FF0
100C
2000
4000
4000
4000
4000
2000
1000
0F00
00F0
000C
0002
0002
0001
0001
0002
C002
3004
0FF8
ENDCHAR
STARTCHAR 0456
ENCODING 1110
SWIDTH 231 0
DWIDTH 9 0
BBX 2 28 4 0
BITMAP
80
C0
00
00
00
00
00
00
80
80
80
80
80
80
80
80
80
80
80
80
80
80
80
80
80
80
80
80
ENDCHAR
STARTCHAR 0457
ENCODING 1111
SWIDTH 231 0
DWIDTH 9 0
BBX 6 27 2 0
BITMAP
8C
CC
00
00
00
00
00
20
20
20
20
20
20
20
20
20
20
20
20
20
20
20
20
20
20
20
20
ENDCHAR
STARTCHAR 0458
ENCODING 1112
SWIDTH 231 0
DWIDTH 9 0
BBX 9 35 -3 -7
BITMAP
0180
0000
0000
0000
0000
0000
0000
0100
0100
0100
0100
0100
0100
0100
0100
0100
0100
0100
0100
0100
0100
0100
0100
0100
0100
0100
0100
0100
0100
0100
0100
0100
0100
8200
5C00
ENDCHAR
STARTCHAR 0459
ENCODING 1113
SWIDTH 874 0
DWIDTH 34 0
BBX 33 20 0 0
BITMAP
03FFE00000
0200200000
0200200000
0200200000
0200200000
0200200000
0200200000
04001F4000
0400203C00
0400200300
0400200080
0400200080
0400200080
0400200080
0400200080
0800200080
0800200080
0800200100
1000200200
E0001FFC00
ENDCHAR
STARTCHAR 045A
ENCODING 1114
SWIDTH 925 0
DWIDTH 36 0
BBX 30 20 5 0
BITMAP
80010000
80010000
80010000
80010000
80010000
80010000
80010000
80010000
80010000
FFFFFFE0
80010010
80010008
80010008
80010004
80010004
80010004
80010008
80010008
80010030
8001FFC0
ENDCHAR
STARTCHAR 045B
ENCODING 1115
SWIDTH 642 0
DWIDTH 25 0
BBX 23 28 -1 1
BITMAP
040000
040000
040000
FFFF80
040000
040000
040000
040000
041FE0
046010
048008
050004
060004
020002
020002
040002
040002
040002
040002
040002
040002
040002
040002
040002
040002
040002
040002
040002
ENDCHAR
STARTCHAR 045C
ENCODING 1116
SWIDTH 540 0
DWIDTH 21 0
BBX 15 28 5 0
BITMAP
0060
0080
0100
0600
0000
0000
0000
0000
8004
8004
8008
8010
8020
8040
8080
8100
8200
FE00
8200
8100
8080
8040
8020
8010
8010
8008
8004
8002
ENDCHAR
STARTCHAR 045D
ENCODING 1117
SWIDTH 668 0
DWIDTH 26 0
BBX 17 28 5 0
BITMAP
180000
040000
020000
018000
000000
000000
000000
000000
800080
800180
800280
800480
800880
801080
802080
802080
804080
808080
810080
820080
840080
840080
880080
900080
A00080
C00080
800080
800080
ENDCHAR
STARTCHAR 045E
ENCODING 1118
SWIDTH 514 0
DWIDTH 20 0
BBX 20 36 0 -8
BITMAP
000200
040200
040400
031800
00A000
000000
000000
000000
400010
400020
200020
200040
100040
100080
080080
080100
080100
040100
040200
020200
020400
010400
010800
008800
009000
005000
006000
002000
004000
004000
004000
008000
008000
010000
820000
540000
ENDCHAR
STARTCHAR 045F
ENCODING 1119
SWIDTH 617 0
DWIDTH 24 0
BBX 15 25 5 -5
BITMAP
8002
8002
8002
8002
8002
8002
8002
8002
8002
8002
8002
8002
8002
8002
8002
8002
8002
8002
8002
FFFE
0100
0100
0100
0100
0100
ENDCHAR
STARTCHAR 0462
ENCODING 1122
SWIDTH 771 0
DWIDTH 30 0
BBX 27 29 1 0
BITMAP
01000000
01000000
01000000
01000000
01000000
01000000
FFFF8000
01000000
01000000
01000000
01000000
01000000
01FFF800
01000300
01000080
01000040
01000020
01000020
01000020
01000020
01000020
01000020
01000020
01000020
01000020
01000040
01000080
01000300
01FFF800
ENDCHAR
STARTCHAR 0463
ENCODING 1123
SWIDTH 540 0
DWIDTH 21 0
BBX 20 28 0 1
BITMAP
040000
040000
040000
040000
040000
040000
040000
FFFC00
040000
040000
040000
040000
040000
040000
040000
03E800
040780
040060
040010
040010
040010
040010
040010
040010
040010
040020
040040
03FF80
ENDCHAR
STARTCHAR 046A
ENCODING 1130
SWIDTH 848 0
DWIDTH 33 0
BBX 31 27 1 0
BITMAP
1FFFFFF0
08000020
04000040
02000080
01000100
00800100
00C00200
00400400
00200800
00101000
00082000
00044000
00028000
003FF800
00C10600
01010100
02010080
04010040
08010020
08010020
10010010
10010010
20010008
20010008
40010004
40010004
80010002
ENDCHAR
STARTCHAR 046B
ENCODING 1131
SWIDTH 617 0
DWIDTH 24 0
BBX 22 20 1 0
BITMAP
3FFFF8
100010
080020
040040
020080
010100
010200
008400
004800
003000
03DF00
0410C0
081020
101020
101010
201010
201008
401008
401004
801004
ENDCHAR
STARTCHAR 0472
ENCODING 1138
SWIDTH 848 0
DWIDTH 33 0
BBX 28 27 3 0
BITMAP
007FE000
03801800
04000400
08000300
10000100
20000080
40000040
40000040
80000020
80000020
80000020
80000020
80000010
FFFFFFF0
80000010
80000020
80000020
80000020
80000020
40000040
40000040
20000080
10000100
08000200
06000400
01801800
007FE000
ENDCHAR
STARTCHAR 0473
ENCODING 1139
SWIDTH 617 0
DWIDTH 24 0
BBX 20 20 2 0
BITMAP
03FC00
040300
180080
200040
200020
400010
400010
800010
800010
800010
FFFFF0
800010
800010
400010
400020
200020
100040
180080
040300
03FC00
ENDCHAR
STARTCHAR 0474
ENCODING 1140
SWIDTH 720 0
DWIDTH 28 0
BBX 27 27 1 1
BITMAP
800003E0
40000400
40000800
40000800
20001000
20001000
10001000
10002000
08002000
08004000
08004000
04004000
04008000
02008000
02008000
02010000
01010000
01010000
00820000
00820000
00440000
00440000
00440000
00280000
00280000
00180000
00100000
ENDCHAR
STARTCHAR 0475
ENCODING 1141
SWIDTH 514 0
DWIDTH 20 0
BBX 20 20 1 0
BITMAP
800070
800080
400100
400100
200200
200200
100200
100400
100400
080800
080800
040800
041000
021000
022000
022000
012000
014000
00C000
00C000
ENDCHAR
STARTCHAR 048A
ENCODING 1162
SWIDTH 822 0
DWIDTH 32 0
BBX 26 40 5 -6
BITMAP
04008000
04010000
02010000
01860000
00380000
00000000
00000000
80000400
80000C00
80001400
80002400
80002400
80004400
80008400
80010400
80020400
80020400
80040400
80080400
80100400
80200400
80200400
80400400
80800400
81000400
81000400
82000400
84000400
88000400
90000400
90000400
A0000400
C0000400
800007C0
00000080
00000080
00000080
00000100
00000100
00000100
ENDCHAR
STARTCHAR 048B
ENCODING 1163
SWIDTH 668 0
DWIDTH 26 0
BBX 20 32 5 -5
BITMAP
100800
100800
081000
042000
03C000
000000
000000
000000
800080
800180
800280
800480
800880
801080
802080
802080
804080
808080
810080
820080
840080
840080
880080
900080
A00080
C00080
800080
8000F0
000010
000020
000020
000020
ENDCHAR
STARTCHAR 048C
ENCODING 1164
SWIDTH 720 0
DWIDTH 28 0
BBX 24 29 2 0
BITMAP
080000
080000
080000
080000
080000
080000
FFFC00
080000
080000
080000
080000
080000
0FFFC0
080038
080004
080002
080001
080001
080001
080001
080001
080001
080001
080001
080002
080002
080004
080018
0FFFE0
ENDCHAR
STARTCHAR 048D
ENCODING 1165
SWIDTH 565 0
DWIDTH 22 0
BBX 19 20 1 0
BITMAP
080000
080000
080000
FFF800
080000
080000
080000
07F000
080F80
080040
080020
080020
080020
080020
080020
080020
080020
080040
080080
07FF00
ENDCHAR
STARTCHAR 048E
ENCODING 1166
SWIDTH 720 0
DWIDTH 28 0
BBX 20 27 5 0
BITMAP
FFFC00
800300
8000C0
800020
800020
800010
800010
800010
800010
804010
802010
801010
800820
800820
800440
800280
800700
FFF900
800080
800040
800020
800020
800000
800000
800000
800000
800000
ENDCHAR
STARTCHAR 048F
ENCODING 1167
SWIDTH 668 0
DWIDTH 26 0
BBX 19 27 5 -8
BITMAP
83F800
8C0600
900100
A00080
C00040
800040
800020
800020
800020
800020
800020
800020
800020
801020
800840
C00840
A00480
900300
880700
87F900
800080
800040
800000
800000
800000
800000
800000
ENDCHAR
STARTCHAR 0490
ENCODING 1168
SWIDTH 540 0
DWIDTH 21 0
BBX 17 33 5 0
BITMAP
000080
000080
000080
000080
000080
000080
FFFF80
800000
800000
800000
800000
800000
800000
800000
800000
800000
800000
800000
800000
800000
800000
800000
800000
800000
800000
800000
800000
800000
800000
800000
800000
800000
800000
ENDCHAR
STARTCHAR 0491
ENCODING 1169
SWIDTH 411 0
DWIDTH 16 0
BBX 11 24 5 0
BITMAP
0020
0020
0020
0020
FFE0
8000
8000
8000
8000
8000
8000
8000
8000
8000
8000
8000
8000
8000
8000
8000
8000
8000
8000
8000
ENDCHAR
STARTCHAR 0492
ENCODING 1170
SWIDTH 565 0
DWIDTH 22 0
BBX 20 27 2 0
BITMAP
0FFFF0
080000
080000
080000
080000
080000
080000
080000
080000
080000
080000
080000
080000
080000
FFFF80
080000
080000
080000
080000
080000
080000
080000
080000
080000
080000
080000
080000
ENDCHAR
STARTCHAR 0493
ENCODING 1171
SWIDTH 462 0
DWIDTH 18 0
BBX 16 20 2 0
BITMAP
1FFF
1000
1000
1000
1000
1000
1000
1000
1000
1000
FFF8
1000
1000
1000
1000
1000
1000
1000
1000
1000
ENDCHAR
STARTCHAR 0494
ENCODING 1172
SWIDTH 694 0
DWIDTH 27 0
BBX 20 32 5 -5
BITMAP
FFFF80
800000
800000
800000
800000
800000
800000
800000
800000
800000
800000
80E000
8F1E00
B00100
C00080
800040
800020
800020
800020
800020
800010
800010
800010
800020
800020
800020
800020
000040
000080
000100
000200
00FC00
ENDCHAR
STARTCHAR 0495
ENCODING 1173
SWIDTH 565 0
DWIDTH 22 0
BBX 16 28 5 -8
BITMAP
FFF0
8000
8000
8000
8000
8000
8000
8000
8000
8380
9C70
E008
8004
8002
8002
8001
8001
8001
8001
8001
0001
0002
0002
0002
0004
0008
0030
0FC0
ENDCHAR
STARTCHAR 0496
ENCODING 1174
SWIDTH 1002 0
DWIDTH 39 0
BBX 37 33 2 -6
BITMAP
4000800080
4000800080
2000800100
1000800200
1000800200
0800800400
0400800800
0400801000
0200801000
0100802000
0080804000
0080804000
0040808000
007FFF8000
0080808000
0080804000
0100802000
0200801000
0400801000
0400800800
0800800400
1000800200
1000800200
2000800100
4000800080
8000800040
8000800078
0000000008
0000000008
0000000008
0000000008
0000000008
0000000008
ENDCHAR
STARTCHAR 0497
ENCODING 1175
SWIDTH 797 0
DWIDTH 31 0
BBX 31 25 1 -5
BITMAP
40020020
20020040
10020040
10020080
08020100
04020100
04020200
02020400
01020800
00FFF800
01020800
01020400
02020600
04020200
08020100
10020080
10020040
20020040
40020020
8002001E
00000002
00000002
00000002
00000002
00000002
ENDCHAR
STARTCHAR 0498
ENCODING 1176
SWIDTH 617 0
DWIDTH 24 0
BBX 19 33 2 -5
BITMAP
0FF800
300600
400100
000080
000040
000040
000040
000040
000040
000080
000080
000200
0FFC00
000600
000180
000040
000040
000020
000020
000020
000020
000020
000040
800040
400080
300300
0FFC00
004000
004000
004000
004000
004000
004000
ENDCHAR
STARTCHAR 0499
ENCODING 1177
SWIDTH 488 0
DWIDTH 19 0
BBX 15 24 2 -5
BITMAP
1FE0
6018
0004
0004
0004
0004
0004
0004
0018
0FE0
0038
0004
0002
0002
0002
0002
0002
8004
4018
3FE0
0200
0200
0200
0200
ENDCHAR
STARTCHAR 049A
ENCODING 1178
SWIDTH 720 0
DWIDTH 28 0
BBX 23 33 5 -6
BITMAP
800020
800040
800040
800080
800100
800200
800400
800800
800800
801000
802000
804000
808000
FF8000
804000
802000
801000
800800
800800
800400
800200
800100
800080
800040
800040
800020
80001E
000002
000002
000002
000002
000002
000002
ENDCHAR
STARTCHAR 049B
ENCODING 1179
SWIDTH 540 0
DWIDTH 21 0
BBX 18 25 5 -5
BITMAP
800400
800400
800800
801000
802000
804000
808000
810000
820000
FE0000
820000
810000
808000
804000
802000
801000
801000
800800
800400
8003C0
000040
000040
000040
000040
000040
ENDCHAR
STARTCHAR 049C
ENCODING 1180
SWIDTH 694 0
DWIDTH 27 0
BBX 21 27 5 0
BITMAP
800010
800020
800040
800080
800080
800100
800200
840400
840400
840800
841000
842000
842000
FFC000
842000
841000
840800
840400
840400
840200
800100
800080
800040
800040
800020
800010
800008
ENDCHAR
STARTCHAR 049D
ENCODING 1181
SWIDTH 540 0
DWIDTH 21 0
BBX 16 20 5 0
BITMAP
8002
8004
8008
8010
8010
9020
9040
9080
9080
FF00
9100
9080
9040
9020
8020
8010
8008
8004
8002
8001
ENDCHAR
STARTCHAR 049E
ENCODING 1182
SWIDTH 694 0
DWIDTH 27 0
BBX 24 27 2 0
BITMAP
080002
080004
080008
080008
FFF810
080020
080040
080080
080100
080100
080200
080400
080800
0FF800
080400
080200
080100
080100
080080
080040
080020
080010
080008
080008
080004
080002
080001
ENDCHAR
STARTCHAR 049F
ENCODING 1183
SWIDTH 540 0
DWIDTH 21 0
BBX 20 28 0 1
BITMAP
080000
080000
080000
FFF000
080000
080000
080000
080000
080020
080020
080040
080080
080100
080200
080400
080800
081000
07F000
081000
080800
080400
080200
080100
080080
080080
080040
080020
080010
ENDCHAR
STARTCHAR 04A0
ENCODING 1184
SWIDTH 771 0
DWIDTH 30 0
BBX 29 27 0 0
BITMAP
FFC00010
00400020
00400040
00400040
00400080
00400100
00400200
00400400
00400400
00400800
00401000
00402000
00404000
007FC000
00402000
00401000
00400800
00400800
00400400
00400200
00400100
00400080
00400040
00400020
00400020
00400010
00400008
ENDCHAR
STARTCHAR 04A1
ENCODING 1185
SWIDTH 591 0
DWIDTH 23 0
BBX 22 20 0 0
BITMAP
FE0008
020010
020010
020020
020040
020080
020100
020200
020400
03F800
020400
020200
020100
020080
020040
020040
020020
020010
020008
020004
ENDCHAR
STARTCHAR 04A2
ENCODING 1186
SWIDTH 822 0
DWIDTH 32 0
BBX 26 33 5 -6
BITMAP
80000400
80000400
80000400
80000400
80000400
80000400
80000400
80000400
80000400
80000400
80000400
80000400
80000400
FFFFFC00
80000400
80000400
80000400
80000400
80000400
80000400
80000400
80000400
80000400
80000400
80000400
80000400
800007C0
00000040
00000040
00000040
00000040
00000040
00000040
ENDCHAR
STARTCHAR 04A3
ENCODING 1187
SWIDTH 668 0
DWIDTH 26 0
BBX 20 25 5 -5
BITMAP
800100
800100
800100
800100
800100
800100
800100
800100
800100
FFFF00
800100
800100
800100
800100
800100
800100
800100
800100
800100
8001F0
000010
000010
000010
000010
000010
ENDCHAR
STARTCHAR 04A4
ENCODING 1188
SWIDTH 1080 0
DWIDTH 42 0
BBX 37 27 5 0
BITMAP
800007FFF8
8000040000
8000040000
8000040000
8000040000
8000040000
8000040000
8000040000
8000040000
8000040000
8000040000
8000040000
8000040000
FFFFFC0000
8000040000
8000040000
8000040000
8000040000
8000040000
8000040000
8000040000
8000040000
8000040000
8000040000
8000040000
8000040000
8000040000
ENDCHAR
STARTCHAR 04A5
ENCODING 1189
SWIDTH 848 0
DWIDTH 33 0
BBX 29 20 5 0
BITMAP
8001FFF8
80010000
80010000
80010000
80010000
80010000
80010000
80010000
80010000
FFFF0000
80010000
80010000
80010000
80010000
80010000
80010000
80010000
80010000
80010000
80010000
ENDCHAR
STARTCHAR 04A6
ENCODING 1190
SWIDTH 1208 0
DWIDTH 47 0
BBX 40 32 5 -5
BITMAP
FFFFFC0000
8000040000
8000040000
8000040000
8000040000
8000040000
8000040000
8000040000
8000040000
8000040000
8000040000
8000040700
80000478E0
8000058018
8000060004
8000040002
8000040002
8000040001
8000040001
8000040001
8000040001
8000040001
8000040001
8000040001
8000040001
8000040001
8000040002
0000000002
0000000004
0000000008
0000000010
0000000FE0
ENDCHAR
STARTCHAR 04A7
ENCODING 1191
SWIDTH 951 0
DWIDTH 37 0
BBX 31 28 5 -8
BITMAP
FFFF0000
80010000
80010000
80010000
80010000
80010000
80010000
80010000
80010000
80010700
800138E0
8001C010
80010008
80010004
80010004
80010002
80010002
80010002
80010002
80010002
00000002
00000002
00000004
00000004
00000008
00000010
00000060
00000F80
ENDCHAR
STARTCHAR 04A8
ENCODING 1192
SWIDTH 951 0
DWIDTH 37 0
BBX 31 27 3 0
BITMAP
03007F80
04018040
08020030
10040010
20080008
20080004
40100004
40100004
80100002
80200002
80200002
80200002
80200002
80200002
80100004
80100004
80100004
80100004
40080008
40080010
20040010
20020020
10010040
08008080
06006200
01801C00
007FE3FE
ENDCHAR
STARTCHAR 04A9
ENCODING 1193
SWIDTH 745 0
DWIDTH 29 0
BBX 25 20 2 0
BITMAP
0607F000
08080C00
10100200
20200200
20400100
40400100
40400100
80400080
80400080
80400080
80400100
80400100
40400100
40200200
40200200
20100400
10080800
08041000
06036000
01FFFF80
ENDCHAR
STARTCHAR 04AA
ENCODING 1194
SWIDTH 694 0
DWIDTH 27 0
BBX 23 33 3 -6
BITMAP
007FE0
038018
040004
080002
100000
200000
400000
400000
800000
800000
800000
800000
800000
800000
800000
800000
800000
800000
800000
400000
200000
200000
100000
080002
060004
018018
007FE0
000400
000400
000400
000400
000400
000400
ENDCHAR
STARTCHAR 04AB
ENCODING 1195
SWIDTH 540 0
DWIDTH 21 0
BBX 17 25 2 -5
BITMAP
03FC00
040300
180080
200000
200000
400000
400000
800000
800000
800000
800000
800000
800000
400000
400000
200000
100000
180080
040300
03FC00
002000
002000
002000
002000
002000
ENDCHAR
STARTCHAR 04AC
ENCODING 1196
SWIDTH 540 0
DWIDTH 21 0
BBX 21 33 0 -6
BITMAP
FFFFF8
002000
002000
002000
002000
002000
002000
002000
002000
002000
002000
002000
002000
002000
002000
002000
002000
002000
002000
002000
002000
002000
002000
002000
002000
002000
003F00
000100
000100
000100
000100
000100
000100
ENDCHAR
STARTCHAR 04AD
ENCODING 1197
SWIDTH 411 0
DWIDTH 16 0
BBX 17 25 0 -5
BITMAP
FFFF80
008000
008000
008000
008000
008000
008000
008000
008000
008000
008000
008000
008000
008000
008000
008000
008000
008000
008000
00F000
001000
001000
001000
001000
001000
ENDCHAR
STARTCHAR 04AE
ENCODING 1198
SWIDTH 617 0
DWIDTH 24 0
BBX 22 27 1 0
BITMAP
800004
400008
400008
200010
200010
100020
080040
080040
040080
040080
020100
010200
010200
008400
004800
004800
003000
001000
002000
002000
002000
002000
002000
002000
002000
002000
002000
ENDCHAR
STARTCHAR 04AF
ENCODING 1199
SWIDTH 514 0
DWIDTH 20 0
BBX 19 28 1 -8
BITMAP
800020
800040
400040
400080
200080
200100
100100
100200
100200
080200
080400
040400
040800
020800
021000
011000
012000
00A000
00C000
004000
004000
004000
004000
004000
004000
004000
004000
004000
ENDCHAR
STARTCHAR 04B0
ENCODING 1200
SWIDTH 617 0
DWIDTH 24 0
BBX 22 27 1 0
BITMAP
800004
400008
400008
200010
200010
100020
080040
080040
040080
040080
020100
010200
010200
008400
004800
004800
003000
1FFFE0
002000
002000
002000
002000
002000
002000
002000
002000
002000
ENDCHAR
STARTCHAR 04B1
ENCODING 1201
SWIDTH 514 0
DWIDTH 20 0
BBX 19 28 1 -8
BITMAP
800020
800040
400040
400080
200080
200100
100100
100200
100200
080200
080400
040400
040800
020800
021000
011000
012000
00A000
00C000
3FFF80
004000
004000
004000
004000
004000
004000
004000
004000
ENDCHAR
STARTCHAR 04B2
ENCODING 1202
SWIDTH 642 0
DWIDTH 25 0
BBX 23 33 2 -6
BITMAP
800020
400020
200040
100080
100100
080100
040200
020400
020400
010800
009000
00A000
006000
006000
009000
011000
010800
020400
040400
040200
080100
100080
200080
200040
400020
800020
80001E
000002
000002
000002
000002
000002
000002
ENDCHAR
STARTCHAR 04B3
ENCODING 1203
SWIDTH 488 0
DWIDTH 19 0
BBX 20 25 1 -5
BITMAP
400100
200200
100200
100400
080800
041000
021000
022000
014000
008000
014000
012000
022000
041000
080800
080400
100400
200200
400100
8000F0
000010
000010
000010
000010
000010
ENDCHAR
STARTCHAR 04B4
ENCODING 1204
SWIDTH 951 0
DWIDTH 37 0
BBX 36 34 0 -7
BITMAP
FFFFF80200
0020000200
0020000200
0020000200
0020000200
0020000200
0020000200
0020000200
0020000200
0020000200
0020000200
0020000200
0020000200
0020000200
0020000200
0020000200
0020000200
0020000200
0020000200
0020000200
0020000200
0020000200
0020000200
0020000200
0020000200
0020000200
003FFFFFF0
0000000010
0000000010
0000000010
0000000010
0000000010
0000000010
0000000010
ENDCHAR
STARTCHAR 04B5
ENCODING 1205
SWIDTH 720 0
DWIDTH 28 0
BBX 26 24 0 -5
BITMAP
FFFF8200
00800200
00800200
00800200
00800200
00800200
00800200
00800200
00800200
00800200
00800200
00800200
00800200
00800200
00800200
00800200
00800200
00800200
00800200
00FFFFC0
00000040
00000040
00000040
00000040
ENDCHAR
STARTCHAR 04B6
ENCODING 1206
SWIDTH 720 0
DWIDTH 28 0
BBX 24 33 3 -6
BITMAP
800010
800010
800010
800010
800010
800010
800010
800010
800010
800010
800010
800010
800010
400010
200030
1801D0
07FE10
000010
000010
000010
000010
000010
000010
000010
000010
000010
00001F
000001
000001
000001
000001
000001
000001
ENDCHAR
STARTCHAR 04B7
ENCODING 1207
SWIDTH 591 0
DWIDTH 23 0
BBX 19 24 2 -5
BITMAP
800100
800100
800100
800100
800100
800100
800100
800100
800100
400100
600100
101F00
0BA100
000100
000100
000100
000100
000100
000100
0001E0
000020
000020
000020
000020
ENDCHAR
STARTCHAR 04B8
ENCODING 1208
SWIDTH 720 0
DWIDTH 28 0
BBX 20 27 3 0
BITMAP
800010
800010
800010
800010
800010
800010
800010
800010
800010
800010
804010
804010
804010
404010
204030
1841D0
07FE10
004010
004010
004010
004010
004010
004010
004010
000010
000010
000010
ENDCHAR
STARTCHAR 04B9
ENCODING 1209
SWIDTH 565 0
DWIDTH 22 0
BBX 16 20 2 0
BITMAP
8001
8001
8001
8001
8001
8001
8001
8081
8081
4081
6081
109F
0BA1
0081
0081
0081
0081
0001
0001
0001
ENDCHAR
STARTCHAR 04BA
ENCODING 1210
SWIDTH 720 0
DWIDTH 28 0
BBX 20 27 5 0
BITMAP
800000
800000
800000
800000
800000
800000
800000
800000
800000
800000
87FF00
B80080
C00040
800020
800010
800010
800010
800010
800010
800010
800010
800010
800010
800010
800010
800010
800010
ENDCHAR
STARTCHAR 04BB
ENCODING 1211
SWIDTH 642 0
DWIDTH 25 0
BBX 17 28 5 1
BITMAP
800000
800000
800000
800000
800000
800000
800000
800000
87F800
980400
A00200
C00100
800100
800080
800080
800080
800080
800080
800080
800080
800080
800080
800080
800080
800080
800080
800080
800080
ENDCHAR
STARTCHAR 04BC
ENCODING 1212
SWIDTH 925 0
DWIDTH 36 0
BBX 34 27 1 0
BITMAP
0000FF8000
0003006000
000C001800
0010000400
0020000200
0040000100
4040000100
8080000080
8080000080
8100000080
8100000040
4100000040
2100000040
1FFFFFFFC0
0100000000
0100000000
0100000000
0100000000
0080000000
0080000000
0040000000
0040000000
0020000000
0010000600
000C000800
0003007000
0000FF8000
ENDCHAR
STARTCHAR 04BD
ENCODING 1213
SWIDTH 694 0
DWIDTH 27 0
BBX 25 20 1 0
BITMAP
001FE000
00601800
00800400
01000200
81000200
82000100
82000100
84000100
44000080
3FFFFF80
04000000
04000000
04000000
02000000
02000000
01000000
00800000
00C00200
00200C00
001FF000
ENDCHAR
STARTCHAR 04BE
ENCODING 1214
SWIDTH 925 0
DWIDTH 36 0
BBX 34 33 1 -6
BITMAP
0000FF8000
0003006000
000C001800
0010000400
0020000200
0040000100
4040000100
8080000080
8080000080
8100000080
8100000040
4100000040
2100000040
1FFFFFFFC0
0100000000
0100000000
0100000000
0100000000
0080000000
0080000000
0040000000
0040000000
0020000000
0010000600
000C000800
0003007000
0000FF8000
0000080000
0000080000
0000080000
0000080000
0000080000
0000080000
ENDCHAR
STARTCHAR 04BF
ENCODING 1215
SWIDTH 694 0
DWIDTH 27 0
BBX 25 25 1 -5
BITMAP
001FE000
00601800
00800400
01000200
81000200
82000100
82000100
84000100
44000080
3FFFFF80
04000000
04000000
04000000
02000000
02000000
01000000
00800000
00C00200
00200C00
001FF000
00010000
00010000
00010000
00010000
00010000
ENDCHAR
STARTCHAR 04C0
ENCODING 1216
SWIDTH 282 0
DWIDTH 11 0
BBX 1 27 5 0
BITMAP
80
80
80
80
80
80
80
80
80
80
80
80
80
80
80
80
80
80
80
80
80
80
80
80
80
80
80
ENDCHAR
STARTCHAR 04C1
ENCODING 1217
SWIDTH 951 0
DWIDTH 37 0
BBX 34 34 2 0
BITMAP
0010020000
0010040000
0008040000
0006180000
0000E00000
0000000000
0000000000
4000800080
4000800080
2000800100
1000800200
1000800200
0800800400
0400800800
0400801000
0200801000
0100802000
0080804000
0080804000
0040808000
007FFF8000
0080808000
0080804000
0100802000
0200801000
0400801000
0400800800
0800800400
1000800200
1000800200
2000800100
4000800080
8000800040
8000800040
ENDCHAR
STARTCHAR 04C2
ENCODING 1218
SWIDTH 771 0
DWIDTH 30 0
BBX 28 28 1 0
BITMAP
00402000
00402000
00202000
0010C000
000F0000
00000000
00000000
00000000
40020020
20020040
10020040
10020080
08020100
04020100
04020200
02020400
01020800
00FFF800
01020800
01020400
02020600
04020200
08020100
10020080
10020040
20020040
40020020
80020010
ENDCHAR
STARTCHAR 04C3
ENCODING 1219
SWIDTH 668 0
DWIDTH 26 0
BBX 20 35 5 -8
BITMAP
800020
800040
800040
800080
800100
800200
800400
800800
800800
801000
802000
804000
808000
FF8000
806000
801000
800800
800400
800600
800200
800100
800080
800080
800040
800040
800020
800020
000020
000010
000010
000010
000020
000020
001840
000780
ENDCHAR
STARTCHAR 04C4
ENCODING 1220
SWIDTH 540 0
DWIDTH 21 0
BBX 15 28 5 -8
BITMAP
8004
8004
8008
8010
8020
8040
8080
8100
8200
FE00
8300
8080
8040
8020
8010
8010
8008
8004
8004
8004
0002
0002
0002
0002
0002
0004
0308
00F0
ENDCHAR
STARTCHAR 04C6
ENCODING 1222
SWIDTH 617 0
DWIDTH 24 0
BBX 23 25 0 -5
BITMAP
03FFE0
020020
020020
020020
020020
020020
020020
040020
040020
040020
040020
040020
040020
040020
040020
080020
080020
080020
100020
E0001E
000004
000004
000004
000008
000008
ENDCHAR
STARTCHAR 04C7
ENCODING 1223
SWIDTH 797 0
DWIDTH 31 0
BBX 21 35 5 -8
BITMAP
800008
800008
800008
800008
800008
800008
800008
800008
800008
800008
800008
800008
800008
FFFFF8
800008
800008
800008
800008
800008
800008
800008
800008
800008
800008
800008
800008
800008
000008
000008
000008
000008
000008
000008
000610
0001E0
ENDCHAR
STARTCHAR 04C8
ENCODING 1224
SWIDTH 668 0
DWIDTH 26 0
BBX 17 28 5 -8
BITMAP
800080
800080
800080
800080
800080
800080
800080
800080
800080
FFFF80
800080
800080
800080
800080
800080
800080
800080
800080
800080
800080
000080
000080
000080
000080
000100
000100
00C200
001C00
ENDCHAR
STARTCHAR 04C9
ENCODING 1225
SWIDTH 822 0
DWIDTH 32 0
BBX 25 33 5 -6
BITMAP
80000400
80000400
80000400
80000400
80000400
80000400
80000400
80000400
80000400
80000400
80000400
80000400
80000400
FFFFFC00
80000400
80000400
80000400
80000400
80000400
80000400
80000400
80000400
80000400
80000400
80000400
80000400
80000780
00000080
00000080
00000100
00000100
00000100
00000100
ENDCHAR
STARTCHAR 04CA
ENCODING 1226
SWIDTH 668 0
DWIDTH 26 0
BBX 20 25 5 -5
BITMAP
800100
800100
800100
800100
800100
800100
800100
800100
800100
FFFF00
800100
800100
800100
800100
800100
800100
800100
800100
800100
8001F0
000020
000020
000020
000040
000040
ENDCHAR
STARTCHAR 04CB
ENCODING 1227
SWIDTH 720 0
DWIDTH 28 0
BBX 20 33 3 -6
BITMAP
800010
800010
800010
800010
800010
800010
800010
800010
800010
800010
800010
800010
800010
400010
200030
1801D0
07FE10
000010
000010
000010
000010
000010
000010
000010
000010
000010
0003F0
000200
000200
000200
000200
000200
000200
ENDCHAR
STARTCHAR 04CC
ENCODING 1228
SWIDTH 565 0
DWIDTH 22 0
BBX 16 24 2 -5
BITMAP
8001
8001
8001
8001
8001
8001
8001
8001
8001
4001
6003
101D
0BA1
0001
0001
0001
0001
0001
0001
000F
0010
0010
0010
0010
ENDCHAR
STARTCHAR 04CD
ENCODING 1229
SWIDTH 977 0
DWIDTH 38 0
BBX 31 33 5 -6
BITMAP
80000020
C0000020
A0000060
A00000A0
900000A0
90000120
88000120
88000220
84000420
82000420
82000820
81000820
81001020
80801020
80802020
80404020
80204020
80208020
80108020
80110020
80090020
800A0020
80040020
80000020
80000020
80000020
8000003E
00000002
00000004
00000004
00000004
00000008
00000008
ENDCHAR
STARTCHAR 04CE
ENCODING 1230
SWIDTH 771 0
DWIDTH 30 0
BBX 24 24 5 -5
BITMAP
800008
800018
C00028
C00028
A00048
900088
900088
880108
880108
840208
820408
820408
810808
810808
809008
806008
806008
800008
800008
80000F
000001
000002
000002
000002
ENDCHAR
STARTCHAR 04CF
ENCODING 1231
SWIDTH 231 0
DWIDTH 9 0
BBX 1 28 4 1
BITMAP
80
80
80
80
80
80
80
80
80
80
80
80
80
80
80
80
80
80
80
80
80
80
80
80
80
80
80
80
ENDCHAR
STARTCHAR 04D0
ENCODING 1232
SWIDTH 694 0
DWIDTH 27 0
BBX 26 34 1 0
BITMAP
01002000
01004000
00804000
00618000
000E0000
00000000
00000000
000C0000
000C0000
00120000
00120000
00220000
00210000
00410000
00408000
00808000
00804000
01004000
01002000
01002000
02001000
02001000
04000800
04000800
08000400
0FFFFC00
10000400
10000200
20000200
20000100
40000100
40000080
40000080
80000040
ENDCHAR
STARTCHAR 04D1
ENCODING 1233
SWIDTH 565 0
DWIDTH 22 0
BBX 15 28 3 0
BITMAP
0008
1010
1010
0C60
0280
0000
0000
0000
0FF0
3008
C004
0004
0002
0002
0002
0002
0002
1FFE
6002
8002
8002
8002
8002
8002
8006
800A
6012
1FE2
ENDCHAR
STARTCHAR 04D2
ENCODING 1234
SWIDTH 694 0
DWIDTH 27 0
BBX 26 33 1 0
BITMAP
00418000
00618000
00000000
00000000
00000000
00000000
000C0000
000C0000
00120000
00120000
00220000
00210000
00410000
00408000
00808000
00804000
01004000
01002000
01002000
02001000
02001000
04000800
04000800
08000400
0FFFFC00
10000400
10000200
20000200
20000100
40000100
40000080
40000080
80000040
ENDCHAR
STARTCHAR 04D3
ENCODING 1235
SWIDTH 565 0
DWIDTH 22 0
BBX 15 27 3 0
BITMAP
0830
0830
0000
0000
0000
0000
0000
0FF0
3008
C004
0004
0002
0002
0002
0002
0002
1FFE
6002
8002
8002
8002
8002
8002
8006
800A
6012
1FE2
ENDCHAR
STARTCHAR 04D4
ENCODING 1236
SWIDTH 977 0
DWIDTH 38 0
BBX 36 27 1 0
BITMAP
0000FFFFE0
0000C00000
0001400000
0002400000
0002400000
0004400000
0008400000
0008400000
0010400000
0010400000
0020400000
0040400000
0040400000
00807FFF80
0100400000
0100400000
0200400000
0400400000
07FFC00000
0800400000
0800400000
1000400000
2000400000
2000400000
4000400000
8000400000
80007FFFF0
ENDCHAR
STARTCHAR 04D5
ENCODING 1237
SWIDTH 977 0
DWIDTH 38 0
BBX 33 20 3 0
BITMAP
0FF00FE000
3008301800
C004400400
0004800200
0003800100
0003000100
0003000080
0002000080
0002000080
1FFFFFFF80
6002000000
8002000000
8002000000
8003000000
8003000000
8002800000
8004400000
8008600200
6010100C00
1FE00FF000
ENDCHAR
STARTCHAR 04D6
ENCODING 1238
SWIDTH 642 0
DWIDTH 25 0
BBX 18 34 5 0
BITMAP
100200
080400
080400
061800
01C000
000000
000000
FFFFC0
800000
800000
800000
800000
800000
800000
800000
800000
800000
800000
800000
800000
FFFF00
800000
800000
800000
800000
800000
800000
800000
800000
800000
800000
800000
800000
FFFFC0
ENDCHAR
STARTCHAR 04D7
ENCODING 1239
SWIDTH 591 0
DWIDTH 23 0
BBX 19 28 2 0
BITMAP
000200
040200
040400
031800
00A000
000000
000000
000000
03F800
0C0600
100100
200080
200040
400040
400020
800020
800020
FFFFE0
800000
800000
800000
400000
400000
200000
100040
080080
040300
03FC00
ENDCHAR
STARTCHAR 04D8
ENCODING 1240
SWIDTH 822 0
DWIDTH 32 0
BBX 27 27 2 0
BITMAP
00FFC000
03003800
0C000400
10000200
00000100
00000080
00000040
00000040
00000020
00000020
00000020
00000020
00000020
FFFFFFE0
80000020
80000020
80000020
80000020
40000040
40000040
20000080
20000080
10000100
08000200
06000C00
01803000
007FC000
ENDCHAR
STARTCHAR 04D9
ENCODING 1241
SWIDTH 591 0
DWIDTH 23 0
BBX 19 20 2 0
BITMAP
07F800
180600
200100
000080
000080
000040
000040
000040
000020
000020
FFFFE0
800020
800040
800040
400040
400080
200080
100100
0C0600
03F800
ENDCHAR
STARTCHAR 04DA
ENCODING 1242
SWIDTH 822 0
DWIDTH 32 0
BBX 27 33 2 0
BITMAP
00304000
0030C000
00000000
00000000
00000000
00000000
00FFC000
03003800
0C000400
10000200
00000100
00000080
00000040
00000040
00000020
00000020
00000020
00000020
00000020
FFFFFFE0
80000020
80000020
80000020
80000020
40000040
40000040
20000080
20000080
10000100
08000200
06000C00
01803000
007FC000
ENDCHAR
STARTCHAR 04DB
ENCODING 1243
SWIDTH 591 0
DWIDTH 23 0
BBX 19 27 2 0
BITMAP
060800
060C00
000000
000000
000000
000000
000000
07F800
180600
200100
000080
000080
000040
000040
000040
000020
000020
FFFFE0
800020
800040
800040
400040
400080
200080
100100
0C0600
03F800
ENDCHAR
STARTCHAR 04DC
ENCODING 1244
SWIDTH 951 0
DWIDTH 37 0
BBX 34 33 2 0
BITMAP
0004180000
0006180000
0000000000
0000000000
0000000000
0000000000
4000800080
4000800080
2000800100
1000800200
1000800200
0800800400
0400800800
0400801000
0200801000
0100802000
0080804000
0080804000
0040808000
007FFF8000
0080808000
0080804000
0100802000
0200801000
0400801000
0400800800
0800800400
1000800200
1000800200
2000800100
4000800080
8000800040
8000800040
ENDCHAR
STARTCHAR 04DD
ENCODING 1245
SWIDTH 771 0
DWIDTH 30 0
BBX 28 27 1 0
BITMAP
0030C000
0030C000
00000000
00000000
00000000
00000000
00000000
40020020
20020040
10020040
10020080
08020100
04020100
04020200
02020400
01020800
00FFF800
01020800
01020400
02020600
04020200
08020100
10020080
10020040
20020040
40020020
80020010
ENDCHAR
STARTCHAR 04DE
ENCODING 1246
SWIDTH 617 0
DWIDTH 24 0
BBX 19 33 2 0
BITMAP
030400
030C00
000000
000000
000000
000000
0FF800
300600
400100
000080
000040
000040
000040
000040
000040
000080
000080
000200
0FFC00
000600
000180
000040
000040
000020
000020
000020
000020
000020
000040
800040
400080
300300
0FFC00
ENDCHAR
STARTCHAR 04DF
ENCODING 1247
SWIDTH 488 0
DWIDTH 19 0
BBX 15 27 2 0
BITMAP
1820
1820
0000
0000
0000
0000
0000
1FE0
6018
0004
0004
0004
0004
0004
0004
0018
0FE0
0038
0004
0002
0002
0002
0002
0002
8004
4018
3FE0
ENDCHAR
STARTCHAR 04E0
ENCODING 1248
SWIDTH 591 0
DWIDTH 23 0
BBX 19 27 2 0
BITMAP
FFFFC0
000080
000100
000200
000400
000400
000800
001000
002000
004000
008000
008000
01F800
000600
000180
000040
000040
000040
000020
000020
000020
000040
000040
800040
400080
300300
0FFC00
ENDCHAR
STARTCHAR 04E1
ENCODING 1249
SWIDTH 462 0
DWIDTH 18 0
BBX 18 28 -1 -8
BITMAP
7FFF80
000080
000100
000200
000400
000400
000800
001000
002000
002000
004000
008000
01F000
000E00
000100
000080
000040
000040
000040
000040
000040
000040
000040
800040
400080
200100
1C0600
03F800
ENDCHAR
STARTCHAR 04E2
ENCODING 1250
SWIDTH 822 0
DWIDTH 32 0
BBX 22 32 5 0
BITMAP
03FF00
000000
000000
000000
000000
800004
80000C
800014
800024
800024
800044
800084
800104
800204
800204
800404
800804
801004
802004
802004
804004
808004
810004
810004
820004
840004
880004
900004
900004
A00004
C00004
800004
ENDCHAR
STARTCHAR 04E3
ENCODING 1251
SWIDTH 668 0
DWIDTH 26 0
BBX 17 26 5 0
BITMAP
1FF800
000000
000000
000000
000000
000000
800080
800180
800280
800480
800880
801080
802080
802080
804080
808080
810080
820080
840080
840080
880080
900080
A00080
C00080
800080
800080
ENDCHAR
STARTCHAR 04E4
ENCODING 1252
SWIDTH 822 0
DWIDTH 32 0
BBX 22 33 5 0
BITMAP
010600
018600
000000
000000
000000
000000
800004
80000C
800014
800024
800024
800044
800084
800104
800204
800204
800404
800804
801004
802004
802004
804004
808004
810004
810004
820004
840004
880004
900004
900004
A00004
C00004
800004
ENDCHAR
STARTCHAR 04E5
ENCODING 1253
SWIDTH 668 0
DWIDTH 26 0
BBX 17 27 5 0
BITMAP
0C3000
0C3000
000000
000000
000000
000000
000000
800080
800180
800280
800480
800880
801080
802080
802080
804080
808080
810080
820080
840080
840080
880080
900080
A00080
C00080
800080
800080
ENDCHAR
STARTCHAR 04E6
ENCODING 1254
SWIDTH 848 0
DWIDTH 33 0
BBX 28 33 3 0
BITMAP
0020C000
0020C000
00000000
00000000
00000000
00000000
007FE000
03801800
04000400
08000300
10000100
20000080
40000040
40000040
80000020
80000020
80000020
80000020
80000010
80000010
80000010
80000020
80000020
80000020
80000020
40000040
40000040
20000080
10000100
08000200
06000400
01801800
007FE000
ENDCHAR
STARTCHAR 04E7
ENCODING 1255
SWIDTH 617 0
DWIDTH 24 0
BBX 20 27 2 0
BITMAP
030400
030C00
000000
000000
000000
000000
000000
03FC00
040300
180080
200040
200020
400020
400020
800010
800010
800010
800010
800010
800010
400020
400020
200040
100040
180080
040300
03FC00
ENDCHAR
STARTCHAR 04E8
ENCODING 1256
SWIDTH 848 0
DWIDTH 33 0
BBX 28 27 3 0
BITMAP
007FE000
03801800
04000400
08000300
10000100
20000080
40000040
40000040
80000020
80000020
80000020
80000020
80000010
FFFFFFF0
80000010
80000020
80000020
80000020
80000020
40000040
40000040
20000080
10000100
08000200
06000400
01801800
007FE000
ENDCHAR
STARTCHAR 04E9
ENCODING 1257
SWIDTH 617 0
DWIDTH 24 0
BBX 20 20 2 0
BITMAP
03FC00
040300
180080
200040
200020
400010
400010
800010
800010
800010
FFFFF0
800010
800010
400010
400020
200020
100040
180080
040300
03FC00
ENDCHAR
STARTCHAR 04EA
ENCODING 1258
SWIDTH 848 0
DWIDTH 33 0
BBX 28 33 3 0
BITMAP
0020C000
0020C000
00000000
00000000
00000000
00000000
007FE000
03801800
04000400
08000300
10000100
20000080
40000040
40000040
80000020
80000020
80000020
80000020
80000010
FFFFFFF0
80000010
80000020
80000020
80000020
80000020
40000040
40000040
20000080
10000100
08000200
06000400
01801800
007FE000
ENDCHAR
STARTCHAR 04EB
ENCODING 1259
SWIDTH 617 0
DWIDTH 24 0
BBX 20 27 2 0
BITMAP
030400
030400
000000
000000
000000
000000
000000
03FC00
040300
180080
200040
200020
400010
400010
800010
800010
800010
FFFFF0
800010
800010
400010
400020
200020
100040
180080
040300
03FC00
ENDCHAR
STARTCHAR 04EC
ENCODING 1260
SWIDTH 694 0
DWIDTH 27 0
BBX 23 33 2 0
BITMAP
030400
030C00
000000
000000
000000
000000
0FFC00
300300
C000C0
000020
000010
000010
000008
000008
000004
000004
000004
000002
000002
01FFFE
000002
000002
000004
000004
000004
000008
000008
000010
000020
800060
400080
300300
0FF800
ENDCHAR
STARTCHAR 04ED
ENCODING 1261
SWIDTH 540 0
DWIDTH 21 0
BBX 18 27 2 0
BITMAP
083000
0C3000
000000
000000
000000
000000
000000
1FE000
601800
800400
000200
000100
000080
000080
000080
000080
07FFC0
000040
000080
000080
000080
000080
000100
000200
800400
601800
1FE000
ENDCHAR
STARTCHAR 04EE
ENCODING 1262
SWIDTH 642 0
DWIDTH 25 0
BBX 23 32 1 0
BITMAP
03FF80
000000
000000
000000
000000
800002
400002
400004
200004
200008
100008
080010
080010
040020
040020
020040
020080
010080
010100
008100
008200
004200
004400
002400
002800
001800
001000
002000
002000
004000
008000
1F0000
ENDCHAR
STARTCHAR 04EF
ENCODING 1263
SWIDTH 514 0
DWIDTH 20 0
BBX 20 34 0 -8
BITMAP
0FFE00
000000
000000
000000
000000
000000
400010
400020
200020
200040
100040
100080
080080
080100
080100
040100
040200
020200
020400
010400
010800
008800
009000
005000
006000
002000
004000
004000
004000
008000
008000
010000
820000
540000
ENDCHAR
STARTCHAR 04F0
ENCODING 1264
SWIDTH 642 0
DWIDTH 25 0
BBX 23 33 1 0
BITMAP
008200
018300
000000
000000
000000
000000
800002
400002
400004
200004
200008
100008
080010
080010
040020
040020
020040
020080
010080
010100
008100
008200
004200
004400
002400
002800
001800
001000
002000
002000
004000
008000
1F0000
ENDCHAR
STARTCHAR 04F1
ENCODING 1265
SWIDTH 514 0
DWIDTH 20 0
BBX 20 35 0 -8
BITMAP
020C00
020C00
000000
000000
000000
000000
000000
400010
400020
200020
200040
100040
100080
080080
080100
080100
040100
040200
020200
020400
010400
010800
008800
009000
005000
006000
002000
004000
004000
004000
008000
008000
010000
820000
540000
ENDCHAR
STARTCHAR 04F2
ENCODING 1266
SWIDTH 642 0
DWIDTH 25 0
BBX 23 34 1 0
BITMAP
000C20
001840
002080
004100
008200
000000
000000
800002
400002
400004
200004
200008
100008
080010
080010
040020
040020
020040
020080
010080
010100
008100
008200
004200
004400
002400
002800
001800
001000
002000
002000
004000
008000
1F0000
ENDCHAR
STARTCHAR 04F3
ENCODING 1267
SWIDTH 514 0
DWIDTH 20 0
BBX 20 36 0 -8
BITMAP
003080
006100
00C200
010400
000800
000000
000000
000000
400010
400020
200020
200040
100040
100080
080080
080100
080100
040100
040200
020200
020400
010400
010800
008800
009000
005000
006000
002000
004000
004000
004000
008000
008000
010000
820000
540000
ENDCHAR
STARTCHAR 04F4
ENCODING 1268
SWIDTH 720 0
DWIDTH 28 0
BBX 20 33 3 0
BITMAP
020C00
030C00
000000
000000
000000
000000
800010
800010
800010
800010
800010
800010
800010
800010
800010
800010
800010
800010
800010
400010
200030
1801D0
07FE10
000010
000010
000010
000010
000010
000010
000010
000010
000010
000010
ENDCHAR
STARTCHAR 04F5
ENCODING 1269
SWIDTH 565 0
DWIDTH 22 0
BBX 16 27 2 0
BITMAP
0C30
0C30
0000
0000
0000
0000
0000
8001
8001
8001
8001
8001
8001
8001
8001
8001
4001
6001
101F
0BA1
0001
0001
0001
0001
0001
0001
0001
ENDCHAR
STARTCHAR 04F6
ENCODING 1270
SWIDTH 540 0
DWIDTH 21 0
BBX 17 33 5 -6
BITMAP
FFFF80
800000
800000
800000
800000
800000
800000
800000
800000
800000
800000
800000
800000
800000
800000
800000
800000
800000
800000
800000
800000
800000
800000
800000
800000
800000
FC0000
040000
040000
040000
040000
040000
040000
ENDCHAR
STARTCHAR 04F7
ENCODING 1271
SWIDTH 437 0
DWIDTH 17 0
BBX 13 25 5 -5
BITMAP
FFF8
8000
8000
8000
8000
8000
8000
8000
8000
8000
8000
8000
8000
8000
8000
8000
8000
8000
8000
F000
1000
1000
1000
1000
1000
ENDCHAR
STARTCHAR 04F8
ENCODING 1272
SWIDTH 925 0
DWIDTH 36 0
BBX 27 33 5 0
BITMAP
00208000
0060C000
00000000
00000000
00000000
00000000
80000020
80000020
80000020
80000020
80000020
80000020
80000020
80000020
80000020
80000020
FFFE0020
80018020
80004020
80002020
80001020
80001020
80001020
80001020
80001020
80001020
80001020
80001020
80002020
80002020
80004020
80018020
FFFE0020
ENDCHAR
STARTCHAR 04F9
ENCODING 1273
SWIDTH 720 0
DWIDTH 28 0
BBX 19 27 5 0
BITMAP
030400
030C00
000000
000000
000000
000000
000000
800020
800020
800020
800020
800020
800020
800020
FA0020
81E020
801820
800420
800420
800420
800420
800420
800420
800420
800820
801020
FFE020
ENDCHAR
STARTCHAR 04FA
ENCODING 1274
SWIDTH 565 0
DWIDTH 22 0
BBX 20 35 2 -8
BITMAP
0FFFF0
080000
080000
080000
080000
080000
080000
080000
080000
080000
080000
080000
080000
080000
FFFF80
080000
080000
080000
080000
080000
080000
080000
080000
080000
080000
080000
0F8000
008000
008000
008000
008000
008000
008000
410000
2E0000
ENDCHAR
STARTCHAR 04FB
ENCODING 1275
SWIDTH 437 0
DWIDTH 17 0
BBX 16 28 1 -8
BITMAP
0FFF
0800
0800
0800
0800
0800
0800
0800
0800
0800
7FFC
0800
0800
0800
0800
0800
0800
0800
0800
0F00
0100
0100
0100
0100
0100
0100
8600
7800
ENDCHAR
STARTCHAR 04FC
ENCODING 1276
SWIDTH 591 0
DWIDTH 23 0
BBX 20 35 2 -8
BITMAP
400020
400020
200040
100080
100100
080100
040200
020400
020400
010800
009000
00A000
006000
006000
009000
009000
010800
020400
040200
040200
080100
100080
100040
200040
400020
800020
800010
000010
000010
000010
000010
000010
000010
000C60
000380
ENDCHAR
STARTCHAR 04FD
ENCODING 1277
SWIDTH 488 0
DWIDTH 19 0
BBX 17 28 1 -8
BITMAP
400100
200200
100400
100400
080800
041000
022000
022000
014000
008000
014000
012000
022000
041000
080800
100400
100400
200200
400100
800100
000080
000080
000080
000080
000080
000080
004300
003C00
ENDCHAR
STARTCHAR 04FE
ENCODING 1278
SWIDTH 617 0
DWIDTH 24 0
BBX 21 27 2 0
BITMAP
400010
200020
200040
100040
080080
040100
040200
020200
010400
010800
008800
005000
3FFFC0
006000
005000
008800
010C00
010400
020200
040100
080100
080080
100040
200020
200020
400010
800008
ENDCHAR
STARTCHAR 04FF
ENCODING 1279
SWIDTH 514 0
DWIDTH 20 0
BBX 17 20 2 0
BITMAP
400100
400200
200400
100400
080800
041000
042000
024000
014000
3FFC00
018000
024000
022000
041000
080800
100800
200400
200200
400100
800180
ENDCHAR
STARTCHAR 0510
ENCODING 1296
SWIDTH 617 0
DWIDTH 24 0
BBX 19 27 3 1
BITMAP
03FE00
0C01C0
100020
200000
200000
400000
400000
400000
400000
200000
100000
080000
07FE00
0C0000
300000
400000
400000
800000
800000
800000
800000
800000
400000
400020
300040
080180
07FE00
ENDCHAR
STARTCHAR 0511
ENCODING 1297
SWIDTH 488 0
DWIDTH 19 0
BBX 15 20 3 0
BITMAP
0FF0
300C
4000
4000
8000
8000
4000
4000
3000
0FE0
3800
4000
8000
8000
8000
8000
8000
4002
3004
0FF8
ENDCHAR
STARTCHAR 0512
ENCODING 1298
SWIDTH 771 0
DWIDTH 30 0
BBX 25 35 0 -8
BITMAP
00FFFF80
00800080
00800080
00800080
00800080
00800080
01000080
01000080
01000080
01000080
01000080
01000080
01000080
01000080
01000080
01000080
01000080
01000080
01000080
01000080
02000080
02000080
02000080
04000080
04000080
08000080
F0000080
00000080
00000080
00000080
00000080
00000080
00000100
0000C300
00003800
ENDCHAR
STARTCHAR 0513
ENCODING 1299
SWIDTH 591 0
DWIDTH 23 0
BBX 19 28 0 -8
BITMAP
03FFE0
020020
020020
020020
020020
020020
020020
040020
040020
040020
040020
040020
040020
040020
040020
080020
080020
080020
100020
E00020
000020
000020
000020
000020
000020
000020
0010C0
000A00
ENDCHAR
STARTCHAR 051A
ENCODING 1306
SWIDTH 848 0
DWIDTH 33 0
BBX 28 32 3 -5
BITMAP
007FE000
03801800
04000400
08000300
10000100
20000080
40000040
40000040
80000020
80000020
80000020
80000020
80000010
80000010
80000010
80000020
80000020
80000020
80000020
40000040
20000040
20000080
10000100
08000200
06000400
01801800
007FE000
00030000
00008000
00004010
00003060
00000F80
ENDCHAR
STARTCHAR 051B
ENCODING 1307
SWIDTH 668 0
DWIDTH 26 0
BBX 20 28 2 -8
BITMAP
03FC10
040310
180090
200050
200050
400030
400010
800010
800010
800010
800010
800010
800010
400010
400030
200050
100050
180090
040310
03FC10
000010
000010
000010
000010
000010
000010
000010
000010
ENDCHAR
STARTCHAR 051C
ENCODING 1308
SWIDTH 1028 0
DWIDTH 40 0
BBX 37 27 2 0
BITMAP
8000200008
8000600008
8000500010
4000900010
4000900010
4000880020
2001080020
2001080020
2001040040
1002040040
1002040040
1002020080
0804020080
0804020080
0804010100
0408010100
0408010100
0408008200
0210008200
0210004200
0210004400
0120004400
0120002400
0120002800
00C0002800
00C0001800
00C0001000
ENDCHAR
STARTCHAR 051D
ENCODING 1309
SWIDTH 900 0
DWIDTH 35 0
BBX 33 20 1 0
BITMAP
8000800080
8001400080
4001400100
4001200100
2002200100
2002200200
2004100200
1004100400
1004080400
0808080400
0808080800
0810040800
0410041000
0410021000
0220022000
0220022000
0240012000
0140014000
018000C000
0080008000
ENDCHAR
STARTCHAR 0524
ENCODING 1316
SWIDTH 848 0
DWIDTH 33 0
BBX 27 33 5 -6
BITMAP
FFFFFC00
80000400
80000400
80000400
80000400
80000400
80000400
80000400
80000400
80000400
80000400
80000400
80000400
80000400
80000400
80000400
80000400
80000400
80000400
80000400
80000400
80000400
80000400
80000400
80000400
80000400
800007E0
00000020
00000020
00000020
00000020
00000020
00000020
ENDCHAR
STARTCHAR 0525
ENCODING 1317
SWIDTH 642 0
DWIDTH 25 0
BBX 20 25 5 -5
BITMAP
FFFF00
800100
800100
800100
800100
800100
800100
800100
800100
800100
800100
800100
800100
800100
800100
800100
800100
800100
800100
8000F0
000010
000010
000010
000010
000010
ENDCHAR
STARTCHAR 0526
ENCODING 1318
SWIDTH 771 0
DWIDTH 30 0
BBX 25 33 5 -6
BITMAP
80000000
80000000
80000000
80000000
80000000
80000000
80000000
80000000
80000000
80000000
87FF0000
B8008000
C0004000
80002000
80001000
80001000
80001000
80001000
80001000
80001000
80001000
80001000
80001000
80001000
80001000
80001000
80001F80
00000080
00000080
00000080
00000080
00000080
00000080
ENDCHAR
STARTCHAR 0527
ENCODING 1319
SWIDTH 668 0
DWIDTH 26 0
BBX 20 33 5 -4
BITMAP
800000
800000
800000
800000
800000
800000
800000
800000
87F800
980400
A00200
C00100
800100
800080
800080
800080
800080
800080
800080
800080
800080
800080
800080
800080
800080
800080
800080
8000F0
000010
000010
000010
000010
000010
ENDCHAR
STARTCHAR 0528
ENCODING 1320
SWIDTH 797 0
DWIDTH 31 0
BBX 29 35 -2 -8
BITMAP
01000008
01000008
01000008
01000008
01000008
01000008
01000008
01000008
01000008
01000008
01000008
01000008
01000008
01FFFFF8
01000008
01000008
01000008
01000008
01000008
01000008
01000008
01000008
01000008
01000008
01000008
01000008
01000008
01000000
01000000
01000000
01000000
01000000
01000000
86000000
78000000
ENDCHAR
STARTCHAR 0529
ENCODING 1321
SWIDTH 642 0
DWIDTH 25 0
BBX 24 28 -3 -8
BITMAP
010001
010001
010001
010001
010001
010001
010001
010001
010001
01FFFF
010001
010001
010001
010001
010001
010001
010001
010001
010001
010001
010000
010000
010000
010000
010000
010000
820000
5C0000
ENDCHAR
STARTCHAR 052E
ENCODING 1326
SWIDTH 771 0
DWIDTH 30 0
BBX 29 33 0 -6
BITMAP
00FFFF80
00800080
00800080
00800080
01000080
01000080
01000080
01000080
01000080
01000080
01000080
01000080
01000080
01000080
01000080
01000080
01000080
01000080
01000080
01000080
02000080
02000080
02000080
04000080
04000080
08000080
F00000F8
00000008
00000008
00000008
00000008
00000008
00000008
ENDCHAR
STARTCHAR 052F
ENCODING 1327
SWIDTH 617 0
DWIDTH 24 0
BBX 23 25 0 -5
BITMAP
03FFE0
020020
020020
020020
020020
020020
020020
040020
040020
040020
040020
040020
040020
040020
040020
080020
080020
080020
100020
E0001E
000002
000002
000002
000002
000002
ENDCHAR
STARTCHAR 1E08
ENCODING 7688
SWIDTH 694 0
DWIDTH 27 0
BBX 23 42 2 -8
BITMAP
000060
000080
000100
000600
000800
000000
000000
007FE0
018018
020006
0C0000
180000
100000
200000
400000
400000
400000
800000
800000
800000
800000
800000
800000
800000
400000
400000
200000
200000
100000
080000
040000
020006
018018
007FC0
000400
000400
000600
000100
000080
000080
000080
001F00
ENDCHAR
STARTCHAR 1E09
ENCODING 7689
SWIDTH 540 0
DWIDTH 21 0
BBX 17 36 2 -8
BITMAP
000C00
001800
002000
004000
008000
000000
000000
000000
03FC00
0C0300
100080
200000
400000
400000
800000
800000
800000
800000
800000
800000
800000
800000
400000
400000
200080
100180
0C0200
03F800
008000
008000
00C000
003000
001000
001000
001000
03E000
ENDCHAR
STARTCHAR 1E0C
ENCODING 7692
SWIDTH 822 0
DWIDTH 32 0
BBX 25 34 5 -7
BITMAP
FFFF0000
8000C000
80003000
80000800
80000400
80000400
80000200
80000100
80000100
80000100
80000080
80000080
80000080
80000080
80000080
80000080
80000080
80000100
80000100
80000200
80000200
80000400
80000800
80001000
80002000
80008000
FFFF0000
00000000
00000000
00000000
00000000
00000000
00600000
00200000
ENDCHAR
STARTCHAR 1E0D
ENCODING 7693
SWIDTH 668 0
DWIDTH 26 0
BBX 20 36 2 -7
BITMAP
000010
000010
000010
000010
000010
000010
000010
000010
000010
03FC10
0C0210
100190
200090
400050
400030
800030
800010
800010
800010
800010
800010
800010
800030
400030
400050
200090
100190
0C0210
03FC10
000000
000000
000000
000000
000000
003000
003000
ENDCHAR
STARTCHAR 1E0E
ENCODING 7694
SWIDTH 822 0
DWIDTH 32 0
BBX 25 33 5 -6
BITMAP
FFFF0000
8000C000
80003000
80000800
80000400
80000400
80000200
80000100
80000100
80000100
80000080
80000080
80000080
80000080
80000080
80000080
80000080
80000100
80000100
80000200
80000200
80000400
80000800
80001000
80002000
80008000
FFFF0000
00000000
00000000
00000000
00000000
00000000
07FF0000
ENDCHAR
STARTCHAR 1E0F
ENCODING 7695
SWIDTH 668 0
DWIDTH 26 0
BBX 20 35 2 -6
BITMAP
000010
000010
000010
000010
000010
000010
000010
000010
000010
03FC10
0C0210
100190
200090
400050
400030
800030
800010
800010
800010
800010
800010
800010
800030
400030
400050
200090
100190
0C0210
03FC10
000000
000000
000000
000000
000000
07FF00
ENDCHAR
STARTCHAR 1E14
ENCODING 7700
SWIDTH 642 0
DWIDTH 25 0
BBX 18 38 5 0
BITMAP
0C0000
020000
018000
004000
000000
000000
000000
0FFC00
000000
000000
000000
FFFFC0
800000
800000
800000
800000
800000
800000
800000
800000
800000
800000
800000
800000
FFFF00
800000
800000
800000
800000
800000
800000
800000
800000
800000
800000
800000
800000
FFFFC0
ENDCHAR
STARTCHAR 1E15
ENCODING 7701
SWIDTH 565 0
DWIDTH 22 0
BBX 19 32 2 0
BITMAP
060000
010000
008000
006000
000000
000000
0FFE00
000000
000000
000000
000000
000000
03F800
0C0600
100100
200080
400080
400040
800040
800020
800020
FFFFE0
800000
800000
800000
800000
400000
400000
200000
100080
0C0300
03FC00
ENDCHAR
STARTCHAR 1E16
ENCODING 7702
SWIDTH 642 0
DWIDTH 25 0
BBX 18 38 5 0
BITMAP
000800
001000
006000
008000
000000
000000
000000
0FFC00
000000
000000
000000
FFFFC0
800000
800000
800000
800000
800000
800000
800000
800000
800000
800000
800000
800000
FFFF00
800000
800000
800000
800000
800000
800000
800000
800000
800000
800000
800000
800000
FFFFC0
ENDCHAR
STARTCHAR 1E17
ENCODING 7703
SWIDTH 565 0
DWIDTH 22 0
BBX 19 32 2 0
BITMAP
000C00
001000
002000
00C000
000000
000000
0FFE00
000000
000000
000000
000000
000000
03F800
0C0600
100100
200080
400080
400040
800040
800020
800020
FFFFE0
800000
800000
800000
800000
400000
400000
200000
100080
0C0300
03FC00
ENDCHAR
STARTCHAR 1E1C
ENCODING 7708
SWIDTH 642 0
DWIDTH 25 0
BBX 18 42 5 -8
BITMAP
080400
080400
080800
061800
00C000
000000
000000
FFFFC0
800000
800000
800000
800000
800000
800000
800000
800000
800000
800000
800000
800000
FFFF00
800000
800000
800000
800000
800000
800000
800000
800000
800000
800000
800000
800000
FFFFC0
004000
004000
00E000
001000
001000
000800
001000
03E000
ENDCHAR
STARTCHAR 1E1D
ENCODING 7709
SWIDTH 565 0
DWIDTH 22 0
BBX 19 36 2 -8
BITMAP
080200
080400
040400
031800
00E000
000000
000000
000000
03F800
0C0600
100100
200080
400080
400040
800040
800020
800020
FFFFE0
800000
800000
800000
800000
400000
400000
200000
100080
0C0300
03FC00
004000
008000
00E000
001000
001000
001000
001000
03E000
ENDCHAR
STARTCHAR 1E20
ENCODING 7712
SWIDTH 771 0
DWIDTH 30 0
BBX 24 32 2 0
BITMAP
00FFE0
000000
000000
000000
000000
007FF0
01800C
020002
0C0000
180000
100000
200000
400000
400000
400000
800000
800000
800000
800000
800001
800001
800001
400001
400001
200001
200001
100001
080001
040001
020006
018018
007FE0
ENDCHAR
STARTCHAR 1E21
ENCODING 7713
SWIDTH 668 0
DWIDTH 26 0
BBX 20 34 2 -8
BITMAP
07FF00
000000
000000
000000
000000
000000
03FC10
0C0310
100090
200050
400050
400030
800010
800010
800010
800010
800010
800010
800010
400030
400030
200050
100090
080110
079E10
006010
000010
000010
000020
000020
200040
180080
060300
017C00
ENDCHAR
STARTCHAR 1E24
ENCODING 7716
SWIDTH 797 0
DWIDTH 31 0
BBX 22 34 5 -7
BITMAP
800004
800004
800004
800004
800004
800004
800004
800004
800004
800004
800004
800004
800004
FFFFFC
800004
800004
800004
800004
800004
800004
800004
800004
800004
800004
800004
800004
800004
000000
000000
000000
000000
000000
003000
003000
ENDCHAR
STARTCHAR 1E25
ENCODING 7717
SWIDTH 642 0
DWIDTH 25 0
BBX 18 36 4 -7
BITMAP
800000
800000
800000
800000
800000
800000
800000
800000
800000
83F800
8C0600
900100
A00080
C00080
C00080
C00040
800040
800040
800040
800040
800040
800040
800040
800040
800040
800040
800040
800040
800040
000000
000000
000000
000000
000000
00C000
00C000
ENDCHAR
STARTCHAR 1E2A
ENCODING 7722
SWIDTH 797 0
DWIDTH 31 0
BBX 22 35 5 -8
BITMAP
800004
800004
800004
800004
800004
800004
800004
800004
800004
800004
800004
800004
800004
FFFFFC
800004
800004
800004
800004
800004
800004
800004
800004
800004
800004
800004
800004
800004
000000
000000
000000
000100
020100
020200
018600
007800
ENDCHAR
STARTCHAR 1E2B
ENCODING 7723
SWIDTH 642 0
DWIDTH 25 0
BBX 18 37 4 -8
BITMAP
800000
800000
800000
800000
800000
800000
800000
800000
800000
83F800
8C0600
900100
A00080
C00080
C00080
C00040
800040
800040
800040
800040
800040
800040
800040
800040
800040
800040
800040
800040
800040
000000
000000
000000
080400
080400
080400
061800
00C000
ENDCHAR
STARTCHAR 1E2E
ENCODING 7726
SWIDTH 282 0
DWIDTH 11 0
BBX 9 38 1 0
BITMAP
0180
0300
0400
0800
1000
4100
C180
0000
0000
0000
0000
0800
0800
0800
0800
0800
0800
0800
0800
0800
0800
0800
0800
0800
0800
0800
0800
0800
0800
0800
0800
0800
0800
0800
0800
0800
0800
0800
ENDCHAR
STARTCHAR 1E2F
ENCODING 7727
SWIDTH 231 0
DWIDTH 9 0
BBX 8 32 1 0
BITMAP
01
06
08
10
00
83
C3
00
00
00
00
00
10
10
10
10
10
10
10
10
10
10
10
10
10
10
10
10
10
10
10
10
ENDCHAR
STARTCHAR 1E36
ENCODING 7734
SWIDTH 565 0
DWIDTH 22 0
BBX 17 34 5 -7
BITMAP
800000
800000
800000
800000
800000
800000
800000
800000
800000
800000
800000
800000
800000
800000
800000
800000
800000
800000
800000
800000
800000
800000
800000
800000
800000
800000
FFFF80
000000
000000
000000
000000
000000
00C000
00C000
ENDCHAR
STARTCHAR 1E37
ENCODING 7735
SWIDTH 231 0
DWIDTH 9 0
BBX 2 36 4 -7
BITMAP
80
80
80
80
80
80
80
80
80
80
80
80
80
80
80
80
80
80
80
80
80
80
80
80
80
80
80
80
80
00
00
00
00
00
C0
C0
ENDCHAR
STARTCHAR 1E3A
ENCODING 7738
SWIDTH 565 0
DWIDTH 22 0
BBX 17 33 5 -6
BITMAP
800000
800000
800000
800000
800000
800000
800000
800000
800000
800000
800000
800000
800000
800000
800000
800000
800000
800000
800000
800000
800000
800000
800000
800000
800000
800000
FFFF80
000000
000000
000000
000000
000000
0FFC00
ENDCHAR
STARTCHAR 1E3B
ENCODING 7739
SWIDTH 231 0
DWIDTH 9 0
BBX 10 35 0 -6
BITMAP
0800
0800
0800
0800
0800
0800
0800
0800
0800
0800
0800
0800
0800
0800
0800
0800
0800
0800
0800
0800
0800
0800
0800
0800
0800
0800
0800
0800
0800
0000
0000
0000
0000
0000
FFC0
ENDCHAR
STARTCHAR 1E42
ENCODING 7746
SWIDTH 951 0
DWIDTH 37 0
BBX 27 34 5 -7
BITMAP
80000020
C0000060
C0000060
A00000A0
900000A0
90000120
88000220
88000220
84000420
84000420
82000820
81000820
81001020
80802020
80802020
80404020
80404020
80208020
80108020
80110020
800A0020
800A0020
80040020
80000020
80000020
80000020
80000020
00000000
00000000
00000000
00000000
00000000
00060000
00040000
ENDCHAR
STARTCHAR 1E43
ENCODING 7747
SWIDTH 1054 0
DWIDTH 41 0
BBX 33 27 4 -7
BITMAP
83F803F800
8C060C0600
9001100100
A001200100
C000C00080
C000C00080
C000C00080
8000800080
8000800080
8000800080
8000800080
8000800080
8000800080
8000800080
8000800080
8000800080
8000800080
8000800080
8000800080
8000800080
0000000000
0000000000
0000000000
0000000000
0000000000
0000C00000
0000C00000
ENDCHAR
STARTCHAR 1E44
ENCODING 7748
SWIDTH 797 0
DWIDTH 31 0
BBX 22 33 5 0
BITMAP
003000
003000
000000
000000
000000
000000
800004
C00004
A00004
900004
900004
880004
840004
820004
810004
810004
808004
804004
802004
802004
801004
800804
800404
800204
800204
800104
800084
800044
800044
800024
800014
80000C
800004
ENDCHAR
STARTCHAR 1E45
ENCODING 7749
SWIDTH 642 0
DWIDTH 25 0
BBX 18 27 4 0
BITMAP
00C000
00C000
000000
000000
000000
000000
000000
83F800
8C0600
900100
A00080
C00080
C00080
C00040
800040
800040
800040
800040
800040
800040
800040
800040
800040
800040
800040
800040
800040
ENDCHAR
STARTCHAR 1E46
ENCODING 7750
SWIDTH 797 0
DWIDTH 31 0
BBX 22 34 5 -7
BITMAP
800004
C00004
A00004
900004
900004
880004
840004
820004
810004
810004
808004
804004
802004
802004
801004
800804
800404
800204
800204
800104
800084
800044
800044
800024
800014
80000C
800004
000000
000000
000000
000000
000000
003000
003000
ENDCHAR
STARTCHAR 1E47
ENCODING 7751
SWIDTH 642 0
DWIDTH 25 0
BBX 18 27 4 -7
BITMAP
83F800
8C0600
900100
A00080
C00080
C00080
C00040
800040
800040
800040
800040
800040
800040
800040
800040
800040
800040
800040
800040
800040
000000
000000
000000
000000
000000
00C000
00C000
ENDCHAR
STARTCHAR 1E48
ENCODING 7752
SWIDTH 797 0
DWIDTH 31 0
BBX 22 33 5 -6
BITMAP
800004
C00004
A00004
900004
900004
880004
840004
820004
810004
810004
808004
804004
802004
802004
801004
800804
800404
800204
800204
800104
800084
800044
800044
800024
800014
80000C
800004
000000
000000
000000
000000
000000
03FF00
ENDCHAR
STARTCHAR 1E49
ENCODING 7753
SWIDTH 642 0
DWIDTH 25 0
BBX 18 26 4 -6
BITMAP
83F800
8C0600
900100
A00080
C00080
C00080
C00040
800040
800040
800040
800040
800040
800040
800040
800040
800040
800040
800040
800040
800040
000000
000000
000000
000000
000000
0FFC00
ENDCHAR
STARTCHAR 1E4C
ENCODING 7756
SWIDTH 822 0
DWIDTH 32 0
BBX 28 38 2 0
BITMAP
00006000
00008000
00010000
00060000
00000000
00380000
00462000
0041C000
00000000
00000000
00000000
007FE000
01801800
02000600
0C000100
10000080
10000040
20000040
40000020
40000020
40000010
80000010
80000010
80000010
80000010
80000010
80000010
80000010
40000010
40000020
20000020
20000040
10000040
08000080
04000100
02000600
01801800
007FE000
ENDCHAR
STARTCHAR 1E4D
ENCODING 7757
SWIDTH 591 0
DWIDTH 23 0
BBX 20 32 2 0
BITMAP
000400
001800
002000
004000
000000
038200
046200
001C00
000000
000000
000000
000000
03FC00
0C0300
100080
200040
400040
400020
800020
800020
800010
800010
800010
800010
800020
800020
400020
400040
200080
100180
0C0200
03FC00
ENDCHAR
STARTCHAR 1E4E
ENCODING 7758
SWIDTH 822 0
DWIDTH 32 0
BBX 28 37 2 0
BITMAP
0030C000
00304000
00000000
00000000
00380000
00462000
0041C000
00000000
00000000
00000000
007FE000
01801800
02000600
0C000100
10000080
10000040
20000040
40000020
40000020
40000010
80000010
80000010
80000010
80000010
80000010
80000010
80000010
40000010
40000020
20000020
20000040
10000040
08000080
04000100
02000600
01801800
007FE000
ENDCHAR
STARTCHAR 1E4F
ENCODING 7759
SWIDTH 591 0
DWIDTH 23 0
BBX 20 31 2 0
BITMAP
030C00
020000
000000
000000
038200
046200
001C00
000000
000000
000000
000000
03FC00
0C0300
100080
200040
400040
400020
800020
800020
800010
800010
800010
800010
800020
800020
400020
400040
200080
100180
0C0200
03FC00
ENDCHAR
STARTCHAR 1E50
ENCODING 7760
SWIDTH 822 0
DWIDTH 32 0
BBX 28 38 2 0
BITMAP
00200000
00180000
00040000
00020000
00000000
00000000
00000000
007FE000
00000000
00000000
00000000
007FE000
01801800
02000600
0C000100
10000080
10000040
20000040
40000020
40000020
40000010
80000010
80000010
80000010
80000010
80000010
80000010
80000010
40000010
40000020
20000020
20000040
10000040
08000080
04000100
02000600
01801800
007FE000
ENDCHAR
STARTCHAR 1E51
ENCODING 7761
SWIDTH 591 0
DWIDTH 23 0
BBX 20 32 2 0
BITMAP
020000
010000
00C000
002000
000000
000000
07FE00
000000
000000
000000
000000
000000
03FC00
0C0300
100080
200040
400040
400020
800020
800020
800010
800010
800010
800010
800020
800020
400020
400040
200080
100180
0C0200
03FC00
ENDCHAR
STARTCHAR 1E52
ENCODING 7762
SWIDTH 822 0
DWIDTH 32 0
BBX 28 38 2 0
BITMAP
00006000
00008000
00010000
00060000
00000000
00000000
00000000
007FE000
00000000
00000000
00000000
007FE000
01801800
02000600
0C000100
10000080
10000040
20000040
40000020
40000020
40000010
80000010
80000010
80000010
80000010
80000010
80000010
80000010
40000010
40000020
20000020
20000040
10000040
08000080
04000100
02000600
01801800
007FE000
ENDCHAR
STARTCHAR 1E53
ENCODING 7763
SWIDTH 591 0
DWIDTH 23 0
BBX 20 32 2 0
BITMAP
000400
001800
002000
004000
000000
000000
07FE00
000000
000000
000000
000000
000000
03FC00
0C0300
100080
200040
400040
400020
800020
800020
800010
800010
800010
800010
800020
800020
400020
400040
200080
100180
0C0200
03FC00
ENDCHAR
STARTCHAR 1E5A
ENCODING 7770
SWIDTH 694 0
DWIDTH 27 0
BBX 20 34 5 -7
BITMAP
FFFC00
800300
8000C0
800020
800020
800010
800010
800010
800010
800010
800010
800010
800020
800020
800040
800080
800700
FFEC00
800400
800200
800100
800080
800080
800040
800020
800020
800010
000000
000000
000000
000000
000000
00C000
004000
ENDCHAR
STARTCHAR 1E5B
ENCODING 7771
SWIDTH 360 0
DWIDTH 14 0
BBX 9 27 4 -7
BITMAP
8780
8800
9000
A000
C000
C000
C000
8000
8000
8000
8000
8000
8000
8000
8000
8000
8000
8000
8000
8000
0000
0000
0000
0000
0000
C000
C000
ENDCHAR
STARTCHAR 1E5E
ENCODING 7774
SWIDTH 694 0
DWIDTH 27 0
BBX 20 33 5 -6
BITMAP
FFFC00
800300
8000C0
800020
800020
800010
800010
800010
800010
800010
800010
800010
800020
800020
800040
800080
800700
FFEC00
800400
800200
800100
800080
800080
800040
800020
800020
800010
000000
000000
000000
000000
000000
0FFE00
ENDCHAR
STARTCHAR 1E5F
ENCODING 7775
SWIDTH 360 0
DWIDTH 14 0
BBX 13 26 0 -6
BITMAP
0878
0880
0900
0A00
0C00
0C00
0C00
0800
0800
0800
0800
0800
0800
0800
0800
0800
0800
0800
0800
0800
0000
0000
0000
0000
0000
FFC0
ENDCHAR
STARTCHAR 1E60
ENCODING 7776
SWIDTH 591 0
DWIDTH 23 0
BBX 19 33 2 0
BITMAP
002000
006000
000000
000000
000000
000000
07FE00
080180
300040
200000
400000
400000
400000
400000
400000
200000
200000
180000
070000
00F000
000E00
000180
000040
000020
000020
000020
000020
000020
000020
C00040
2000C0
180100
07FE00
ENDCHAR
STARTCHAR 1E61
ENCODING 7777
SWIDTH 462 0
DWIDTH 18 0
BBX 16 27 1 0
BITMAP
0180
0180
0000
0000
0000
0000
0000
0FF0
100C
2000
4000
4000
4000
4000
2000
1000
0F00
00F0
000C
0002
0002
0001
0001
0002
C002
3004
0FF8
ENDCHAR
STARTCHAR 1E62
ENCODING 7778
SWIDTH 591 0
DWIDTH 23 0
BBX 19 34 2 -7
BITMAP
07FE00
080180
300040
200000
400000
400000
400000
400000
400000
200000
200000
180000
070000
00F000
000E00
000180
000040
000020
000020
000020
000020
000020
000020
C00040
2000C0
180100
07FE00
000000
000000
000000
000000
000000
006000
002000
ENDCHAR
STARTCHAR 1E63
ENCODING 7779
SWIDTH 462 0
DWIDTH 18 0
BBX 16 27 1 -7
BITMAP
0FF0
100C
2000
4000
4000
4000
4000
2000
1000
0F00
00F0
000C
0002
0002
0001
0001
0002
C002
3004
0FF8
0000
0000
0000
0000
0000
0180
0180
ENDCHAR
STARTCHAR 1E64
ENCODING 7780
SWIDTH 591 0
DWIDTH 23 0
BBX 19 37 2 0
BITMAP
006000
002000
000000
000000
000C00
001800
002000
004000
000000
000000
07FE00
080180
300040
200000
400000
400000
400000
400000
400000
200000
200000
180000
070000
00F000
000E00
000180
000040
000020
000020
000020
000020
000020
000020
C00040
2000C0
180100
07FE00
ENDCHAR
STARTCHAR 1E65
ENCODING 7781
SWIDTH 462 0
DWIDTH 18 0
BBX 16 31 1 0
BITMAP
0180
0100
0000
0018
0020
0040
0180
0000
0000
0000
0000
0FF0
100C
2000
4000
4000
4000
4000
2000
1000
0F00
00F0
000C
0002
0002
0001
0001
0002
C002
3004
0FF8
ENDCHAR
STARTCHAR 1E66
ENCODING 7782
SWIDTH 591 0
DWIDTH 23 0
BBX 19 36 2 0
BITMAP
006000
002000
000000
040300
030400
00D800
002000
000000
000000
07FE00
080180
300040
200000
400000
400000
400000
400000
400000
200000
200000
180000
070000
00F000
000E00
000180
000040
000020
000020
000020
000020
000020
000020
C00040
2000C0
180100
07FE00
ENDCHAR
STARTCHAR 1E67
ENCODING 7783
SWIDTH 462 0
DWIDTH 18 0
BBX 16 30 1 0
BITMAP
0180
0000
0000
1008
0C30
03C0
0000
0000
0000
0000
0FF0
100C
2000
4000
4000
4000
4000
2000
1000
0F00
00F0
000C
0002
0002
0001
0001
0002
C002
3004
0FF8
ENDCHAR
ENDFONT
